{"glyphs":{"0":{"ha":900,"x_min":0,"x_max":0,"o":"m 128 661 b 582 1007 165 882 331 1007 b 854 903 706 1007 796 972 b 913 631 913 833 932 743 l 858 326 b 408 -21 819 104 658 -21 b 133 83 285 -21 193 14 b 74 357 74 151 54 243 m 643 657 b 542 764 654 725 618 764 b 401 657 465 764 414 725 l 344 331 b 446 222 332 263 369 222 b 585 331 522 222 572 263 "},"1":{"ha":619,"x_min":0,"x_max":0,"o":"m 586 986 b 635 928 631 986 644 971 l 482 58 b 413 0 472 15 457 0 l 256 0 b 207 58 211 0 197 15 l 310 638 l 206 585 b 121 608 156 561 136 568 l 75 726 b 117 807 63 764 74 783 l 417 963 b 503 986 444 978 474 986 "},"2":{"ha":851,"x_min":0,"x_max":0,"o":"m 121 764 b 546 1007 214 926 356 1007 b 801 914 660 1007 744 976 b 860 678 857 851 876 774 b 749 453 843 579 806 504 b 483 315 692 401 603 356 b 388 289 460 308 413 296 b 349 276 375 285 361 281 b 306 242 322 267 307 254 l 304 235 l 704 235 b 753 175 749 235 760 219 l 732 58 b 663 0 722 15 707 0 l 36 0 b -12 58 -8 0 -19 15 l 10 182 b 135 386 26 271 64 338 b 225 440 169 410 200 428 b 332 486 249 453 285 468 b 411 517 338 488 403 514 b 444 532 417 519 428 525 b 508 567 478 547 483 550 b 554 611 533 582 539 593 b 581 672 569 629 576 650 b 501 764 590 729 561 764 b 364 672 444 764 407 739 b 282 635 336 628 321 622 l 144 689 b 121 764 106 704 99 724 "},"3":{"ha":869,"x_min":0,"x_max":0,"o":"m 857 711 b 715 517 842 628 794 563 b 811 278 799 465 831 386 b 388 -21 776 79 636 -21 b 17 222 172 -21 49 60 b 67 297 10 260 26 285 l 213 346 b 281 308 256 361 271 351 b 404 218 292 249 333 218 b 528 300 478 218 518 246 b 451 382 538 354 513 382 l 367 382 b 318 440 322 382 308 397 l 338 556 b 407 615 347 600 363 615 l 468 615 b 576 692 531 615 567 640 b 496 768 586 743 561 768 b 349 685 418 768 386 747 b 267 647 325 642 307 635 l 139 696 b 115 771 101 711 94 731 b 561 1007 204 932 338 1007 b 803 925 669 1007 750 979 b 857 711 854 869 872 799 "},"4":{"ha":913,"x_min":0,"x_max":0,"o":"m 836 410 b 883 351 879 410 890 394 l 867 254 b 797 196 860 211 842 196 l 728 196 l 703 58 b 633 0 696 15 678 0 l 492 0 b 443 58 447 0 433 15 l 467 196 l 47 196 b -1 254 3 196 -8 211 l 14 346 b 61 440 24 394 29 408 l 574 944 b 669 986 608 978 626 986 l 807 986 b 857 928 851 986 864 971 l 765 410 m 546 644 l 310 410 l 506 410 "},"5":{"ha":853,"x_min":0,"x_max":0,"o":"m 818 988 b 867 928 863 988 874 972 l 844 803 b 775 744 838 758 819 744 l 424 744 l 397 647 l 493 647 b 753 554 615 647 701 617 b 801 311 803 492 819 410 b 372 -21 767 113 613 -21 b 3 208 150 -21 35 53 b 51 283 -4 249 8 267 l 210 339 b 276 304 250 354 267 347 b 399 226 289 250 321 226 b 518 329 467 226 506 261 b 425 424 529 392 499 424 l 135 424 b 86 492 86 424 74 443 l 201 904 b 310 988 219 967 244 988 "},"6":{"ha":904,"x_min":0,"x_max":0,"o":"m 394 615 b 542 626 432 622 481 626 b 871 300 807 626 908 518 b 413 -21 833 89 668 -21 b 78 369 153 -21 35 125 l 126 649 b 592 1007 168 888 324 1007 b 942 786 793 1007 910 933 b 892 711 949 746 936 726 l 754 661 b 685 700 710 644 701 663 b 560 764 667 743 625 764 b 399 635 468 764 414 721 m 343 322 b 453 214 332 250 363 214 b 599 304 546 214 588 244 b 485 392 608 365 579 392 b 353 375 431 392 386 386 "},"7":{"ha":789,"x_min":0,"x_max":0,"o":"m 846 986 b 896 928 890 986 903 971 l 879 833 b 847 751 872 803 863 775 l 394 51 b 276 0 367 8 349 0 l 122 0 b 104 58 86 0 81 19 l 544 743 l 175 743 b 126 803 131 743 119 758 l 149 928 b 217 986 156 971 172 986 "},"8":{"ha":899,"x_min":0,"x_max":0,"o":"m 153 722 b 576 1007 186 907 342 1007 b 899 717 819 1007 932 899 b 767 518 885 639 840 572 b 854 278 844 467 874 386 b 396 -21 821 79 668 -21 b 40 271 117 -21 8 89 b 218 501 58 368 117 444 b 153 722 157 550 135 624 m 628 704 b 538 778 638 750 606 778 b 426 704 474 778 436 753 b 511 617 419 658 446 638 l 550 606 b 628 704 594 632 621 664 m 572 286 b 529 356 576 317 563 340 b 406 396 519 360 479 374 b 318 289 354 365 325 329 b 433 206 308 235 344 206 b 572 286 517 206 563 232 "},"9":{"ha":904,"x_min":0,"x_max":0,"o":"m 572 371 b 426 360 535 364 486 360 b 96 686 161 360 58 468 b 554 1007 135 897 299 1007 b 889 617 814 1007 932 861 l 840 338 b 376 -21 799 99 644 -21 b 26 200 172 -21 56 53 b 76 275 19 240 32 260 l 214 325 b 283 286 260 336 263 329 b 407 222 300 242 335 222 b 568 351 500 222 553 265 m 624 664 b 514 772 636 735 604 772 b 369 682 428 772 379 742 b 482 594 358 621 388 594 b 614 611 536 594 581 600 "}," ":{"ha":253,"x_min":0,"x_max":0,"o":""},"!":{"ha":394,"x_min":0,"x_max":0,"o":"m 394 1026 b 439 975 433 1026 446 1014 l 308 376 b 247 324 299 336 286 324 l 135 324 b 90 376 96 324 85 338 l 174 975 b 236 1026 179 1014 196 1026 m 213 254 b 303 146 294 254 315 228 l 294 97 b 165 -11 279 15 249 -11 l 96 -11 b 6 97 14 -11 -7 15 l 14 146 b 143 254 29 228 60 254 "},"\"":{"ha":569,"x_min":0,"x_max":0,"o":"m 293 664 b 229 619 281 625 272 619 l 144 619 b 104 664 104 619 97 625 l 153 939 b 208 986 158 979 168 986 l 331 986 b 371 939 371 986 382 978 m 544 664 b 481 619 532 625 524 619 l 396 619 b 356 664 356 619 349 625 l 404 939 b 460 986 411 979 421 986 l 582 986 b 622 939 622 986 633 978 "},"#":{"ha":1069,"x_min":0,"x_max":0,"o":"m 1060 749 b 1089 697 1100 749 1107 736 l 1035 582 b 956 533 1019 550 993 533 l 876 533 l 811 399 l 894 399 b 925 347 935 399 943 385 l 868 232 b 789 182 850 194 829 182 l 708 182 l 649 53 b 571 0 632 18 606 0 l 444 0 b 415 53 404 0 397 15 l 475 182 l 353 182 l 293 53 b 215 0 272 14 254 0 l 88 0 b 60 53 50 0 42 18 l 121 182 l 39 182 b 10 235 0 182 -8 196 l 65 350 b 144 399 83 388 101 399 l 224 399 l 288 533 l 206 533 b 175 585 165 533 157 547 l 231 700 b 310 749 247 738 269 749 l 390 749 l 453 882 b 529 935 469 917 494 935 l 657 935 b 686 882 697 935 704 919 l 622 749 l 744 749 l 808 882 b 886 935 825 917 851 935 l 1013 935 b 1040 882 1050 935 1058 917 l 978 749 m 521 533 l 456 399 l 578 399 l 643 533 "},"$":{"ha":864,"x_min":0,"x_max":0,"o":"m 629 1057 b 672 1004 668 1057 679 1043 l 664 957 b 861 782 765 939 832 881 b 817 707 874 744 861 725 l 682 651 b 614 681 642 635 626 640 b 501 749 597 729 569 749 b 375 686 419 749 385 731 b 507 615 368 643 411 628 b 692 569 581 606 624 600 b 772 514 726 554 753 535 b 817 296 810 471 833 394 b 501 33 790 142 686 67 l 493 -15 b 431 -69 486 -56 471 -69 l 288 -69 b 243 -15 247 -69 236 -56 l 250 31 b 18 222 115 51 38 115 b 68 296 11 258 28 283 l 204 342 b 279 313 247 358 267 351 b 404 244 292 267 333 244 b 549 311 492 244 540 267 b 425 381 556 354 514 369 b 239 429 349 392 310 399 b 156 483 203 444 175 463 b 106 700 115 526 89 601 b 414 957 131 840 233 926 l 422 1004 b 485 1057 429 1044 444 1057 "},"%":{"ha":1256,"x_min":0,"x_max":0,"o":"m 117 790 b 404 1007 143 925 244 1007 b 613 790 564 1007 636 925 l 594 685 b 308 471 571 551 468 471 b 99 685 149 471 75 551 m 1176 986 b 1196 931 1215 986 1224 960 l 396 51 b 344 10 375 29 357 15 b 272 0 331 3 307 0 l 146 0 b 126 58 106 0 99 29 l 928 938 b 976 978 947 958 964 972 b 1043 986 989 983 1011 986 m 422 778 b 372 828 428 811 411 828 b 304 778 332 828 310 811 l 290 700 b 340 649 283 665 300 649 b 408 700 378 649 401 665 m 722 299 b 1008 517 744 436 849 517 b 1217 299 1168 517 1240 436 l 1199 194 b 914 -21 1175 60 1074 -21 b 703 194 754 -21 679 60 m 1028 286 b 978 336 1032 319 1015 336 b 910 286 936 336 914 319 l 896 208 b 946 158 889 175 906 158 b 1014 208 983 158 1007 175 "},"&":{"ha":968,"x_min":0,"x_max":0,"o":"m 215 746 b 554 1007 242 897 364 1007 b 740 932 633 1007 694 982 b 789 746 785 882 801 819 b 601 504 771 643 708 563 l 586 497 l 658 400 l 738 467 b 808 467 764 490 788 490 l 890 368 b 875 307 906 349 900 328 l 786 232 l 921 51 b 888 0 943 24 931 0 l 708 0 b 636 31 669 0 654 7 l 599 79 b 307 -21 492 3 411 -21 b 33 288 111 -21 0 99 b 246 553 54 403 125 490 b 215 746 211 610 201 674 m 567 750 b 518 808 572 785 553 808 b 446 744 479 808 451 782 b 469 656 440 715 449 685 l 500 671 b 567 750 539 692 561 718 m 367 389 b 279 286 315 365 286 331 b 358 196 269 232 301 196 b 475 246 394 196 433 213 "},"'":{"ha":317,"x_min":0,"x_max":0,"o":"m 293 664 b 229 619 281 625 272 619 l 144 619 b 104 664 104 619 97 625 l 153 939 b 208 986 158 979 168 986 l 331 986 b 371 939 371 986 382 978 "},"(":{"ha":443,"x_min":0,"x_max":0,"o":"m 179 826 b 456 1196 213 1019 304 1131 b 521 1161 494 1211 510 1201 l 564 1019 b 522 947 575 982 565 969 b 429 814 468 921 442 885 l 315 163 b 360 29 303 92 315 56 b 376 -43 394 7 400 -6 l 286 -175 b 208 -208 258 -214 243 -224 b 63 161 78 -143 29 -21 "},")":{"ha":442,"x_min":0,"x_max":0,"o":"m 239 1161 b 318 1196 268 1201 283 1211 b 463 826 447 1131 497 1019 l 346 161 b 71 -208 313 -32 222 -143 b 4 -175 32 -224 15 -214 l -39 -32 b 4 40 -49 6 -39 18 b 97 174 60 67 85 103 l 211 825 b 167 958 224 896 211 932 b 149 1031 132 981 126 993 "},"*":{"ha":485,"x_min":0,"x_max":0,"o":"m 381 944 b 408 904 410 944 419 931 l 376 808 l 471 853 b 517 832 500 868 511 861 l 525 781 b 488 736 529 754 517 740 l 390 721 l 446 653 b 433 600 464 633 460 615 l 383 569 b 333 581 357 553 340 557 l 306 664 l 247 581 b 194 565 231 554 213 549 l 154 600 b 160 653 135 615 136 633 l 240 721 l 147 736 b 128 782 121 740 114 756 l 153 832 b 208 853 167 860 185 867 l 286 808 l 286 904 b 326 944 286 931 300 944 "},"+":{"ha":765,"x_min":0,"x_max":0,"o":"m 704 569 b 753 510 749 569 760 554 l 733 400 b 664 340 726 356 707 340 l 488 340 l 457 165 b 388 107 450 121 432 107 l 278 107 b 229 165 233 107 222 121 l 260 340 l 86 340 b 38 400 42 340 31 356 l 57 510 b 126 569 64 554 82 569 l 300 569 l 331 743 b 400 801 338 788 356 801 l 510 801 b 558 743 554 801 565 788 l 528 569 "},",":{"ha":358,"x_min":0,"x_max":0,"o":"m 146 -125 b 67 -178 129 -164 110 -178 l -17 -178 b -51 -137 -50 -178 -58 -169 l 24 179 b 104 250 36 231 56 250 l 232 250 b 279 179 283 250 300 226 "},"-":{"ha":557,"x_min":0,"x_max":0,"o":"m 457 485 b 506 426 501 485 513 471 l 485 308 b 417 250 478 264 461 250 l 94 250 b 46 308 51 250 39 264 l 67 426 b 136 485 74 471 92 485 "},".":{"ha":364,"x_min":0,"x_max":0,"o":"m 193 264 b 283 154 276 264 299 236 l 274 97 b 146 -11 258 15 228 -11 l 93 -11 b 1 97 10 -11 -14 15 l 13 154 b 140 264 28 236 58 264 "},"/":{"ha":690,"x_min":0,"x_max":0,"o":"m 242 -35 b 163 -83 221 -72 203 -83 l 7 -83 b -21 -35 -29 -83 -39 -67 l 514 938 b 593 986 535 976 553 986 l 749 986 b 775 938 788 986 793 972 "},":":{"ha":397,"x_min":0,"x_max":0,"o":"m 285 724 b 376 614 368 724 389 697 l 365 558 b 238 449 350 476 319 449 l 185 449 b 94 558 101 449 79 476 l 104 614 b 232 724 117 697 150 724 m 213 264 b 303 154 294 264 318 236 l 293 97 b 164 -11 278 15 247 -11 l 111 -11 b 21 97 29 -11 6 15 l 31 154 b 160 264 46 238 76 264 "},";":{"ha":397,"x_min":0,"x_max":0,"o":"m 272 367 b 261 336 271 358 267 349 l 238 285 b 215 246 231 268 222 256 l 194 200 b 174 126 213 176 207 160 l 104 121 b 36 106 76 89 63 85 l 93 315 b 89 375 79 338 78 357 b 103 431 85 386 90 404 l 142 481 b 238 526 169 532 194 543 l 233 424 l 236 422 b 289 403 257 432 275 426 "},"<":{"ha":686,"x_min":0,"x_max":0,"o":"m 639 840 b 693 796 689 864 703 850 l 669 664 b 599 568 658 603 647 590 l 357 460 l 356 454 l 558 346 b 597 250 601 324 608 313 l 572 110 b 503 65 563 56 543 42 l 68 328 b 35 400 36 346 28 361 l 53 506 b 113 579 60 544 74 561 "},"=":{"ha":829,"x_min":0,"x_max":0,"o":"m 763 726 b 811 667 807 726 818 711 l 790 549 b 721 490 781 506 765 490 l 143 490 b 94 549 99 490 88 506 l 115 667 b 185 726 125 711 140 726 m 708 417 b 757 358 753 417 764 401 l 736 240 b 667 181 729 196 710 181 l 89 181 b 40 240 44 181 33 196 l 61 358 b 131 417 68 401 86 417 "},">":{"ha":688,"x_min":0,"x_max":0,"o":"m 139 797 b 208 840 149 849 165 863 l 642 579 b 676 507 675 561 683 546 l 658 400 b 599 328 651 361 638 346 l 72 65 b 18 110 21 43 8 56 l 44 261 b 114 356 56 322 68 335 l 357 464 l 358 469 l 154 578 b 117 674 114 600 106 613 "},"?":{"ha":824,"x_min":0,"x_max":0,"o":"m 110 801 b 519 1026 197 953 314 1026 b 782 944 635 1026 722 999 b 849 731 842 890 864 818 b 689 506 835 615 750 540 b 615 465 668 493 644 479 b 553 433 586 451 565 440 b 488 357 514 410 492 385 b 421 301 481 314 464 301 l 296 301 b 250 357 253 301 243 314 b 406 581 271 478 326 538 b 497 628 426 592 475 615 b 533 653 507 635 519 643 b 579 735 560 674 574 700 b 496 814 589 783 558 814 b 331 713 419 814 381 792 b 249 675 303 668 288 660 l 132 725 b 110 801 93 742 86 758 m 388 254 b 478 146 469 254 490 228 l 469 97 b 340 -11 454 15 424 -11 l 271 -11 b 181 97 189 -11 165 15 l 189 146 b 318 254 201 228 235 254 "},"@":{"ha":1258,"x_min":0,"x_max":0,"o":"m 96 458 b 314 860 125 628 197 761 b 771 1007 431 958 583 1007 b 1179 860 958 1007 1094 958 b 1261 458 1264 761 1290 626 l 1243 354 b 1132 132 1226 260 1189 186 b 938 50 1075 78 1010 50 b 819 101 878 50 854 64 b 569 67 744 78 661 67 b 349 311 392 67 321 154 l 382 500 b 689 746 411 664 514 746 b 958 700 794 746 885 731 b 990 632 993 685 1000 672 l 925 256 b 964 214 921 228 933 214 b 1064 351 1014 214 1047 260 l 1083 461 b 746 849 1126 719 1014 849 b 275 461 485 849 319 706 l 256 351 b 593 -24 213 108 331 -24 b 901 6 674 -24 776 -14 b 940 -24 939 13 946 8 l 926 -100 b 876 -151 921 -135 911 -144 b 569 -183 783 -172 681 -183 b 76 354 192 -183 17 19 m 779 565 b 682 574 757 571 725 574 b 572 496 614 574 582 551 l 540 315 b 622 239 531 261 554 239 b 733 247 679 239 717 242 l 788 553 b 779 565 788 560 785 564 "},"A":{"ha":956,"x_min":0,"x_max":0,"o":"m 918 57 b 867 0 925 19 908 0 l 722 0 b 629 58 654 0 633 14 l 615 158 l 314 158 l 265 58 b 154 0 243 14 221 0 l 1 0 b -25 57 -37 0 -46 19 l 450 938 b 531 986 471 976 488 986 l 688 986 b 753 940 728 986 746 975 m 568 539 b 568 704 563 604 564 665 l 572 733 l 560 733 b 497 540 547 667 526 603 l 418 376 l 590 376 "},"B":{"ha":914,"x_min":0,"x_max":0,"o":"m 643 988 b 904 714 833 988 933 881 b 768 519 886 621 847 569 l 767 514 b 863 264 851 474 883 390 b 479 0 831 90 683 0 l 63 0 b 14 58 18 0 4 15 l 167 928 b 236 988 176 972 192 988 m 618 686 b 546 764 628 738 603 764 l 413 764 l 386 611 l 519 611 b 618 686 576 611 608 636 m 582 307 b 507 388 593 361 568 388 l 347 388 l 318 225 l 479 225 b 582 307 539 225 572 253 "},"C":{"ha":899,"x_min":0,"x_max":0,"o":"m 117 638 b 607 1007 157 876 333 1007 b 953 760 807 1007 922 925 b 906 685 963 719 950 697 l 763 636 b 693 674 718 624 703 631 b 567 764 681 736 644 764 b 389 619 460 764 406 718 l 343 367 b 471 222 326 268 364 222 b 631 313 544 222 597 253 b 713 350 657 357 674 365 l 857 294 b 881 219 893 282 901 257 b 432 -21 793 60 644 -21 b 136 89 297 -21 199 15 b 71 381 72 163 50 260 "},"D":{"ha":940,"x_min":0,"x_max":0,"o":"m 574 986 b 869 874 708 986 807 949 b 929 576 932 799 951 700 l 893 368 b 404 0 850 128 681 0 l 63 0 b 14 58 18 0 4 15 l 167 928 b 236 986 176 971 192 986 m 657 593 b 522 743 675 693 631 743 l 410 743 l 321 243 l 435 243 b 622 393 542 243 604 293 "},"E":{"ha":817,"x_min":0,"x_max":0,"o":"m 818 986 b 868 928 863 986 875 971 l 846 803 b 776 743 839 758 819 743 l 410 743 l 388 619 l 681 619 b 729 561 725 619 736 604 l 707 436 b 638 376 697 392 682 376 l 344 376 l 321 243 l 700 243 b 747 185 743 243 754 229 l 725 58 b 656 0 718 15 700 0 l 63 0 b 14 58 18 0 4 15 l 167 928 b 236 986 176 971 192 986 "},"F":{"ha":804,"x_min":0,"x_max":0,"o":"m 818 986 b 868 928 863 986 875 971 l 846 803 b 776 743 839 758 819 743 l 410 743 l 381 582 l 674 582 b 722 524 718 582 729 567 l 700 399 b 631 339 693 354 675 339 l 339 339 l 289 58 b 219 0 279 15 264 0 l 63 0 b 14 58 18 0 4 15 l 167 928 b 236 986 176 971 192 986 "},"G":{"ha":938,"x_min":0,"x_max":0,"o":"m 900 567 b 947 507 943 567 954 551 l 913 306 b 432 -21 878 104 703 -21 b 136 92 297 -21 199 17 b 74 388 74 167 53 265 l 118 639 b 607 1007 158 879 331 1007 b 957 760 808 1007 925 925 b 908 685 967 717 953 697 l 767 642 b 697 679 721 629 707 636 b 567 764 683 736 640 764 b 389 619 460 764 407 718 l 344 367 b 471 222 328 268 364 222 b 639 317 565 222 628 257 l 643 344 l 510 344 b 461 403 465 344 454 358 l 479 507 b 549 567 489 551 504 567 "},"H":{"ha":961,"x_min":0,"x_max":0,"o":"m 938 988 b 985 928 981 988 992 972 l 832 58 b 763 0 822 15 807 0 l 606 0 b 557 58 561 0 547 15 l 613 378 l 344 378 l 288 58 b 218 0 281 15 263 0 l 61 0 b 13 58 17 0 6 15 l 167 928 b 236 988 176 972 192 988 l 393 988 b 442 928 438 988 449 972 l 388 621 l 656 621 l 710 928 b 779 988 717 972 736 988 "},"I":{"ha":417,"x_min":0,"x_max":0,"o":"m 167 931 b 232 986 176 974 192 986 l 396 986 b 442 931 439 986 449 971 l 288 56 b 222 0 281 15 265 0 l 58 0 b 13 56 18 0 6 13 "},"J":{"ha":808,"x_min":0,"x_max":0,"o":"m 794 988 b 842 929 838 988 849 972 l 733 319 b 306 -21 693 90 556 -21 b -21 215 118 -21 8 58 b 28 290 -31 256 -17 275 l 165 336 b 238 303 210 353 228 343 b 340 222 250 249 285 222 b 463 342 408 222 449 263 l 567 929 b 635 988 576 974 590 988 "},"K":{"ha":908,"x_min":0,"x_max":0,"o":"m 840 68 b 792 0 853 29 836 0 l 642 0 b 529 58 568 0 546 10 l 451 307 b 368 376 436 356 418 376 l 344 376 l 289 58 b 219 0 279 15 264 0 l 63 0 b 14 58 18 0 4 15 l 167 928 b 236 986 176 971 192 986 l 393 986 b 442 928 438 986 451 971 l 388 619 l 406 619 l 418 619 l 672 935 b 719 978 690 957 706 971 b 792 986 733 983 757 986 l 953 986 b 976 925 996 986 1004 963 l 647 517 b 718 415 678 496 701 461 "},"L":{"ha":753,"x_min":0,"x_max":0,"o":"m 392 986 b 442 928 436 986 449 971 l 321 243 l 654 243 b 703 185 699 243 710 229 l 681 58 b 611 0 671 15 656 0 l 61 0 b 13 58 17 0 6 15 l 167 928 b 235 986 174 971 190 986 "},"M":{"ha":1149,"x_min":0,"x_max":0,"o":"m 1124 988 b 1172 929 1168 988 1179 974 l 1019 57 b 950 0 1010 14 994 0 l 799 0 b 750 57 754 0 743 14 l 785 256 b 908 619 801 354 843 476 l 894 619 b 761 390 857 542 813 465 l 656 233 b 582 193 638 207 613 193 l 492 193 b 432 233 454 193 443 201 l 379 390 b 332 619 358 446 343 522 l 319 619 b 311 254 332 468 329 346 l 278 57 b 208 0 271 14 251 0 l 61 0 b 13 57 17 0 6 14 l 167 929 b 236 988 174 974 192 988 l 365 988 b 440 944 414 988 429 979 l 589 489 l 897 943 b 983 988 921 981 938 988 "},"N":{"ha":975,"x_min":0,"x_max":0,"o":"m 950 986 b 1000 928 994 986 1007 971 l 846 58 b 776 0 839 15 821 0 l 624 0 b 572 28 599 0 582 10 l 418 357 b 374 485 397 401 383 444 b 346 643 364 525 354 578 l 335 643 b 318 285 342 510 336 390 l 278 58 b 208 0 268 15 253 0 l 63 0 b 14 58 18 0 4 15 l 167 928 b 236 986 176 971 192 986 l 394 986 b 449 958 421 986 439 976 l 613 603 b 685 349 636 554 660 469 l 696 349 b 681 525 686 429 681 488 b 696 700 679 563 685 621 l 736 928 b 804 986 743 971 760 986 "},"O":{"ha":947,"x_min":0,"x_max":0,"o":"m 115 632 b 604 1007 158 872 331 1007 b 901 896 739 1007 838 969 b 964 601 964 822 985 724 l 921 350 b 432 -21 878 111 706 -21 b 135 89 297 -21 197 15 b 71 381 72 161 50 258 m 694 631 b 567 764 710 718 663 764 b 390 631 465 764 406 719 l 342 356 b 471 222 326 268 372 222 b 646 356 572 222 631 267 "},"P":{"ha":900,"x_min":0,"x_max":0,"o":"m 619 986 b 861 886 728 986 808 953 b 913 618 914 818 931 729 b 500 296 875 403 722 296 l 331 296 l 289 58 b 219 0 279 15 264 0 l 63 0 b 14 58 18 0 4 15 l 167 928 b 236 986 176 971 192 986 m 510 539 b 632 640 575 539 621 579 b 546 743 643 703 611 743 l 410 743 l 374 539 "},"Q":{"ha":967,"x_min":0,"x_max":0,"o":"m 115 632 b 604 1007 158 872 331 1007 b 901 896 739 1007 838 969 b 964 601 964 822 985 724 l 921 350 b 822 132 906 263 872 189 l 878 49 b 857 -35 901 15 896 -3 l 740 -115 b 660 -108 706 -142 679 -140 l 590 -3 b 432 -21 544 -15 492 -21 b 135 89 297 -21 197 15 b 71 381 72 161 50 258 m 567 764 b 390 631 465 764 406 719 l 342 356 b 471 222 326 268 372 222 b 646 356 572 222 631 267 l 694 631 b 567 764 710 718 663 764 "},"R":{"ha":918,"x_min":0,"x_max":0,"o":"m 632 986 b 918 640 843 986 957 853 b 719 365 896 514 829 422 b 746 306 728 349 736 329 l 829 68 b 781 0 842 29 825 0 l 631 0 b 514 67 558 0 529 18 l 458 257 b 372 328 442 311 428 328 l 336 328 l 289 58 b 219 0 279 15 264 0 l 63 0 b 14 58 18 0 4 15 l 167 928 b 236 986 176 971 192 986 m 633 653 b 558 743 644 708 618 743 l 410 743 l 376 560 l 526 560 b 633 653 583 560 624 596 "},"S":{"ha":892,"x_min":0,"x_max":0,"o":"m 101 719 b 556 1007 135 904 293 1007 b 899 801 754 1007 854 936 b 857 729 911 761 903 747 l 719 675 b 650 704 679 658 665 664 b 522 776 633 753 590 776 b 378 704 435 776 386 753 b 546 619 368 650 424 635 b 854 271 701 596 901 526 b 386 -21 818 76 663 -21 b 4 194 175 -21 32 56 b 56 271 -3 232 15 257 l 194 318 b 271 288 239 333 258 326 b 414 214 288 239 335 214 b 578 293 513 214 568 240 b 429 375 588 343 535 360 b 233 428 353 386 304 394 b 150 488 199 444 171 464 b 101 719 110 533 85 615 "},"T":{"ha":836,"x_min":0,"x_max":0,"o":"m 867 986 b 915 928 911 986 925 971 l 893 803 b 824 743 886 758 868 743 l 618 743 l 497 58 b 428 0 488 15 472 0 l 271 0 b 222 58 226 0 213 15 l 343 743 l 136 743 b 88 803 92 743 81 758 l 110 928 b 179 986 119 971 135 986 "},"U":{"ha":961,"x_min":0,"x_max":0,"o":"m 356 350 b 478 222 340 265 382 222 b 643 350 574 222 628 265 l 746 928 b 814 986 753 971 771 986 l 972 986 b 1021 928 1015 986 1028 971 l 917 340 b 440 -21 874 106 713 -21 b 147 93 306 -21 208 17 b 88 386 86 168 67 265 l 183 928 b 253 986 193 971 208 986 l 410 986 b 458 928 454 986 468 971 "},"V":{"ha":944,"x_min":0,"x_max":0,"o":"m 1011 986 b 1039 929 1051 986 1060 967 l 578 49 b 497 0 557 10 540 0 l 322 0 b 258 46 282 0 265 11 l 107 929 b 157 986 100 967 117 986 l 313 986 b 404 928 379 986 400 972 l 453 453 b 456 300 458 404 457 335 l 453 274 l 465 274 b 524 451 479 338 499 397 l 742 928 b 850 986 763 972 783 986 "},"W":{"ha":1299,"x_min":0,"x_max":0,"o":"m 1346 986 b 1374 929 1386 986 1392 968 l 1007 49 b 926 0 990 10 969 0 l 754 0 b 690 46 714 0 692 11 l 674 369 b 692 619 671 453 676 536 l 679 619 b 606 369 661 533 636 450 l 475 49 b 393 0 458 10 436 0 l 226 0 b 163 46 186 0 164 15 l 107 929 b 154 986 103 969 114 986 l 322 986 b 393 935 374 986 392 978 l 392 571 b 367 325 390 492 382 410 l 376 325 b 446 571 394 418 418 500 l 596 935 b 682 986 613 978 636 986 l 831 986 b 900 935 879 986 899 975 l 919 571 b 904 325 924 508 918 426 l 915 325 b 978 571 928 393 949 475 l 1101 935 b 1189 986 1117 975 1138 986 "},"X":{"ha":919,"x_min":0,"x_max":0,"o":"m 974 986 b 992 931 1013 986 1018 960 l 640 503 l 853 58 b 813 0 869 29 853 0 l 636 0 b 529 51 563 0 547 6 l 438 279 l 271 51 b 224 10 254 29 239 15 b 146 0 208 3 183 0 l -26 0 b -46 58 -69 0 -75 25 l 318 503 l 121 931 b 158 986 106 960 121 986 l 324 986 b 431 938 396 986 413 981 l 518 724 l 679 938 b 725 979 696 960 711 974 b 794 986 738 983 761 986 "},"Y":{"ha":935,"x_min":0,"x_max":0,"o":"m 1006 986 b 1025 928 1050 986 1049 960 l 608 382 l 553 58 b 483 0 543 15 526 0 l 325 0 b 278 58 282 0 271 15 l 333 382 l 111 928 b 150 986 96 960 110 986 l 311 986 b 418 935 385 986 401 981 l 517 651 l 721 935 b 843 986 753 981 771 986 "},"Z":{"ha":846,"x_min":0,"x_max":0,"o":"m 850 986 b 899 928 894 986 908 971 l 885 844 b 854 783 881 822 869 801 l 369 243 l 726 243 b 775 185 771 243 782 229 l 753 58 b 683 0 743 15 728 0 l 25 0 b -22 58 -18 0 -29 15 l -8 143 b 21 201 -4 165 6 185 l 506 743 l 164 743 b 115 803 119 743 108 758 l 138 928 b 206 986 144 971 163 986 "},"[":{"ha":492,"x_min":0,"x_max":0,"o":"m 558 1189 b 601 1138 603 1189 608 1182 l 585 1042 b 524 990 578 997 567 990 l 424 990 l 249 -3 l 347 -3 b 392 -54 392 -3 399 -10 l 374 -153 b 313 -204 367 -197 357 -204 l 18 -204 b -25 -151 -26 -204 -32 -196 l 201 1136 b 264 1189 211 1181 219 1189 "},"\\":{"ha":676,"x_min":0,"x_max":0,"o":"m 126 938 b 169 986 121 972 132 986 l 315 986 b 378 938 356 986 371 976 l 569 -35 b 526 -83 576 -69 565 -83 l 382 -83 b 318 -35 342 -83 325 -72 "},"]":{"ha":492,"x_min":0,"x_max":0,"o":"m 510 1189 b 554 1136 554 1189 561 1179 l 328 -151 b 264 -204 321 -196 308 -204 l -29 -204 b -72 -153 -74 -204 -79 -197 l -54 -54 b 6 -3 -47 -10 -39 -3 l 106 -3 l 281 990 l 182 990 b 139 1042 138 990 132 997 l 156 1138 b 217 1189 163 1182 172 1189 "},"^":{"ha":883,"x_min":0,"x_max":0,"o":"m 617 1125 b 697 1078 661 1125 671 1117 l 899 785 b 860 722 925 743 913 722 l 713 722 b 608 769 647 722 635 729 l 532 900 l 528 900 l 401 769 b 278 722 363 729 343 722 l 143 722 b 124 785 92 722 85 746 l 429 1078 b 528 1125 468 1115 485 1125 "},"_":{"ha":703,"x_min":0,"x_max":0,"o":"m 557 0 b 606 -58 601 0 613 -15 l 585 -176 b 515 -235 578 -221 560 -235 l -32 -235 b -81 -176 -76 -235 -87 -221 l -61 -58 b 8 0 -51 -15 -36 0 "},"`":{"ha":357,"x_min":0,"x_max":0,"o":"m 201 1017 b 293 1019 229 1042 260 1043 l 467 903 b 460 850 488 888 486 876 l 411 804 b 347 800 399 790 376 789 l 111 883 b 114 939 82 896 85 910 "},"a":{"ha":757,"x_min":0,"x_max":0,"o":"m 69 450 b 458 743 104 651 229 743 b 725 696 574 743 663 728 b 764 615 768 674 774 661 l 669 78 b 606 13 663 39 649 24 b 304 -21 514 -10 414 -21 b 43 300 97 -21 8 104 m 481 513 b 426 518 467 517 449 518 b 326 442 365 518 336 497 l 296 272 b 363 203 289 226 311 203 b 435 210 392 203 417 206 l 486 503 b 481 513 488 508 486 511 "},"b":{"ha":761,"x_min":0,"x_max":0,"o":"m 376 1026 b 421 974 417 1026 428 1014 l 379 735 b 474 743 418 740 450 743 b 732 428 681 743 767 624 l 706 278 b 315 -21 671 74 543 -21 b 49 26 204 -21 115 -6 b 10 108 6 49 0 60 l 161 974 b 225 1026 168 1014 185 1026 m 478 453 b 411 521 485 499 463 521 b 339 511 385 521 360 518 l 288 218 b 290 211 288 214 289 213 b 347 204 303 207 322 204 b 447 281 404 204 438 229 "},"c":{"ha":718,"x_min":0,"x_max":0,"o":"m 69 450 b 457 743 104 646 233 743 b 733 549 622 743 713 665 b 685 475 740 508 728 490 l 561 433 b 492 471 515 418 501 428 b 415 526 483 508 458 526 b 326 450 367 526 336 501 l 296 271 b 356 196 286 222 310 196 b 449 253 394 196 425 215 b 531 288 471 293 490 303 l 657 247 b 679 169 694 235 703 210 b 319 -21 604 43 485 -21 b 43 297 97 -21 8 99 "},"d":{"ha":760,"x_min":0,"x_max":0,"o":"m 71 456 b 435 743 106 656 225 743 b 528 739 442 743 472 742 l 569 975 b 632 1028 576 1014 593 1028 l 785 1028 b 828 975 825 1028 835 1014 l 675 107 b 604 28 668 61 654 49 b 310 -21 517 -4 418 -21 b 44 304 97 -21 10 106 m 488 513 b 428 519 467 517 447 519 b 326 443 369 519 336 494 l 297 272 b 364 204 289 226 311 204 b 431 210 390 204 413 206 b 436 217 432 211 435 213 "},"e":{"ha":753,"x_min":0,"x_max":0,"o":"m 69 450 b 465 743 103 638 244 743 b 767 486 672 743 789 651 b 457 285 746 358 635 285 b 300 293 408 285 357 288 l 294 264 b 369 175 285 204 310 175 b 490 225 418 175 458 192 b 571 239 517 253 531 260 l 661 193 b 674 113 694 175 699 149 b 336 -21 608 24 496 -21 b 43 306 99 -21 8 111 m 514 503 b 438 560 519 540 494 560 b 332 474 379 560 344 531 l 328 458 b 424 451 363 454 394 451 b 514 503 478 451 508 468 "},"f":{"ha":538,"x_min":0,"x_max":0,"o":"m 585 1028 b 629 974 625 1028 639 1014 l 611 875 b 547 819 604 832 588 819 b 438 728 479 819 447 790 l 436 722 l 532 722 b 576 669 572 722 583 708 l 557 565 b 494 511 550 525 535 511 l 399 511 l 318 53 b 254 0 311 14 294 0 l 104 0 b 60 53 64 0 53 14 l 140 511 l 96 511 b 51 565 56 511 44 525 l 69 669 b 132 722 76 708 93 722 l 178 722 l 178 725 b 550 1028 217 936 338 1026 "},"g":{"ha":761,"x_min":0,"x_max":0,"o":"m 68 453 b 458 743 103 653 229 743 b 724 696 574 743 663 728 b 764 615 767 675 774 661 l 653 -12 b 272 -324 618 -219 490 -324 b -12 -179 126 -324 31 -275 b 28 -99 -29 -144 -15 -117 l 146 -44 b 218 -58 190 -28 203 -32 b 300 -108 238 -92 265 -108 b 392 -28 351 -108 382 -82 l 401 28 b 308 19 363 22 332 19 b 49 339 101 19 14 144 m 482 513 b 426 518 469 517 451 518 b 325 442 368 518 335 493 l 303 313 b 369 243 294 267 317 243 b 440 250 371 243 394 246 l 485 506 b 482 513 486 508 486 511 "},"h":{"ha":775,"x_min":0,"x_max":0,"o":"m 376 1028 b 421 975 417 1028 428 1014 l 378 738 b 474 743 411 742 443 743 b 733 439 683 743 767 633 l 665 53 b 603 0 658 14 642 0 l 450 0 b 407 53 410 0 400 14 l 474 433 b 404 510 483 485 460 510 b 338 504 375 510 353 508 l 258 53 b 194 0 251 14 235 0 l 43 0 b -1 53 3 0 -8 14 l 161 975 b 225 1028 168 1014 185 1028 "},"i":{"ha":374,"x_min":0,"x_max":0,"o":"m 331 1003 b 415 900 410 1003 431 978 l 413 885 b 292 782 397 807 371 782 l 222 782 b 138 885 143 782 122 807 l 139 900 b 261 1003 154 978 183 1003 m 322 722 b 367 669 363 722 374 708 l 258 53 b 194 0 251 14 235 0 l 43 0 b -1 53 3 0 -8 14 l 107 669 b 171 722 114 708 131 722 "},"j":{"ha":375,"x_min":0,"x_max":0,"o":"m 331 1003 b 414 900 408 1003 429 978 l 413 885 b 290 782 397 807 369 782 l 221 782 b 136 885 143 782 124 807 l 139 900 b 261 1003 154 978 182 1003 m 321 722 b 365 669 361 722 372 708 l 246 -14 b -161 -319 207 -224 74 -319 b -207 -265 -204 -319 -214 -306 l -186 -147 b -122 -92 -179 -107 -162 -92 b -11 3 -58 -92 -21 -60 l 107 669 b 171 722 114 708 131 722 "},"k":{"ha":768,"x_min":0,"x_max":0,"o":"m 685 71 b 628 0 701 21 685 0 l 501 0 b 410 53 436 0 419 8 l 376 224 b 321 265 369 251 351 265 l 294 265 l 257 54 b 194 0 250 14 235 0 l 43 0 b -1 54 3 0 -8 14 l 161 974 b 225 1028 168 1014 185 1028 l 376 1028 b 419 974 417 1028 426 1014 l 332 472 l 353 472 l 361 472 l 513 672 b 621 722 542 713 561 722 l 744 722 b 776 654 801 722 811 700 l 572 385 b 606 322 588 369 599 349 "},"l":{"ha":378,"x_min":0,"x_max":0,"o":"m 260 53 b 196 0 253 14 236 0 l 44 0 b 0 53 4 0 -7 14 l 163 975 b 226 1028 169 1014 186 1028 l 378 1028 b 422 975 418 1028 429 1014 "},"m":{"ha":1131,"x_min":0,"x_max":0,"o":"m 622 706 b 842 743 696 731 768 743 b 1089 438 1043 743 1124 632 l 1021 53 b 958 0 1014 14 997 0 l 806 0 b 763 53 765 0 756 14 l 829 436 b 772 510 839 485 819 510 b 713 503 754 510 733 507 b 706 439 713 485 710 464 l 638 53 b 575 0 631 14 615 0 l 422 0 b 379 53 383 0 372 14 l 447 436 b 389 510 454 490 439 510 b 340 506 374 510 357 508 b 333 497 338 504 335 501 l 256 53 b 192 0 249 14 232 0 l 40 0 b -4 53 0 0 -11 14 l 94 608 b 167 692 104 654 117 674 b 458 743 260 726 357 743 b 622 706 526 743 582 731 "},"n":{"ha":772,"x_min":0,"x_max":0,"o":"m 167 692 b 471 743 260 726 361 743 b 731 438 681 743 764 632 l 663 53 b 600 0 656 14 639 0 l 447 0 b 404 53 407 0 397 14 l 471 433 b 401 510 481 488 458 510 b 339 504 378 510 357 508 b 333 499 338 503 335 501 l 256 53 b 192 0 249 14 232 0 l 40 0 b -4 53 0 0 -11 14 l 94 608 b 167 692 104 654 117 674 "},"o":{"ha":764,"x_min":0,"x_max":0,"o":"m 67 449 b 463 743 101 639 239 743 b 754 429 685 743 788 622 l 728 274 b 331 -21 693 83 557 -21 b 40 293 110 -21 7 100 m 499 446 b 425 521 508 496 485 521 b 325 446 368 521 335 496 l 296 276 b 368 203 286 228 310 203 b 469 276 425 203 460 228 "},"p":{"ha":760,"x_min":0,"x_max":0,"o":"m 167 696 b 464 743 251 728 351 743 b 728 429 676 743 763 624 l 701 278 b 326 -21 667 79 542 -21 b 243 -14 314 -21 286 -18 l 201 -251 b 139 -304 194 -292 179 -304 l -14 -304 b -57 -251 -54 -304 -64 -292 l 96 615 b 167 696 106 661 117 678 m 474 450 b 407 518 482 496 460 518 b 342 511 379 518 357 515 b 335 503 339 510 336 507 l 283 210 b 343 203 301 206 322 203 b 443 279 400 203 433 228 "},"q":{"ha":761,"x_min":0,"x_max":0,"o":"m 460 743 b 726 696 575 743 664 728 b 765 615 769 674 775 661 l 614 -251 b 550 -304 607 -292 590 -304 l 399 -304 b 354 -251 358 -304 347 -292 l 396 -12 b 301 -21 357 -18 325 -21 b 43 293 94 -21 8 99 l 69 444 b 460 743 104 643 235 743 m 297 272 b 364 203 290 226 313 203 b 436 210 388 203 428 210 l 488 503 b 482 513 489 507 488 511 b 428 518 468 517 450 518 b 328 442 371 518 338 493 "},"r":{"ha":503,"x_min":0,"x_max":0,"o":"m 458 743 l 501 743 b 546 690 542 743 553 729 l 525 572 b 463 518 518 532 503 518 l 410 518 b 344 513 385 518 363 517 b 336 504 340 513 338 510 l 257 53 b 193 0 250 14 233 0 l 42 0 b -3 53 1 0 -10 14 l 97 615 b 169 699 107 664 119 682 b 458 743 242 725 338 739 "},"s":{"ha":717,"x_min":0,"x_max":0,"o":"m 65 521 b 413 743 92 669 207 743 b 701 594 581 743 663 690 b 660 518 714 560 700 535 l 554 474 b 485 493 506 454 503 469 b 389 531 465 518 433 531 b 296 493 322 531 300 521 b 401 447 290 464 313 454 b 667 213 614 429 693 361 b 300 -21 640 63 511 -21 b -3 144 122 -21 21 35 b 43 217 -10 179 6 203 l 161 256 b 231 235 210 268 215 263 b 326 190 243 206 275 190 b 435 233 393 190 429 204 b 311 285 440 268 418 278 b 65 521 129 296 38 367 "},"t":{"ha":554,"x_min":0,"x_max":0,"o":"m 415 889 b 460 836 454 889 465 875 l 439 722 l 536 722 b 579 669 575 722 586 708 l 561 565 b 499 511 554 525 538 511 l 403 511 l 365 307 b 443 210 353 233 372 210 b 489 156 486 210 496 196 l 467 36 b 403 -18 460 -4 446 -18 b 104 289 157 -22 64 61 l 143 511 l 83 511 b 39 565 43 511 32 525 l 58 669 b 119 722 65 708 81 722 l 181 722 l 200 836 b 263 889 207 875 224 889 "},"u":{"ha":772,"x_min":0,"x_max":0,"o":"m 743 722 b 788 669 783 722 794 708 l 689 114 b 617 31 679 68 667 49 b 313 -21 524 -4 422 -21 b 56 293 106 -21 21 97 l 121 669 b 185 722 128 708 144 722 l 336 722 b 381 669 376 722 388 708 l 314 289 b 382 213 304 235 325 213 b 439 218 401 213 421 214 b 451 231 446 219 450 224 l 528 669 b 592 722 535 708 551 722 "},"v":{"ha":760,"x_min":0,"x_max":0,"o":"m 764 722 b 797 661 815 722 821 710 l 467 47 b 386 0 446 13 425 0 l 233 0 b 168 47 193 0 175 13 l 64 661 b 118 722 57 710 68 722 l 249 722 b 325 669 308 722 324 713 l 356 428 b 353 281 360 378 357 321 l 349 251 l 360 251 b 415 428 375 321 394 379 l 526 668 b 619 722 549 714 560 722 "},"w":{"ha":1072,"x_min":0,"x_max":0,"o":"m 1068 722 b 1101 661 1118 722 1124 710 l 836 47 b 756 0 821 15 794 0 l 613 0 b 547 47 569 0 549 15 l 535 233 b 542 400 533 283 538 360 l 544 431 l 535 431 b 471 233 515 354 494 289 l 392 47 b 311 0 379 15 351 0 l 183 0 b 118 47 143 0 121 15 l 63 661 b 118 722 57 710 68 722 l 246 722 b 325 669 311 722 325 714 l 326 485 b 310 306 326 442 317 357 l 304 268 l 315 268 b 375 485 336 364 357 436 l 450 668 b 549 722 467 713 483 722 l 638 722 b 715 669 703 722 715 714 l 726 485 b 715 306 728 440 721 356 l 710 268 l 721 268 b 776 485 739 358 758 431 l 842 668 b 940 722 857 713 875 722 "},"x":{"ha":767,"x_min":0,"x_max":0,"o":"m 757 722 b 782 660 810 722 818 701 l 543 372 l 689 63 b 639 0 711 19 699 0 l 506 0 b 417 46 444 0 433 6 l 356 204 l 243 46 b 138 0 215 6 199 0 l -7 0 b -36 63 -68 0 -74 19 l 221 371 l 79 660 b 132 722 58 701 75 722 l 261 722 b 351 676 321 722 336 715 l 406 542 l 507 676 b 607 722 535 717 550 722 "},"y":{"ha":775,"x_min":0,"x_max":0,"o":"m 740 722 b 783 669 781 722 790 708 l 665 -7 b 276 -319 628 -215 497 -319 b 0 -179 125 -319 43 -274 b 39 -99 -15 -144 -3 -117 l 157 -44 b 231 -62 206 -28 214 -33 b 311 -108 249 -93 275 -108 b 403 -28 363 -108 393 -82 l 411 26 b 317 21 386 22 354 21 b 60 340 110 21 25 144 l 118 669 b 181 722 125 708 140 722 l 333 722 b 376 669 374 722 383 708 l 317 331 b 388 254 307 279 331 254 b 453 260 413 254 435 256 l 525 669 b 588 722 532 708 549 722 "},"z":{"ha":683,"x_min":0,"x_max":0,"o":"m 567 219 b 610 168 607 219 617 207 l 590 53 b 528 0 583 14 568 0 l 19 0 b -25 53 -21 0 -32 14 l -6 161 b 25 217 -1 183 8 201 l 332 503 l 115 503 b 72 554 75 503 65 515 l 92 669 b 154 722 99 708 114 722 l 649 722 b 692 669 688 722 699 708 l 672 561 b 633 497 668 539 656 518 l 321 219 "},"{":{"ha":571,"x_min":0,"x_max":0,"o":"m 639 1189 b 682 1136 678 1189 689 1175 l 661 1019 b 599 967 654 979 639 967 l 532 967 b 494 935 511 967 499 956 l 449 678 b 310 489 433 594 388 532 b 382 299 375 460 400 396 l 338 50 b 364 18 336 32 347 18 l 433 18 b 476 -35 472 18 482 6 l 456 -151 b 393 -204 449 -190 432 -204 l 260 -204 b 81 -6 103 -204 57 -149 l 126 249 b 60 365 139 326 117 365 l 51 365 b 17 418 22 365 10 383 l 42 558 b 94 611 47 593 65 611 l 103 611 b 210 728 161 611 197 650 l 257 989 b 501 1189 281 1129 347 1189 "},"|":{"ha":389,"x_min":0,"x_max":0,"o":"m 408 1189 b 451 1136 449 1189 458 1175 l 225 -151 b 163 -204 218 -190 203 -204 l 18 -204 b -25 -151 -22 -204 -32 -190 l 201 1136 b 264 1189 208 1175 224 1189 "},"}":{"ha":569,"x_min":0,"x_max":0,"o":"m 356 1189 b 531 989 510 1189 557 1129 l 483 728 b 550 611 471 650 493 611 l 560 611 b 594 558 592 611 600 596 l 569 418 b 515 365 563 383 544 365 l 507 365 b 400 249 450 365 415 326 l 354 -6 b 106 -204 331 -146 263 -204 l -28 -204 b -71 -151 -67 -204 -78 -190 l -50 -35 b 13 18 -43 4 -26 18 l 81 18 b 118 50 101 18 114 29 l 161 299 b 301 489 179 396 225 460 b 229 678 239 532 214 596 l 274 935 b 246 967 278 953 267 967 l 179 967 b 136 1019 139 967 129 979 l 157 1136 b 218 1189 164 1175 179 1189 "},"~":{"ha":792,"x_min":0,"x_max":0,"o":"m 121 513 b 317 583 181 560 246 583 b 442 560 357 583 399 575 b 538 536 485 544 517 536 b 619 564 567 536 593 546 b 696 561 657 592 669 590 l 769 479 b 754 396 793 450 789 422 b 558 325 692 349 626 325 b 433 349 517 325 475 333 b 338 372 390 364 358 372 b 256 346 308 372 282 364 b 179 349 217 318 206 319 l 106 431 b 121 513 82 460 86 486 "},"¡":{"ha":383,"x_min":0,"x_max":0,"o":"m 171 467 b 81 576 89 467 68 493 l 89 624 b 218 732 104 707 135 732 l 288 732 b 378 624 371 732 393 707 l 369 576 b 240 467 357 493 324 467 m -10 -306 b -54 -253 -50 -306 -61 -292 l 75 344 b 136 397 85 385 97 397 l 250 397 b 293 344 289 397 299 385 l 210 -253 b 147 -306 204 -292 188 -306 "},"¢":{"ha":756,"x_min":0,"x_max":0,"o":"m 671 247 b 693 171 708 235 715 210 b 458 -6 638 78 560 19 l 449 -62 b 386 -115 442 -103 426 -115 l 258 -115 b 215 -62 219 -115 208 -101 l 224 -11 b 56 301 79 21 26 136 l 82 453 b 354 731 110 608 194 696 l 365 793 b 429 846 372 833 389 846 l 556 846 b 599 793 596 846 606 833 l 588 729 b 742 543 674 706 725 644 b 696 472 749 500 739 485 l 569 432 b 500 469 524 417 510 426 b 428 526 490 510 471 526 b 340 451 379 526 350 501 l 308 271 b 369 196 299 221 319 196 b 461 253 410 196 440 215 b 543 288 485 293 503 303 "},"£":{"ha":932,"x_min":0,"x_max":0,"o":"m 207 707 b 340 925 222 797 267 869 b 619 1007 414 979 507 1007 b 953 769 806 1007 917 928 b 904 694 960 729 949 710 l 760 644 b 692 682 717 629 707 638 b 588 764 674 742 643 764 b 482 678 532 764 492 729 l 461 554 l 694 554 b 743 494 739 554 750 539 l 728 410 b 658 350 718 365 703 350 l 418 350 l 414 325 b 335 217 403 279 376 243 l 336 208 b 553 235 401 226 474 235 l 803 235 b 851 175 847 235 858 219 l 831 58 b 761 0 821 15 806 0 l 39 0 b -8 58 -6 0 -18 15 l 13 176 b 50 229 17 208 29 225 l 57 231 b 135 321 97 242 122 272 l 140 350 l 101 350 b 54 410 57 350 44 365 l 68 494 b 138 554 78 539 93 554 l 181 554 "},"¤":{"ha":897,"x_min":0,"x_max":0,"o":"m 381 775 b 519 803 426 793 472 803 b 644 775 564 803 606 793 l 732 850 b 807 850 765 878 783 878 l 890 750 b 876 675 911 725 907 700 l 790 601 b 797 468 801 558 804 514 b 746 335 789 422 772 378 l 807 261 b 794 186 828 236 824 211 l 678 86 b 603 86 644 58 625 58 l 540 161 b 404 133 496 143 450 133 b 278 161 357 133 315 143 l 189 86 b 114 86 156 58 136 58 l 31 186 b 43 261 7 214 10 233 l 133 338 b 128 468 121 381 119 424 b 176 599 135 511 150 554 l 113 675 b 126 750 90 703 93 722 l 243 850 b 318 850 276 878 294 878 m 575 468 b 482 581 585 531 544 581 b 347 468 419 581 360 531 b 442 354 338 406 379 354 b 575 468 504 354 563 403 "},"¥":{"ha":985,"x_min":0,"x_max":0,"o":"m 1018 986 b 1038 928 1061 986 1065 960 l 725 547 l 797 547 b 840 494 836 547 847 533 l 828 428 b 767 375 821 389 806 375 l 619 375 l 611 326 l 758 326 b 801 274 797 326 808 313 l 789 207 b 728 154 783 168 767 154 l 586 154 l 569 58 b 500 0 563 15 544 0 l 343 0 b 294 58 299 0 288 15 l 311 154 l 169 154 b 126 207 131 154 119 168 l 139 274 b 200 326 144 313 161 326 l 347 326 l 357 375 l 208 375 b 165 428 169 375 158 389 l 176 494 b 238 547 183 533 200 547 l 311 547 l 133 928 b 172 986 117 960 132 986 l 329 986 b 436 935 403 986 419 981 l 535 651 l 738 935 b 860 986 769 981 788 986 "},"¦":{"ha":396,"x_min":0,"x_max":0,"o":"m 411 1189 b 454 1136 451 1189 461 1175 l 364 626 b 303 575 358 588 343 575 l 158 575 b 115 626 119 575 108 588 l 204 1136 b 267 1189 211 1175 228 1189 m 274 411 b 318 360 314 411 325 399 l 228 -150 b 165 -203 221 -189 206 -203 l 21 -203 b -22 -150 -18 -203 -29 -189 l 68 360 b 129 411 75 399 90 411 "},"§":{"ha":867,"x_min":0,"x_max":0,"o":"m 139 733 b 558 1007 171 906 314 1007 b 861 804 735 1007 821 938 b 817 725 874 761 863 746 l 710 683 b 635 714 667 665 647 671 b 518 785 618 761 579 785 b 408 718 451 785 415 763 b 514 647 403 679 438 664 b 685 603 603 628 660 613 b 814 367 790 560 833 481 b 700 185 800 290 763 231 b 751 -29 749 146 769 69 b 329 -304 718 -206 578 -304 b -31 -93 131 -304 -3 -232 b 25 -14 -37 -56 -18 -29 l 142 29 b 215 -10 190 46 203 36 b 347 -83 228 -58 271 -83 b 476 -12 425 -83 468 -60 b 381 50 482 22 449 39 b 335 57 371 51 356 54 b 119 122 231 74 160 96 b 44 326 53 165 28 233 b 190 522 60 411 108 476 b 139 733 138 565 121 636 m 432 435 b 390 443 419 436 406 439 b 328 350 353 415 332 385 b 440 261 321 290 358 272 l 479 257 b 535 347 513 283 531 314 b 432 435 540 397 504 418 "},"¨":{"ha":610,"x_min":0,"x_max":0,"o":"m 283 1018 b 368 919 361 1018 381 993 l 365 901 b 246 801 350 828 322 801 l 236 801 b 153 901 158 801 138 828 l 156 919 b 274 1018 171 996 196 1018 m 582 1018 b 665 919 660 1018 681 996 l 663 901 b 544 801 647 828 621 801 l 535 801 b 450 901 458 801 435 828 l 453 919 b 572 1018 465 993 496 1018 "},"©":{"ha":1081,"x_min":0,"x_max":0,"o":"m 89 486 b 296 842 113 626 182 744 b 676 986 410 938 536 986 b 1006 842 815 986 925 938 b 1089 486 1085 744 1113 626 b 882 132 1064 346 994 228 b 504 -12 769 36 643 -12 b 174 133 364 -12 254 36 b 89 486 93 231 65 349 m 958 486 b 899 751 976 592 957 681 b 656 857 840 822 760 857 b 372 751 550 857 456 822 b 219 486 288 681 238 592 b 281 224 201 382 221 294 b 525 115 339 151 421 115 b 806 224 629 115 722 151 b 958 486 889 294 940 382 m 383 557 b 636 756 406 681 497 756 b 819 621 742 756 804 706 b 783 560 826 582 817 569 l 718 538 b 669 567 685 528 675 533 b 610 606 664 593 644 606 b 538 556 567 606 543 589 l 513 415 b 567 363 507 382 526 363 b 639 403 600 363 624 376 b 700 432 660 436 671 443 l 761 408 b 776 349 790 397 794 386 b 542 214 728 258 650 214 b 360 419 403 214 338 293 "},"ª":{"ha":489,"x_min":0,"x_max":0,"o":"m 146 860 b 343 935 193 910 258 935 b 508 758 474 935 529 876 l 478 579 b 414 510 471 540 457 525 b 263 489 371 496 319 489 b 89 629 117 489 74 542 b 313 756 106 717 161 756 b 332 754 321 756 328 756 l 335 776 b 313 804 339 794 331 804 b 272 785 303 804 289 797 b 204 772 244 761 233 760 l 157 799 b 146 860 124 815 121 829 m 313 651 l 289 651 b 260 629 272 651 263 644 b 281 606 256 611 263 606 l 300 606 l 303 607 b 306 610 304 607 306 608 "},"«":{"ha":886,"x_min":0,"x_max":0,"o":"m 811 208 b 800 143 829 188 826 165 l 708 64 b 643 64 682 43 661 43 l 422 331 b 435 397 401 354 406 374 l 754 671 b 821 671 781 694 803 694 l 883 594 b 871 529 901 568 899 553 l 681 365 m 444 208 b 433 143 463 188 460 165 l 342 64 b 276 64 318 42 296 42 l 56 331 b 68 397 38 353 42 375 l 388 671 b 454 671 414 694 436 694 l 517 594 b 504 529 538 568 533 553 l 314 365 "},"¬":{"ha":828,"x_min":0,"x_max":0,"o":"m 744 589 b 788 536 783 589 794 575 l 733 229 b 672 175 726 189 711 175 l 521 175 b 478 229 482 175 471 189 l 500 360 l 96 360 b 53 414 57 360 46 374 l 74 536 b 136 589 81 576 97 589 "},"®":{"ha":633,"x_min":0,"x_max":0,"o":"m 161 521 b 111 717 115 575 99 640 b 225 914 124 793 163 860 b 435 994 288 968 357 994 b 618 913 511 994 572 967 b 667 717 664 858 679 793 b 554 521 654 640 617 575 b 344 439 492 467 421 439 b 161 521 268 439 207 467 m 275 858 b 190 717 229 819 200 772 b 224 575 181 661 192 614 b 357 515 256 535 300 515 b 507 575 411 515 461 535 b 590 717 553 614 581 661 b 558 858 600 772 590 819 b 428 917 526 897 482 917 b 275 858 371 917 321 897 m 432 847 b 517 753 492 847 528 808 b 458 674 510 715 490 689 l 483 622 b 456 586 497 599 488 586 l 428 586 b 394 607 407 586 404 589 l 371 660 l 354 660 l 346 607 b 321 586 344 590 338 586 l 282 586 b 264 607 267 586 260 593 l 301 825 b 328 847 306 840 314 847 m 365 731 l 408 731 b 433 751 421 731 429 738 b 417 774 438 767 432 774 l 374 774 "},"¯":{"ha":489,"x_min":0,"x_max":0,"o":"m 531 986 b 572 936 571 986 579 976 l 561 878 b 503 828 556 838 543 828 l 164 828 b 122 878 125 828 117 838 l 133 936 b 192 986 140 975 154 986 "},"°":{"ha":582,"x_min":0,"x_max":0,"o":"m 635 771 b 528 585 622 699 588 636 b 329 506 468 532 401 506 b 154 583 256 506 197 532 b 107 771 111 635 94 697 b 213 960 119 847 154 910 b 410 1035 269 1010 336 1035 b 588 960 485 1035 544 1010 b 635 771 631 908 647 846 m 325 826 b 357 692 268 775 286 692 b 450 769 400 692 443 726 b 386 850 460 813 429 850 b 325 826 364 850 343 842 "},"±":{"ha":813,"x_min":0,"x_max":0,"o":"m 750 699 b 799 640 794 699 806 685 l 781 536 b 713 478 774 492 756 478 l 535 478 l 521 399 b 451 340 514 354 496 340 l 343 340 b 294 399 300 340 288 354 l 310 478 l 135 478 b 85 536 90 478 78 492 l 103 640 b 172 699 110 685 129 699 l 349 699 l 363 779 b 432 839 369 824 388 839 l 540 839 b 588 779 583 839 594 824 l 574 699 m 682 307 b 731 249 726 307 740 292 l 711 138 b 642 79 701 94 686 79 l 64 79 b 17 138 21 79 10 94 l 35 249 b 104 307 44 292 61 307 "},"²":{"ha":518,"x_min":0,"x_max":0,"o":"m 147 993 b 394 1124 197 1081 279 1124 b 582 947 528 1124 597 1049 b 418 758 567 847 519 786 l 354 742 b 322 728 333 738 324 732 l 322 725 l 485 725 b 525 676 522 725 532 714 l 514 611 b 458 564 508 576 496 564 l 115 564 b 74 611 78 564 68 578 l 82 657 b 246 843 100 763 139 808 l 324 869 b 383 925 363 882 378 893 b 357 957 388 946 378 957 b 304 925 336 957 318 946 b 229 892 275 886 269 881 l 164 917 b 147 993 129 929 124 950 "},"³":{"ha":528,"x_min":0,"x_max":0,"o":"m 143 1001 b 397 1131 192 1088 276 1131 b 585 961 531 1131 601 1065 b 511 856 575 911 560 885 b 558 721 554 828 569 783 b 306 560 540 614 456 560 b 86 690 172 560 99 603 b 121 754 81 724 92 744 l 186 776 b 253 747 229 789 242 785 b 321 711 260 724 283 711 b 372 738 353 711 369 719 b 336 769 376 760 368 769 l 296 769 b 264 810 264 769 260 776 l 278 879 b 328 922 283 914 290 922 l 354 922 b 403 953 382 922 399 932 b 365 982 407 974 394 982 b 281 944 325 982 297 969 b 206 918 260 910 246 901 l 157 940 b 143 1001 132 953 128 972 "},"´":{"ha":357,"x_min":0,"x_max":0,"o":"m 343 1019 b 435 1017 385 1043 415 1042 l 493 939 b 476 883 515 911 511 896 l 213 800 b 149 804 178 788 160 788 l 117 850 b 129 903 101 874 106 890 "},"µ":{"ha":792,"x_min":0,"x_max":0,"o":"m 738 722 b 781 669 776 722 788 708 l 683 114 b 624 38 676 83 657 58 b 397 -21 557 -1 482 -21 b 257 11 343 -21 296 -10 l 211 -253 b 147 -306 204 -292 188 -306 l -4 -306 b -49 -253 -44 -306 -56 -292 l 114 669 b 178 722 121 708 138 722 l 329 722 b 374 669 369 722 381 708 l 307 289 b 376 213 297 235 317 213 b 432 218 394 213 414 214 b 444 231 439 219 443 224 l 522 669 b 585 722 529 708 544 722 "},"¶":{"ha":972,"x_min":0,"x_max":0,"o":"m 968 986 b 1013 933 1008 986 1019 972 l 836 -71 b 772 -124 829 -110 813 -124 l 651 -124 b 608 -71 611 -124 601 -110 l 751 744 l 682 744 l 539 -71 b 475 -124 529 -110 515 -124 l 354 -124 b 311 -71 314 -124 301 -110 l 375 294 b 150 397 276 296 201 329 b 100 651 99 465 82 550 b 238 896 118 754 164 836 b 503 986 311 956 400 986 "},"·":{"ha":392,"x_min":0,"x_max":0,"o":"m 258 567 b 349 457 340 567 364 539 l 339 400 b 210 292 324 318 293 292 l 157 292 b 67 400 75 292 51 318 l 76 457 b 206 567 92 540 122 567 "},"¸":{"ha":349,"x_min":0,"x_max":0,"o":"m 154 -69 l 164 -69 b 257 -214 246 -71 279 -135 b 29 -347 233 -303 157 -347 b -75 -325 -3 -347 -37 -340 b -104 -282 -97 -315 -107 -301 l -94 -224 b -46 -201 -87 -194 -72 -186 b 28 -222 -21 -215 4 -222 b 82 -190 60 -222 78 -211 b 28 -160 86 -169 72 -160 l -1 -160 b -12 -118 -26 -160 -31 -146 l 60 0 l 192 0 "},"¹":{"ha":408,"x_min":0,"x_max":0,"o":"m 426 1119 b 483 1053 481 1119 493 1101 l 408 626 b 340 571 401 586 385 571 l 265 571 b 217 626 221 571 210 586 l 264 892 l 224 871 b 147 890 186 853 161 858 l 122 946 b 157 1019 111 976 122 1001 l 318 1104 b 386 1119 339 1114 361 1119 "},"º":{"ha":489,"x_min":0,"x_max":0,"o":"m 118 763 b 350 936 136 875 218 936 b 521 744 479 936 543 860 l 506 660 b 272 489 485 546 407 489 b 103 678 143 489 81 565 m 351 757 b 324 783 353 774 344 783 b 288 757 303 783 290 775 l 272 668 b 299 642 269 650 278 642 b 335 668 319 642 332 650 "},"»":{"ha":889,"x_min":0,"x_max":0,"o":"m 111 531 b 124 596 90 554 94 572 l 213 674 b 279 674 239 697 261 697 l 504 397 b 493 331 525 374 522 354 l 179 65 b 113 65 153 43 131 43 l 47 144 b 58 211 29 167 32 189 l 246 368 m 478 531 b 490 596 457 554 461 572 l 581 671 b 647 671 607 694 629 694 l 871 397 b 860 331 889 375 885 353 l 547 67 b 482 67 519 43 503 43 l 414 144 b 425 211 394 168 399 190 l 611 368 "},"¼":{"ha":1271,"x_min":0,"x_max":0,"o":"m 428 993 b 486 926 482 993 496 975 l 411 500 b 343 444 404 460 388 444 l 268 444 b 219 500 224 444 213 460 l 267 765 l 226 744 b 150 764 183 724 165 729 l 125 819 b 160 893 114 850 125 875 l 321 976 b 389 993 339 988 363 993 m 1094 986 b 1122 931 1135 986 1144 963 l 476 51 b 433 10 460 29 446 15 b 363 0 421 3 397 0 l 269 0 b 239 58 226 0 215 26 l 886 938 b 928 978 901 958 915 972 b 994 986 940 983 963 986 m 1172 246 b 1211 204 1211 246 1217 236 l 1200 140 b 1146 97 1194 106 1185 97 l 1132 97 l 1122 49 b 1069 1 1118 17 1100 1 l 979 1 b 944 49 946 1 939 14 l 954 97 l 732 97 b 692 146 694 97 686 111 l 699 188 b 728 247 703 213 713 232 l 997 515 b 1085 550 1026 543 1042 550 l 1156 550 b 1201 494 1200 550 1211 538 l 1157 246 m 996 338 l 904 246 l 979 246 "},"½":{"ha":1286,"x_min":0,"x_max":0,"o":"m 428 993 b 486 926 482 993 496 975 l 411 500 b 343 444 404 460 388 444 l 268 444 b 219 500 224 444 213 460 l 267 765 l 226 744 b 150 764 183 724 165 729 l 125 819 b 160 893 114 850 125 875 l 321 976 b 389 993 339 988 363 993 m 1076 986 b 1104 931 1117 986 1126 963 l 458 51 b 414 10 442 29 426 15 b 343 0 401 3 378 0 l 250 0 b 221 58 210 0 197 26 l 868 938 b 976 986 897 981 911 986 m 817 428 b 1064 560 868 515 950 560 b 1251 382 1197 560 1267 483 b 1088 194 1236 283 1188 222 l 1024 176 b 992 163 1003 174 993 169 l 992 161 l 1154 161 b 1194 113 1192 161 1201 150 l 1183 47 b 1128 0 1178 13 1165 0 l 785 0 b 743 47 747 0 738 13 l 751 93 b 915 279 769 199 808 244 l 993 304 b 1053 361 1032 317 1047 329 b 1026 392 1057 382 1047 392 b 974 361 1006 392 989 382 b 899 328 944 322 939 317 l 833 353 b 817 428 799 365 793 388 "},"¾":{"ha":1297,"x_min":0,"x_max":0,"o":"m 132 878 b 385 1007 181 964 264 1007 b 574 838 518 1007 590 942 b 500 732 564 788 549 761 b 547 597 543 703 558 658 b 294 436 529 490 444 436 b 75 567 161 436 88 479 b 108 631 69 600 81 621 l 174 653 b 242 624 218 665 231 661 b 310 588 249 600 272 588 b 360 614 342 588 358 596 b 324 646 365 636 357 646 l 285 646 b 253 686 253 646 247 653 l 267 756 b 315 799 272 790 278 799 l 343 799 b 390 829 371 799 386 808 b 354 858 394 847 382 858 b 269 821 314 858 286 846 b 193 794 247 786 233 778 l 146 817 b 132 878 121 829 117 850 m 1135 986 b 1163 931 1175 986 1185 963 l 517 51 b 472 10 500 29 485 15 b 401 0 460 3 436 0 l 308 0 b 279 58 268 0 256 26 l 926 938 b 1035 986 956 981 969 986 m 1196 244 b 1235 203 1235 244 1240 235 l 1224 139 b 1169 96 1218 104 1208 96 l 1156 96 l 1146 47 b 1093 0 1142 15 1124 0 l 1003 0 b 968 47 969 0 963 13 l 978 96 l 756 96 b 715 144 718 96 710 110 l 722 186 b 751 246 726 211 736 231 l 1021 514 b 1108 549 1050 542 1065 549 l 1179 549 b 1225 493 1224 549 1235 536 l 1181 244 m 1019 336 l 928 244 l 1003 244 "},"¿":{"ha":818,"x_min":0,"x_max":0,"o":"m 440 465 b 350 574 358 465 338 490 l 358 622 b 488 731 374 704 404 731 l 557 731 b 647 622 639 731 660 704 l 639 574 b 510 465 624 490 593 465 m 718 -82 b 308 -307 631 -232 514 -307 b 46 -225 193 -307 106 -279 b -21 -12 -14 -171 -36 -100 b 139 214 -7 106 75 176 b 275 286 179 239 249 271 b 340 363 314 310 336 335 b 406 418 347 403 365 418 l 532 418 b 578 363 575 418 585 403 b 422 139 557 242 501 182 b 332 92 401 128 353 103 b 296 67 321 85 308 76 b 249 -15 269 44 254 19 b 332 -94 239 -64 267 -94 b 497 7 406 -94 447 -71 b 578 44 524 51 539 60 l 696 -6 b 718 -82 735 -22 740 -39 "},"À":{"ha":956,"x_min":0,"x_max":0,"o":"m 558 1269 b 650 1274 585 1294 615 1296 l 825 1158 b 821 1106 846 1146 844 1129 l 774 1058 b 708 1053 760 1044 738 1043 l 471 1131 b 472 1186 440 1142 443 1157 m 918 57 b 867 0 925 19 908 0 l 722 0 b 629 58 654 0 633 14 l 615 158 l 314 158 l 265 58 b 154 0 243 14 221 0 l 1 0 b -25 57 -37 0 -46 19 l 450 938 b 531 986 471 976 488 986 l 688 986 b 753 940 728 986 746 975 m 568 539 b 568 704 563 604 564 665 l 572 733 l 560 733 b 497 540 547 667 526 603 l 418 376 l 590 376 "},"Á":{"ha":956,"x_min":0,"x_max":0,"o":"m 674 1269 b 765 1265 715 1292 746 1290 l 821 1185 b 804 1129 842 1157 838 1142 l 538 1051 b 475 1058 504 1040 486 1040 l 446 1104 b 457 1157 428 1131 431 1142 m 918 57 b 867 0 925 19 908 0 l 722 0 b 629 58 654 0 633 14 l 615 158 l 314 158 l 265 58 b 154 0 243 14 221 0 l 1 0 b -25 57 -37 0 -46 19 l 450 938 b 531 986 471 976 488 986 l 688 986 b 753 940 728 986 746 975 m 568 539 b 568 704 563 604 564 665 l 572 733 l 560 733 b 497 540 547 667 526 603 l 418 376 l 590 376 "},"Â":{"ha":956,"x_min":0,"x_max":0,"o":"m 689 1278 b 781 1236 739 1278 751 1274 l 899 1094 b 869 1047 919 1072 913 1047 l 756 1047 b 667 1076 699 1047 683 1050 l 636 1126 l 585 1078 b 489 1047 557 1050 543 1047 l 378 1047 b 364 1094 335 1047 335 1072 l 531 1236 b 644 1278 576 1275 585 1278 m 918 57 b 867 0 925 19 908 0 l 722 0 b 629 58 654 0 633 14 l 615 158 l 314 158 l 265 58 b 154 0 243 14 221 0 l 1 0 b -25 57 -37 0 -46 19 l 450 938 b 531 986 471 976 488 986 l 688 986 b 753 940 728 986 746 975 m 568 539 b 568 704 563 604 564 665 l 572 733 l 560 733 b 497 540 547 667 526 603 l 418 376 l 590 376 "},"Ã":{"ha":956,"x_min":0,"x_max":0,"o":"m 861 1263 b 888 1231 885 1263 892 1253 b 722 1060 865 1107 815 1060 b 614 1089 683 1060 647 1069 b 549 1118 581 1108 558 1118 b 522 1088 535 1118 526 1108 b 492 1060 519 1069 510 1060 l 406 1060 b 379 1092 383 1060 375 1071 b 542 1263 400 1218 454 1263 b 654 1235 582 1263 619 1253 b 721 1206 689 1215 711 1206 b 746 1236 733 1206 742 1215 b 778 1263 750 1254 760 1263 m 918 57 b 867 0 925 19 908 0 l 722 0 b 629 58 654 0 633 14 l 615 158 l 314 158 l 265 58 b 154 0 243 14 221 0 l 1 0 b -25 57 -37 0 -46 19 l 450 938 b 531 986 471 976 488 986 l 688 986 b 753 940 728 986 746 975 m 568 539 b 568 704 563 604 564 665 l 572 733 l 560 733 b 497 540 547 667 526 603 l 418 376 l 590 376 "},"Ä":{"ha":956,"x_min":0,"x_max":0,"o":"m 514 1269 b 600 1171 592 1269 613 1244 l 597 1153 b 476 1054 582 1079 554 1054 l 467 1054 b 383 1153 389 1054 371 1079 l 388 1171 b 504 1269 400 1247 426 1269 m 813 1269 b 897 1171 890 1269 910 1247 l 894 1153 b 775 1054 879 1079 853 1054 l 765 1054 b 681 1153 689 1054 668 1079 l 685 1171 b 803 1269 697 1244 726 1269 m 918 57 b 867 0 925 19 908 0 l 722 0 b 629 58 654 0 633 14 l 615 158 l 314 158 l 265 58 b 154 0 243 14 221 0 l 1 0 b -25 57 -37 0 -46 19 l 450 938 b 531 986 471 976 488 986 l 688 986 b 753 940 728 986 746 975 m 568 539 b 568 704 563 604 564 665 l 572 733 l 560 733 b 497 540 547 667 526 603 l 418 376 l 590 376 "},"Å":{"ha":956,"x_min":0,"x_max":0,"o":"m 396 1035 b 651 1232 418 1157 519 1232 b 829 1035 778 1232 851 1156 b 753 900 819 978 793 933 l 918 57 b 867 0 926 19 910 0 l 722 0 b 629 58 654 0 633 14 l 615 158 l 314 158 l 265 58 b 154 0 243 14 221 0 l 1 0 b -25 57 -37 0 -46 19 l 431 894 b 396 1035 399 929 386 976 m 674 1035 b 626 1094 681 1069 661 1094 b 551 1035 588 1094 558 1072 b 606 975 546 1000 567 975 b 674 1035 639 975 668 1000 m 568 539 b 568 704 563 604 564 665 l 572 733 l 560 733 b 497 540 547 667 526 603 l 418 376 l 590 376 "},"Æ":{"ha":1258,"x_min":0,"x_max":0,"o":"m 1143 243 b 1192 185 1188 243 1199 229 l 1169 58 b 1100 0 1160 15 1144 0 l 629 0 b 581 58 585 0 574 15 l 597 146 l 317 146 l 242 51 b 124 0 208 11 192 0 l -28 0 b -56 57 -71 0 -82 22 l 661 938 b 742 986 693 976 704 986 l 1263 986 b 1311 928 1307 986 1321 971 l 1289 803 b 1219 743 1282 758 1264 743 l 949 743 l 926 619 l 1125 619 b 1172 561 1168 619 1179 604 l 1150 436 b 1082 376 1143 392 1125 376 l 883 376 l 860 243 m 694 642 l 490 356 l 633 356 "},"Ç":{"ha":899,"x_min":0,"x_max":0,"o":"m 606 1007 b 951 760 806 1007 921 925 b 904 685 961 719 949 697 l 761 636 b 692 674 717 624 701 631 b 565 764 679 736 643 764 b 388 619 458 764 404 718 l 342 367 b 469 222 325 268 363 222 b 629 313 543 222 596 253 b 711 350 656 357 672 365 l 856 294 b 879 219 892 282 900 257 b 518 -15 804 83 683 6 l 488 -72 l 497 -72 b 590 -218 579 -74 613 -139 b 363 -350 564 -312 472 -350 b 258 -328 326 -350 292 -343 b 229 -285 236 -321 226 -306 l 239 -228 b 288 -204 244 -199 261 -190 b 361 -226 311 -219 336 -226 b 415 -194 393 -226 411 -215 b 361 -164 419 -172 406 -164 l 332 -164 b 318 -125 307 -164 303 -151 l 383 -18 b 69 381 144 -1 31 153 l 115 638 b 606 1007 156 876 332 1007 "},"È":{"ha":817,"x_min":0,"x_max":0,"o":"m 476 1269 b 568 1274 503 1294 533 1296 l 743 1158 b 739 1106 764 1146 763 1129 l 692 1058 b 626 1053 679 1044 657 1043 l 389 1131 b 390 1186 357 1142 364 1157 m 818 986 b 868 928 863 986 875 971 l 846 803 b 776 743 839 758 819 743 l 410 743 l 388 619 l 681 619 b 729 561 725 619 736 604 l 707 436 b 638 376 697 392 682 376 l 344 376 l 321 243 l 700 243 b 747 185 743 243 754 229 l 725 58 b 656 0 718 15 700 0 l 63 0 b 14 58 18 0 4 15 l 167 928 b 236 986 176 971 192 986 "},"É":{"ha":817,"x_min":0,"x_max":0,"o":"m 592 1269 b 683 1265 635 1290 665 1289 l 739 1185 b 722 1129 761 1157 756 1142 l 457 1051 b 393 1058 422 1040 404 1040 l 364 1104 b 376 1157 346 1131 350 1142 m 818 986 b 868 928 863 986 875 971 l 846 803 b 776 743 839 758 819 743 l 410 743 l 388 619 l 681 619 b 729 561 725 619 736 604 l 707 436 b 638 376 697 392 682 376 l 344 376 l 321 243 l 700 243 b 747 185 743 243 754 229 l 725 58 b 656 0 718 15 700 0 l 63 0 b 14 58 18 0 4 15 l 167 928 b 236 986 176 971 192 986 "},"Ê":{"ha":817,"x_min":0,"x_max":0,"o":"m 607 1278 b 699 1236 657 1278 669 1274 l 817 1094 b 788 1047 838 1072 831 1047 l 674 1047 b 585 1076 617 1047 601 1050 l 554 1126 l 503 1078 b 407 1047 475 1050 463 1047 l 296 1047 b 282 1094 251 1047 258 1074 l 449 1236 b 563 1278 494 1275 503 1278 m 818 986 b 868 928 863 986 875 971 l 846 803 b 776 743 839 758 819 743 l 410 743 l 388 619 l 681 619 b 729 561 725 619 736 604 l 707 436 b 638 376 697 392 682 376 l 344 376 l 321 243 l 700 243 b 747 185 743 243 754 229 l 725 58 b 656 0 718 15 700 0 l 63 0 b 14 58 18 0 4 15 l 167 928 b 236 986 176 971 192 986 "},"Ë":{"ha":817,"x_min":0,"x_max":0,"o":"m 433 1269 b 518 1171 511 1269 531 1244 l 515 1153 b 394 1054 503 1079 472 1054 l 385 1054 b 303 1153 307 1054 288 1079 l 306 1171 b 422 1269 318 1247 344 1269 m 732 1269 b 815 1171 808 1269 828 1244 l 813 1153 b 693 1054 800 1079 771 1054 l 683 1054 b 600 1153 607 1054 585 1079 l 603 1171 b 722 1269 615 1244 644 1269 m 818 986 b 868 928 863 986 875 971 l 846 803 b 776 743 839 758 819 743 l 410 743 l 388 619 l 681 619 b 729 561 725 619 736 604 l 707 436 b 638 376 697 392 682 376 l 344 376 l 321 243 l 700 243 b 747 185 743 243 754 229 l 725 58 b 656 0 718 15 700 0 l 63 0 b 14 58 18 0 4 15 l 167 928 b 236 986 176 971 192 986 "},"Ì":{"ha":417,"x_min":0,"x_max":0,"o":"m 263 1269 b 356 1274 289 1294 319 1296 l 531 1158 b 525 1106 554 1143 551 1132 l 479 1058 b 414 1053 465 1044 443 1043 l 175 1131 b 178 1186 146 1143 149 1157 m 167 931 b 232 986 176 974 192 986 l 396 986 b 442 931 439 986 449 971 l 288 56 b 222 0 281 15 265 0 l 58 0 b 13 56 18 0 6 13 "},"Í":{"ha":417,"x_min":0,"x_max":0,"o":"m 378 1269 b 469 1265 421 1290 451 1289 l 526 1185 b 508 1129 547 1157 543 1142 l 243 1051 b 179 1058 210 1040 190 1040 l 150 1104 b 163 1157 135 1128 139 1144 m 167 931 b 232 986 176 974 192 986 l 396 986 b 442 931 439 986 449 971 l 288 56 b 222 0 281 15 265 0 l 58 0 b 13 56 18 0 6 13 "},"Î":{"ha":417,"x_min":0,"x_max":0,"o":"m 394 1278 b 486 1236 444 1278 457 1274 l 603 1094 b 575 1047 624 1072 615 1047 l 460 1047 b 372 1076 403 1047 389 1050 l 342 1126 l 289 1078 b 194 1047 261 1050 249 1047 l 82 1047 b 69 1094 39 1047 42 1072 l 236 1236 b 288 1271 258 1254 275 1267 b 350 1278 300 1275 321 1278 m 167 931 b 232 986 176 974 192 986 l 396 986 b 442 931 439 986 449 971 l 288 56 b 222 0 281 15 265 0 l 58 0 b 13 56 18 0 6 13 "},"Ï":{"ha":417,"x_min":0,"x_max":0,"o":"m 219 1269 b 306 1171 297 1269 318 1244 l 301 1153 b 182 1054 289 1079 258 1054 l 171 1054 b 89 1153 94 1054 76 1079 l 93 1171 b 208 1269 106 1247 132 1269 m 518 1269 b 603 1171 596 1269 615 1247 l 599 1153 b 481 1054 586 1079 557 1054 l 471 1054 b 386 1153 393 1054 374 1079 l 390 1171 b 508 1269 403 1247 431 1269 m 167 931 b 232 986 176 974 192 986 l 396 986 b 442 931 439 986 449 971 l 288 56 b 222 0 281 15 265 0 l 58 0 b 13 56 18 0 6 13 "},"Ð":{"ha":979,"x_min":0,"x_max":0,"o":"m 610 986 b 906 875 744 986 843 949 b 965 579 968 800 988 701 l 929 371 b 436 0 886 132 714 0 l 97 0 b 49 58 53 0 42 15 l 111 411 l 47 411 b 19 447 21 411 14 418 l 38 553 b 79 589 42 576 56 589 l 143 589 l 203 928 b 271 986 210 971 226 986 m 693 593 b 558 743 710 694 674 743 l 444 743 l 418 589 l 532 589 b 558 553 558 589 564 581 l 540 447 b 500 411 535 418 526 411 l 386 411 l 357 243 l 469 243 b 658 393 576 243 640 293 "},"Ñ":{"ha":975,"x_min":0,"x_max":0,"o":"m 849 1263 b 875 1231 872 1263 879 1253 b 710 1060 853 1107 803 1060 b 601 1089 671 1060 635 1069 b 535 1118 568 1108 546 1118 b 510 1088 522 1118 514 1108 b 478 1060 507 1069 496 1060 l 393 1060 b 367 1092 371 1060 363 1071 b 529 1263 388 1218 442 1263 b 707 1206 622 1263 675 1206 b 733 1236 721 1206 729 1215 b 764 1263 738 1254 747 1263 m 950 986 b 1000 928 994 986 1007 971 l 846 58 b 776 0 839 15 821 0 l 624 0 b 572 28 599 0 582 10 l 418 357 b 374 485 397 401 383 444 b 346 643 364 525 354 578 l 335 643 b 318 285 342 510 336 390 l 278 58 b 208 0 268 15 253 0 l 63 0 b 14 58 18 0 4 15 l 167 928 b 236 986 176 971 192 986 l 394 986 b 449 958 421 986 439 976 l 613 603 b 685 349 636 554 660 469 l 696 349 b 681 525 686 429 681 488 b 696 700 679 563 685 621 l 736 928 b 804 986 743 971 760 986 "},"Ò":{"ha":947,"x_min":0,"x_max":0,"o":"m 556 1283 b 649 1288 582 1308 613 1310 l 824 1172 b 819 1119 844 1160 843 1143 l 772 1072 b 707 1067 758 1058 736 1057 l 468 1144 b 471 1200 439 1157 442 1171 m 115 632 b 604 1007 158 872 331 1007 b 901 896 739 1007 838 969 b 964 601 964 822 985 724 l 921 350 b 432 -21 878 111 706 -21 b 135 89 297 -21 197 15 b 71 381 72 161 50 258 m 694 631 b 567 764 710 718 663 764 b 390 631 465 764 406 719 l 342 356 b 471 222 326 268 372 222 b 646 356 572 222 631 267 "},"Ó":{"ha":947,"x_min":0,"x_max":0,"o":"m 672 1283 b 764 1279 714 1306 744 1304 l 819 1199 b 801 1143 840 1171 836 1156 l 536 1065 b 474 1072 503 1054 485 1054 l 444 1118 b 456 1171 426 1144 429 1156 m 115 632 b 604 1007 158 872 331 1007 b 901 896 739 1007 838 969 b 964 601 964 822 985 724 l 921 350 b 432 -21 878 111 706 -21 b 135 89 297 -21 197 15 b 71 381 72 161 50 258 m 694 631 b 567 764 710 718 663 764 b 390 631 465 764 406 719 l 342 356 b 471 222 326 268 372 222 b 646 356 572 222 631 267 "},"Ô":{"ha":947,"x_min":0,"x_max":0,"o":"m 688 1292 b 779 1250 738 1292 750 1288 l 897 1108 b 868 1061 918 1086 908 1061 l 754 1061 b 665 1090 697 1061 682 1064 l 635 1140 l 583 1092 b 488 1061 556 1064 542 1061 l 376 1061 b 363 1108 333 1061 333 1086 l 529 1250 b 643 1292 575 1289 583 1292 m 115 632 b 604 1007 158 872 331 1007 b 901 896 739 1007 838 969 b 964 601 964 822 985 724 l 921 350 b 432 -21 878 111 706 -21 b 135 89 297 -21 197 15 b 71 381 72 161 50 258 m 694 631 b 567 764 710 718 663 764 b 390 631 465 764 406 719 l 342 356 b 471 222 326 268 372 222 b 646 356 572 222 631 267 "},"Õ":{"ha":947,"x_min":0,"x_max":0,"o":"m 860 1276 b 886 1244 883 1276 890 1267 b 721 1074 864 1121 814 1074 b 613 1103 682 1074 646 1083 b 546 1132 579 1122 557 1132 b 521 1101 533 1132 525 1122 b 489 1074 518 1083 507 1074 l 404 1074 b 378 1106 382 1074 374 1085 b 540 1276 399 1232 453 1276 b 651 1249 581 1276 617 1267 b 718 1219 686 1229 708 1219 b 744 1250 732 1219 740 1229 b 775 1276 749 1268 758 1276 m 115 632 b 604 1007 158 872 331 1007 b 901 896 739 1007 838 969 b 964 601 964 822 985 724 l 921 350 b 432 -21 878 111 706 -21 b 135 89 297 -21 197 15 b 71 381 72 161 50 258 m 694 631 b 567 764 710 718 663 764 b 390 631 465 764 406 719 l 342 356 b 471 222 326 268 372 222 b 646 356 572 222 631 267 "},"Ö":{"ha":947,"x_min":0,"x_max":0,"o":"m 513 1283 b 599 1185 590 1283 611 1258 l 594 1167 b 475 1068 582 1093 553 1068 l 464 1068 b 382 1167 388 1068 369 1093 l 386 1185 b 503 1283 399 1261 425 1283 m 811 1283 b 896 1185 889 1283 908 1261 l 892 1167 b 774 1068 879 1093 851 1068 l 764 1068 b 679 1167 686 1068 667 1093 l 683 1185 b 801 1283 696 1258 725 1283 m 115 632 b 604 1007 158 872 331 1007 b 901 896 739 1007 838 969 b 964 601 964 822 985 724 l 921 350 b 432 -21 878 111 706 -21 b 135 89 297 -21 197 15 b 71 381 72 161 50 258 m 694 631 b 567 764 710 718 663 764 b 390 631 465 764 406 719 l 342 356 b 471 222 326 268 372 222 b 646 356 572 222 631 267 "},"×":{"ha":742,"x_min":0,"x_max":0,"o":"m 660 304 b 646 225 683 275 681 254 l 551 144 b 472 144 517 115 499 115 l 351 292 l 181 146 b 101 146 143 117 125 117 l 33 226 b 49 306 10 256 14 276 l 218 451 l 99 597 b 113 676 75 629 79 647 l 208 757 b 288 757 240 783 267 783 l 407 611 l 579 758 b 658 758 614 788 635 788 l 726 678 b 711 599 750 646 746 628 l 539 451 "},"Ø":{"ha":949,"x_min":0,"x_max":0,"o":"m 1021 1046 b 1029 1021 1039 1046 1042 1038 l 896 863 b 935 601 939 793 951 706 l 890 350 b 403 -21 847 111 675 -21 b 196 21 321 -21 251 -7 l 149 -36 b 94 -58 132 -57 128 -58 l -35 -58 b -42 -32 -53 -58 -54 -44 l 82 118 b 42 381 36 186 24 274 l 85 632 b 574 1007 128 872 301 1007 b 785 961 658 1007 729 992 l 836 1024 b 888 1046 853 1044 860 1046 m 619 746 b 536 764 597 758 569 764 b 360 631 440 764 375 718 l 322 418 l 318 383 m 651 560 b 657 593 653 565 656 576 l 360 238 b 440 222 383 228 410 222 b 615 356 542 222 600 267 "},"Ù":{"ha":961,"x_min":0,"x_max":0,"o":"m 561 1269 b 653 1274 588 1294 618 1296 l 828 1158 b 824 1106 849 1146 847 1129 l 776 1058 b 711 1053 764 1044 742 1043 l 474 1131 b 475 1186 442 1142 449 1157 m 356 350 b 478 222 340 265 382 222 b 643 350 574 222 628 265 l 746 928 b 814 986 753 971 771 986 l 972 986 b 1021 928 1015 986 1028 971 l 917 340 b 440 -21 874 106 713 -21 b 147 93 306 -21 208 17 b 88 386 86 168 67 265 l 183 928 b 253 986 193 971 208 986 l 410 986 b 458 928 454 986 468 971 "},"Ú":{"ha":961,"x_min":0,"x_max":0,"o":"m 676 1269 b 768 1265 719 1290 750 1289 l 824 1185 b 807 1129 846 1157 840 1142 l 542 1051 b 478 1058 507 1040 489 1040 l 449 1104 b 461 1157 431 1131 435 1142 m 356 350 b 478 222 340 265 382 222 b 643 350 574 222 628 265 l 746 928 b 814 986 753 971 771 986 l 972 986 b 1021 928 1015 986 1028 971 l 917 340 b 440 -21 874 106 713 -21 b 147 93 306 -21 208 17 b 88 386 86 168 67 265 l 183 928 b 253 986 193 971 208 986 l 410 986 b 458 928 454 986 468 971 "},"Û":{"ha":961,"x_min":0,"x_max":0,"o":"m 692 1278 b 783 1236 742 1278 754 1274 l 901 1094 b 872 1047 922 1072 915 1047 l 758 1047 b 669 1076 701 1047 686 1050 l 639 1126 l 588 1078 b 492 1047 560 1050 547 1047 l 381 1047 b 367 1094 336 1047 343 1074 l 533 1236 b 647 1278 579 1275 588 1278 m 356 350 b 478 222 340 265 382 222 b 643 350 574 222 628 265 l 746 928 b 814 986 753 971 771 986 l 972 986 b 1021 928 1015 986 1028 971 l 917 340 b 440 -21 874 106 713 -21 b 147 93 306 -21 208 17 b 88 386 86 168 67 265 l 183 928 b 253 986 193 971 208 986 l 410 986 b 458 928 454 986 468 971 "},"Ü":{"ha":961,"x_min":0,"x_max":0,"o":"m 518 1269 b 603 1171 596 1269 615 1244 l 600 1153 b 479 1054 588 1079 557 1054 l 469 1054 b 388 1153 392 1054 372 1079 l 390 1171 b 507 1269 403 1247 429 1269 m 817 1269 b 900 1171 893 1269 913 1244 l 897 1153 b 778 1054 885 1079 856 1054 l 768 1054 b 685 1153 692 1054 669 1079 l 688 1171 b 807 1269 700 1244 729 1269 m 356 350 b 478 222 340 265 382 222 b 643 350 574 222 628 265 l 746 928 b 814 986 753 971 771 986 l 972 986 b 1021 928 1015 986 1028 971 l 917 340 b 440 -21 874 106 713 -21 b 147 93 306 -21 208 17 b 88 386 86 168 67 265 l 183 928 b 253 986 193 971 208 986 l 410 986 b 458 928 454 986 468 971 "},"Ý":{"ha":935,"x_min":0,"x_max":0,"o":"m 647 1269 b 739 1265 689 1292 719 1290 l 794 1185 b 776 1129 815 1157 811 1142 l 511 1051 b 449 1058 478 1040 460 1040 l 419 1104 b 431 1157 401 1131 404 1142 m 1006 986 b 1025 928 1050 986 1049 960 l 608 382 l 553 58 b 483 0 543 15 526 0 l 325 0 b 278 58 282 0 271 15 l 333 382 l 111 928 b 150 986 96 960 110 986 l 311 986 b 418 935 385 986 401 981 l 517 651 l 721 935 b 843 986 753 981 771 986 "},"Þ":{"ha":885,"x_min":0,"x_max":0,"o":"m 579 861 b 829 757 690 861 774 826 b 881 483 883 686 901 596 b 451 139 842 263 679 139 l 301 139 l 288 58 b 218 0 281 15 263 0 l 63 0 b 14 58 18 0 4 15 l 167 928 b 236 986 176 971 192 986 l 392 986 b 442 928 436 986 449 971 l 429 861 m 458 382 b 599 500 531 382 588 432 b 501 618 611 568 574 618 l 386 618 l 344 382 "},"ß":{"ha":817,"x_min":0,"x_max":0,"o":"m 121 743 b 510 1042 154 936 288 1042 b 810 746 739 1042 842 924 b 675 547 792 650 754 597 l 674 542 b 768 289 757 501 794 435 b 397 0 735 99 601 0 l 340 0 b 293 58 296 0 283 15 l 315 185 b 383 243 322 229 340 243 l 404 243 b 496 325 456 244 486 271 b 432 408 506 381 485 408 l 413 408 b 365 468 368 408 356 424 l 386 588 b 446 646 393 632 408 646 l 457 646 b 535 724 500 646 525 672 b 467 799 544 774 521 799 b 374 719 413 799 382 772 l 257 58 b 188 0 250 15 232 0 l 47 0 b -1 58 3 0 -8 15 "},"à":{"ha":757,"x_min":0,"x_max":0,"o":"m 422 1017 b 514 1019 450 1042 481 1043 l 688 903 b 681 850 708 888 707 876 l 632 804 b 568 800 619 790 597 789 l 332 883 b 335 939 303 896 306 910 m 69 450 b 458 743 104 651 229 743 b 725 696 574 743 663 728 b 764 615 768 674 774 661 l 669 78 b 606 13 663 39 649 24 b 304 -21 514 -10 414 -21 b 43 300 97 -21 8 104 m 481 513 b 426 518 467 517 449 518 b 326 442 365 518 336 497 l 296 272 b 363 203 289 226 311 203 b 435 210 392 203 417 206 l 486 503 b 481 513 488 508 486 511 "},"á":{"ha":757,"x_min":0,"x_max":0,"o":"m 532 1019 b 624 1017 575 1043 606 1042 l 682 939 b 665 883 704 911 703 896 l 401 800 b 338 804 368 789 347 790 l 306 850 b 318 903 290 874 294 890 m 69 450 b 458 743 104 651 229 743 b 725 696 574 743 663 728 b 764 615 768 674 774 661 l 669 78 b 606 13 663 39 649 24 b 304 -21 514 -10 414 -21 b 43 300 97 -21 8 104 m 481 513 b 426 518 467 517 449 518 b 326 442 365 518 336 497 l 296 272 b 363 203 289 226 311 203 b 435 210 392 203 417 206 l 486 503 b 481 513 488 508 486 511 "},"â":{"ha":757,"x_min":0,"x_max":0,"o":"m 550 1028 b 643 988 601 1028 611 1025 l 760 846 b 731 797 781 824 771 797 l 622 797 b 536 828 567 797 551 801 l 504 876 l 453 828 b 357 797 425 801 408 797 l 244 797 b 232 846 200 797 207 824 l 399 988 b 513 1028 444 1026 453 1028 m 69 450 b 458 743 104 651 229 743 b 725 696 574 743 663 728 b 764 615 768 674 774 661 l 669 78 b 606 13 663 39 649 24 b 304 -21 514 -10 414 -21 b 43 300 97 -21 8 104 m 481 513 b 426 518 467 517 449 518 b 326 442 365 518 336 497 l 296 272 b 363 203 289 226 311 203 b 435 210 392 203 417 206 l 486 503 b 481 513 488 508 486 511 "},"ã":{"ha":757,"x_min":0,"x_max":0,"o":"m 724 1015 b 750 983 746 1015 754 1004 b 583 813 728 857 676 813 b 475 842 544 813 508 822 b 410 869 442 860 419 869 b 383 839 396 869 388 860 b 353 813 381 821 371 813 l 267 813 b 240 844 246 813 238 824 b 404 1015 263 968 317 1015 b 515 986 444 1015 481 1006 b 582 957 550 967 572 957 b 608 988 596 957 604 967 b 639 1015 611 1006 621 1015 m 69 450 b 458 743 104 651 229 743 b 725 696 574 743 663 728 b 764 615 768 674 774 661 l 669 78 b 606 13 663 39 649 24 b 304 -21 514 -10 414 -21 b 43 300 97 -21 8 104 m 481 513 b 426 518 467 517 449 518 b 326 442 365 518 336 497 l 296 272 b 363 203 289 226 311 203 b 435 210 392 203 417 206 l 486 503 b 481 513 488 508 486 511 "},"ä":{"ha":757,"x_min":0,"x_max":0,"o":"m 376 1018 b 460 919 453 1018 472 993 l 457 901 b 338 801 444 828 415 801 l 328 801 b 244 901 250 801 229 828 l 247 919 b 365 1018 263 996 288 1018 m 675 1018 b 757 919 751 1018 772 996 l 754 901 b 636 801 742 828 714 801 l 626 801 b 542 901 550 801 526 828 l 544 919 b 665 1018 557 993 588 1018 m 69 450 b 458 743 104 651 229 743 b 725 696 574 743 663 728 b 764 615 768 674 774 661 l 669 78 b 606 13 663 39 649 24 b 304 -21 514 -10 414 -21 b 43 300 97 -21 8 104 m 481 513 b 426 518 467 517 449 518 b 326 442 365 518 336 497 l 296 272 b 363 203 289 226 311 203 b 435 210 392 203 417 206 l 486 503 b 481 513 488 508 486 511 "},"å":{"ha":757,"x_min":0,"x_max":0,"o":"m 324 944 b 533 1107 340 1044 426 1107 b 681 944 639 1107 699 1043 b 476 783 664 846 581 783 b 324 944 369 783 306 844 m 553 944 b 513 994 557 974 540 994 b 451 944 478 994 458 978 b 496 897 446 917 463 897 b 553 944 524 897 547 915 m 69 450 b 458 743 104 651 229 743 b 725 696 574 743 663 728 b 764 615 768 674 774 661 l 669 78 b 606 13 663 39 649 24 b 304 -21 514 -10 414 -21 b 43 300 97 -21 8 104 m 481 513 b 426 518 467 517 449 518 b 326 442 365 518 336 497 l 296 272 b 363 203 289 226 311 203 b 435 210 392 203 417 206 l 486 503 b 481 513 488 508 486 511 "},"æ":{"ha":1071,"x_min":0,"x_max":0,"o":"m 592 676 b 800 743 653 721 722 743 b 1079 493 1004 743 1107 654 b 778 285 1057 361 943 285 b 636 293 735 285 688 288 l 631 264 b 697 174 621 204 643 174 b 807 225 740 174 776 190 b 881 239 829 254 842 260 l 965 192 b 975 111 997 174 1001 146 b 660 -21 915 24 810 -21 b 493 18 594 -21 539 -8 b 286 -21 432 -8 363 -21 b 13 224 68 -21 -11 67 b 374 442 39 381 142 442 b 429 440 389 442 422 440 l 435 475 b 379 546 438 506 449 546 b 293 496 349 546 319 529 b 221 481 272 468 261 464 l 124 522 b 108 599 89 538 81 558 b 419 743 179 697 269 743 b 592 676 493 743 550 721 m 826 503 b 764 560 833 538 813 560 b 668 476 713 560 675 528 l 665 458 b 750 453 703 454 731 453 b 826 503 796 453 822 469 m 397 267 b 336 269 376 268 357 269 b 261 211 293 269 268 250 b 313 156 254 174 272 156 b 392 163 333 156 360 158 b 394 247 389 190 390 218 "},"ç":{"ha":718,"x_min":0,"x_max":0,"o":"m 65 450 b 454 743 100 646 231 743 b 729 549 619 743 711 665 b 682 475 736 506 725 488 l 557 433 b 488 471 513 418 497 428 b 411 526 479 508 454 526 b 324 450 363 526 333 501 l 292 271 b 353 196 282 221 303 196 b 444 253 393 196 424 215 b 526 288 468 293 486 303 l 654 247 b 676 169 692 235 700 208 b 397 -15 613 64 519 3 l 367 -69 l 376 -69 b 469 -214 458 -71 492 -135 b 242 -347 446 -303 369 -347 b 139 -325 210 -347 175 -340 b 108 -282 115 -315 106 -301 l 119 -224 b 167 -201 124 -194 140 -186 b 240 -222 192 -215 217 -222 b 294 -190 272 -222 290 -211 b 240 -160 299 -169 285 -160 l 214 -160 b 200 -118 188 -160 182 -146 l 261 -18 b 39 297 79 -1 10 118 "},"è":{"ha":753,"x_min":0,"x_max":0,"o":"m 418 1017 b 510 1019 446 1042 476 1043 l 683 903 b 676 850 701 890 700 874 l 629 804 b 564 800 615 790 593 789 l 328 883 b 331 939 299 896 301 910 m 69 450 b 465 743 103 638 244 743 b 767 486 672 743 789 651 b 457 285 746 358 635 285 b 300 293 408 285 357 288 l 294 264 b 369 175 285 204 310 175 b 490 225 418 175 458 192 b 571 239 517 253 531 260 l 661 193 b 674 113 694 175 699 149 b 336 -21 608 24 496 -21 b 43 306 99 -21 8 111 m 514 503 b 438 560 519 540 494 560 b 332 474 379 560 344 531 l 328 458 b 424 451 363 454 394 451 b 514 503 478 451 508 468 "},"é":{"ha":753,"x_min":0,"x_max":0,"o":"m 528 1019 b 619 1017 571 1043 601 1042 l 679 939 b 663 883 700 911 697 896 l 397 800 b 333 804 364 789 343 790 l 303 850 b 315 903 285 876 288 890 m 69 450 b 465 743 103 638 244 743 b 767 486 672 743 789 651 b 457 285 746 358 635 285 b 300 293 408 285 357 288 l 294 264 b 369 175 285 204 310 175 b 490 225 418 175 458 192 b 571 239 517 253 531 260 l 661 193 b 674 113 694 175 699 149 b 336 -21 608 24 496 -21 b 43 306 99 -21 8 111 m 514 503 b 438 560 519 540 494 560 b 332 474 379 560 344 531 l 328 458 b 424 451 363 454 394 451 b 514 503 478 451 508 468 "},"ê":{"ha":753,"x_min":0,"x_max":0,"o":"m 240 797 b 228 846 196 797 203 824 l 396 988 b 508 1028 440 1026 449 1028 l 547 1028 b 639 988 597 1028 607 1025 l 756 846 b 726 797 776 824 767 797 l 619 797 b 532 828 563 797 547 801 l 500 876 l 449 828 b 353 797 421 801 407 797 m 465 743 b 767 486 672 743 789 651 b 457 285 746 358 635 285 b 300 293 408 285 357 288 l 294 264 b 369 175 285 204 310 175 b 490 225 418 175 458 192 b 571 239 517 253 531 260 l 661 193 b 674 113 694 175 699 149 b 336 -21 608 24 496 -21 b 43 306 99 -21 8 111 l 69 450 b 465 743 103 638 244 743 m 514 503 b 438 560 519 540 494 560 b 332 474 379 560 344 531 l 328 458 b 424 451 363 454 394 451 b 514 503 478 451 508 468 "},"ë":{"ha":753,"x_min":0,"x_max":0,"o":"m 372 1018 b 457 919 449 1018 469 993 l 454 901 b 335 801 439 828 411 801 l 324 801 b 240 901 247 801 228 828 l 243 919 b 361 1018 258 996 285 1018 m 671 1018 b 754 919 747 1018 767 996 l 751 901 b 633 801 736 828 710 801 l 624 801 b 538 901 546 801 525 828 l 540 919 b 661 1018 553 993 583 1018 m 69 450 b 465 743 103 638 244 743 b 767 486 672 743 789 651 b 457 285 746 358 635 285 b 300 293 408 285 357 288 l 294 264 b 369 175 285 204 310 175 b 490 225 418 175 458 192 b 571 239 517 253 531 260 l 661 193 b 674 113 694 175 699 149 b 336 -21 608 24 496 -21 b 43 306 99 -21 8 111 m 514 503 b 438 560 519 540 494 560 b 332 474 379 560 344 531 l 328 458 b 424 451 363 454 394 451 b 514 503 478 451 508 468 "},"ì":{"ha":374,"x_min":0,"x_max":0,"o":"m 194 1017 b 283 1017 222 1042 251 1042 l 443 890 b 433 838 464 874 461 865 l 392 797 b 328 797 376 782 356 782 l 113 896 b 119 951 85 913 88 924 m 322 722 b 367 669 363 722 374 708 l 258 53 b 194 0 251 14 235 0 l 43 0 b -1 53 3 0 -8 14 l 107 669 b 171 722 114 708 131 722 "},"í":{"ha":374,"x_min":0,"x_max":0,"o":"m 292 1019 b 385 1022 332 1046 364 1046 l 450 949 b 435 893 471 922 469 906 l 185 797 b 121 797 151 782 131 782 l 85 840 b 94 893 67 867 68 876 m 322 722 b 367 669 363 722 374 708 l 258 53 b 194 0 251 14 235 0 l 43 0 b -1 53 3 0 -8 14 l 107 669 b 171 722 114 708 131 722 "},"î":{"ha":374,"x_min":0,"x_max":0,"o":"m 508 843 b 479 796 529 821 519 796 l 375 796 b 292 828 321 796 307 801 l 268 869 l 225 825 b 132 796 201 799 186 796 l 21 796 b 8 843 -19 796 -18 821 l 164 982 b 213 1015 183 1000 200 1011 b 275 1021 225 1019 246 1021 l 311 1021 b 401 982 361 1021 374 1017 m 318 722 b 363 669 358 722 369 708 l 254 53 b 190 0 247 14 231 0 l 39 0 b -6 53 -1 0 -12 14 l 103 669 b 167 722 110 708 126 722 "},"ï":{"ha":374,"x_min":0,"x_max":0,"o":"m 160 1018 b 244 919 238 1018 257 993 l 242 901 b 122 801 226 828 199 801 l 113 801 b 29 901 35 801 14 828 l 32 919 b 150 1018 47 996 72 1018 m 447 1018 b 529 919 524 1018 544 996 l 526 901 b 408 801 514 828 486 801 l 399 801 b 314 901 322 801 299 828 l 317 919 b 438 1018 329 993 360 1018 m 322 722 b 367 669 363 722 374 708 l 258 53 b 194 0 251 14 235 0 l 43 0 b -1 53 3 0 -8 14 l 107 669 b 171 722 114 708 131 722 "},"ð":{"ha":776,"x_min":0,"x_max":0,"o":"m 690 1053 b 726 1054 704 1065 717 1067 l 771 1014 b 767 976 783 1004 782 992 l 722 935 b 771 528 789 860 806 724 l 726 275 b 331 -21 693 85 554 -21 b 39 292 107 -21 6 99 l 63 418 b 417 685 94 594 228 685 b 569 647 481 685 532 672 b 538 765 574 699 563 738 l 483 717 b 446 714 467 701 463 703 l 404 743 b 410 781 392 753 394 765 l 443 814 b 286 822 417 819 364 822 b 238 878 243 822 232 835 l 256 976 b 321 1033 263 1019 278 1033 b 632 996 461 1033 564 1021 m 490 404 b 418 479 499 454 475 479 b 318 404 360 479 326 454 l 296 276 b 369 203 286 228 310 203 b 468 276 425 203 458 228 "},"ñ":{"ha":772,"x_min":0,"x_max":0,"o":"m 694 1015 b 721 983 717 1015 725 1004 b 554 813 699 857 647 813 b 446 842 515 813 479 822 b 381 869 413 860 390 869 b 354 839 367 869 358 860 b 324 813 351 821 342 813 l 238 813 b 211 844 217 813 208 824 b 375 1015 233 968 288 1015 b 486 986 415 1015 451 1006 b 553 957 521 967 543 957 b 579 988 567 957 575 967 b 610 1015 582 1006 592 1015 m 167 692 b 471 743 260 726 361 743 b 731 438 681 743 764 632 l 663 53 b 600 0 656 14 639 0 l 447 0 b 404 53 407 0 397 14 l 471 433 b 401 510 481 488 458 510 b 339 504 378 510 357 508 b 333 499 338 503 335 501 l 256 53 b 192 0 249 14 232 0 l 40 0 b -4 53 0 0 -11 14 l 94 608 b 167 692 104 654 117 674 "},"ò":{"ha":764,"x_min":0,"x_max":0,"o":"m 414 1017 b 506 1019 442 1042 472 1043 l 679 903 b 672 850 697 890 696 874 l 625 804 b 560 800 611 790 589 789 l 324 883 b 326 939 294 896 297 910 m 67 449 b 463 743 101 639 239 743 b 754 429 685 743 788 622 l 728 274 b 331 -21 693 83 557 -21 b 40 293 110 -21 7 100 m 499 446 b 425 521 508 496 485 521 b 325 446 368 521 335 496 l 296 276 b 368 203 286 228 310 203 b 469 276 425 203 460 228 "},"ó":{"ha":764,"x_min":0,"x_max":0,"o":"m 524 1019 b 615 1017 567 1043 597 1042 l 675 939 b 658 883 696 911 693 896 l 393 800 b 329 804 360 789 339 790 l 299 850 b 311 903 281 876 283 890 m 67 449 b 463 743 101 639 239 743 b 754 429 685 743 788 622 l 728 274 b 331 -21 693 83 557 -21 b 40 293 110 -21 7 100 m 499 446 b 425 521 508 496 485 521 b 325 446 368 521 335 496 l 296 276 b 368 203 286 228 310 203 b 469 276 425 203 460 228 "},"ô":{"ha":764,"x_min":0,"x_max":0,"o":"m 236 797 b 224 846 192 797 199 824 l 392 988 b 504 1028 436 1026 444 1028 l 543 1028 b 635 988 593 1028 603 1025 l 751 846 b 722 797 772 824 763 797 l 615 797 b 528 828 558 797 543 801 l 496 876 l 444 828 b 349 797 417 801 403 797 m 463 743 b 754 429 685 743 788 622 l 728 274 b 331 -21 693 83 557 -21 b 40 293 110 -21 7 100 l 67 449 b 463 743 101 639 239 743 m 499 446 b 425 521 508 496 485 521 b 325 446 368 521 335 496 l 296 276 b 368 203 286 228 310 203 b 469 276 425 203 460 228 "},"õ":{"ha":764,"x_min":0,"x_max":0,"o":"m 715 1015 b 742 983 738 1015 746 1004 b 575 813 719 857 668 813 b 467 842 536 813 500 822 b 401 869 433 860 411 869 b 375 839 388 869 379 860 b 344 813 372 821 363 813 l 258 813 b 232 844 238 813 229 824 b 396 1015 254 968 308 1015 b 507 986 436 1015 472 1006 b 574 957 542 967 564 957 b 600 988 588 957 596 967 b 631 1015 603 1006 613 1015 m 67 449 b 463 743 101 639 239 743 b 754 429 685 743 788 622 l 728 274 b 331 -21 693 83 557 -21 b 40 293 110 -21 7 100 m 499 446 b 425 521 508 496 485 521 b 325 446 368 521 335 496 l 296 276 b 368 203 286 228 310 203 b 469 276 425 203 460 228 "},"ö":{"ha":764,"x_min":0,"x_max":0,"o":"m 368 1018 b 453 919 444 1018 465 993 l 450 901 b 331 801 435 828 407 801 l 319 801 b 236 901 243 801 224 828 l 239 919 b 357 1018 254 996 281 1018 m 667 1018 b 750 919 743 1018 763 996 l 747 901 b 629 801 732 828 706 801 l 619 801 b 533 901 542 801 521 828 l 536 919 b 657 1018 549 993 579 1018 m 67 449 b 463 743 101 639 239 743 b 754 429 685 743 788 622 l 728 274 b 331 -21 693 83 557 -21 b 40 293 110 -21 7 100 m 499 446 b 425 521 508 496 485 521 b 325 446 368 521 335 496 l 296 276 b 368 203 286 228 310 203 b 469 276 425 203 460 228 "},"÷":{"ha":769,"x_min":0,"x_max":0,"o":"m 500 840 b 588 736 579 840 603 815 l 585 721 b 460 615 569 642 539 615 l 390 615 b 304 721 311 615 289 642 l 307 736 b 431 840 322 815 351 840 m 707 571 b 756 511 751 571 763 556 l 735 393 b 665 335 728 349 708 335 l 88 335 b 39 393 43 335 32 349 l 60 511 b 129 571 67 556 85 571 m 403 289 b 489 185 485 289 504 264 l 488 169 b 364 64 472 90 442 64 l 294 64 b 207 169 215 64 192 90 l 210 185 b 333 289 225 264 254 289 "},"ø":{"ha":765,"x_min":0,"x_max":0,"o":"m 771 767 b 779 742 790 767 793 758 l 707 653 b 751 429 753 597 768 522 l 725 274 b 329 -21 692 83 556 -21 b 182 3 272 -21 224 -12 l 156 -29 b 107 -49 144 -42 128 -49 l 28 -49 b 21 -24 8 -49 6 -40 l 90 61 b 39 293 39 118 22 194 l 65 449 b 461 743 99 639 238 743 b 618 715 524 743 575 733 l 644 747 b 692 767 656 760 671 767 m 485 536 b 429 554 474 549 456 554 b 329 479 371 554 338 529 l 303 336 b 300 308 301 325 300 315 m 310 182 b 360 169 322 174 339 169 b 461 243 419 169 453 194 l 486 382 b 489 401 488 389 489 396 "},"ù":{"ha":772,"x_min":0,"x_max":0,"o":"m 418 1017 b 510 1019 444 1042 475 1043 l 683 903 b 676 850 704 888 703 876 l 628 804 b 563 800 615 790 593 789 l 328 883 b 331 939 299 896 299 910 m 743 722 b 788 669 783 722 794 708 l 689 114 b 617 31 679 68 667 49 b 313 -21 524 -4 422 -21 b 56 293 106 -21 21 97 l 121 669 b 185 722 128 708 144 722 l 336 722 b 381 669 376 722 388 708 l 314 289 b 382 213 304 235 325 213 b 439 218 401 213 421 214 b 451 231 446 219 450 224 l 528 669 b 592 722 535 708 551 722 "},"ú":{"ha":772,"x_min":0,"x_max":0,"o":"m 528 1019 b 619 1017 569 1043 600 1042 l 678 939 b 661 883 700 911 696 896 l 397 800 b 333 804 363 788 344 788 l 301 850 b 314 903 286 874 290 890 m 743 722 b 788 669 783 722 794 708 l 689 114 b 617 31 679 68 667 49 b 313 -21 524 -4 422 -21 b 56 293 106 -21 21 97 l 121 669 b 185 722 128 708 144 722 l 336 722 b 381 669 376 722 388 708 l 314 289 b 382 213 304 235 325 213 b 439 218 401 213 421 214 b 451 231 446 219 450 224 l 528 669 b 592 722 535 708 551 722 "},"û":{"ha":772,"x_min":0,"x_max":0,"o":"m 546 1028 b 638 988 597 1028 608 1025 l 756 846 b 725 797 776 824 768 797 l 618 797 b 532 828 561 797 547 801 l 500 876 l 449 828 b 353 797 421 801 404 797 l 240 797 b 228 846 196 797 203 824 l 394 988 b 446 1021 415 1006 433 1017 b 508 1028 458 1025 479 1028 m 743 722 b 788 669 783 722 794 708 l 689 114 b 617 31 679 68 667 49 b 313 -21 524 -4 422 -21 b 56 293 106 -21 21 97 l 121 669 b 185 722 128 708 144 722 l 336 722 b 381 669 376 722 388 708 l 314 289 b 382 213 304 235 325 213 b 439 218 401 213 421 214 b 451 231 446 219 450 224 l 528 669 b 592 722 535 708 551 722 "},"ü":{"ha":772,"x_min":0,"x_max":0,"o":"m 371 1018 b 456 919 449 1018 468 993 l 453 901 b 333 801 438 828 410 801 l 324 801 b 240 901 246 801 225 828 l 243 919 b 361 1018 258 996 283 1018 m 669 1018 b 753 919 747 1018 768 996 l 750 901 b 632 801 735 828 708 801 l 622 801 b 538 901 546 801 522 828 l 540 919 b 660 1018 553 993 583 1018 m 743 722 b 788 669 783 722 794 708 l 689 114 b 617 31 679 68 667 49 b 313 -21 524 -4 422 -21 b 56 293 106 -21 21 97 l 121 669 b 185 722 128 708 144 722 l 336 722 b 381 669 376 722 388 708 l 314 289 b 382 213 304 235 325 213 b 439 218 401 213 421 214 b 451 231 446 219 450 224 l 528 669 b 592 722 535 708 551 722 "},"ý":{"ha":775,"x_min":0,"x_max":0,"o":"m 525 1019 b 617 1017 567 1043 597 1042 l 675 939 b 658 883 696 911 693 896 l 393 800 b 331 804 360 789 339 790 l 299 850 b 311 903 281 876 283 890 m 740 722 b 783 669 781 722 790 708 l 665 -7 b 276 -319 628 -215 497 -319 b 0 -179 125 -319 43 -274 b 39 -99 -15 -144 -3 -117 l 157 -44 b 231 -62 206 -28 214 -33 b 311 -108 249 -93 275 -108 b 403 -28 363 -108 393 -82 l 411 26 b 317 21 386 22 354 21 b 60 340 110 21 25 144 l 118 669 b 181 722 125 708 140 722 l 333 722 b 376 669 374 722 383 708 l 317 331 b 388 254 307 279 331 254 b 453 260 413 254 435 256 l 525 669 b 588 722 532 708 549 722 "},"þ":{"ha":764,"x_min":0,"x_max":0,"o":"m 161 974 b 224 1028 168 1014 183 1028 l 376 1028 b 421 974 417 1028 428 1014 l 379 739 b 467 743 406 742 435 743 b 732 431 679 743 767 625 l 706 281 b 329 -21 671 79 544 -21 b 246 -14 317 -21 289 -18 l 204 -251 b 142 -304 197 -292 182 -304 l -11 -304 b -54 -251 -51 -304 -61 -292 m 476 450 b 410 518 485 496 463 518 b 339 510 386 518 363 515 l 286 210 b 346 203 304 206 325 203 b 446 279 403 203 436 228 "},"ÿ":{"ha":775,"x_min":0,"x_max":0,"o":"m 368 1018 b 453 919 446 1018 465 993 l 450 901 b 331 801 435 828 407 801 l 319 801 b 238 901 243 801 222 828 l 240 919 b 357 1018 253 996 281 1018 m 667 1018 b 750 919 744 1018 765 996 l 747 901 b 629 801 732 828 706 801 l 619 801 b 535 901 542 801 519 828 l 538 919 b 657 1018 550 993 579 1018 m 740 722 b 783 669 781 722 790 708 l 665 -7 b 276 -319 628 -215 497 -319 b 0 -179 125 -319 43 -274 b 39 -99 -15 -144 -3 -117 l 157 -44 b 231 -62 206 -28 214 -33 b 311 -108 249 -93 275 -108 b 403 -28 363 -108 393 -82 l 411 26 b 317 21 386 22 354 21 b 60 340 110 21 25 144 l 118 669 b 181 722 125 708 140 722 l 333 722 b 376 669 374 722 383 708 l 317 331 b 388 254 307 279 331 254 b 453 260 413 254 435 256 l 525 669 b 588 722 532 708 549 722 "},"Ā":{"ha":956,"x_min":0,"x_max":0,"o":"m 822 1239 b 865 1189 863 1239 872 1229 l 854 1131 b 794 1081 847 1090 835 1081 l 457 1081 b 415 1131 417 1081 408 1090 l 426 1189 b 485 1239 433 1228 447 1239 m 918 57 b 867 0 925 19 908 0 l 722 0 b 629 58 654 0 633 14 l 615 158 l 314 158 l 265 58 b 154 0 243 14 221 0 l 1 0 b -25 57 -37 0 -46 19 l 450 938 b 531 986 471 976 488 986 l 688 986 b 753 940 728 986 746 975 m 568 539 b 568 704 563 604 564 665 l 572 733 l 560 733 b 497 540 547 667 526 603 l 418 376 l 590 376 "},"ā":{"ha":757,"x_min":0,"x_max":0,"o":"m 683 986 b 725 936 724 986 732 976 l 714 878 b 656 828 708 838 696 828 l 317 828 b 275 878 278 828 269 838 l 286 936 b 344 986 293 975 307 986 m 69 450 b 458 743 104 651 229 743 b 725 696 574 743 663 728 b 764 615 768 674 774 661 l 669 78 b 606 13 663 39 649 24 b 304 -21 514 -10 414 -21 b 43 300 97 -21 8 104 m 481 513 b 426 518 467 517 449 518 b 326 442 365 518 336 497 l 296 272 b 363 203 289 226 311 203 b 435 210 392 203 417 206 l 486 503 b 481 513 488 508 486 511 "},"Ă":{"ha":956,"x_min":0,"x_max":0,"o":"m 893 1194 b 621 1047 839 1096 747 1047 b 401 1194 499 1047 422 1100 b 433 1243 397 1217 407 1233 l 532 1278 b 582 1261 564 1289 572 1285 b 650 1215 593 1231 615 1215 b 733 1261 682 1215 710 1231 b 786 1279 751 1285 760 1289 l 876 1243 b 893 1194 900 1233 906 1218 m 918 57 b 867 0 925 19 908 0 l 722 0 b 629 58 654 0 633 14 l 615 158 l 314 158 l 265 58 b 154 0 243 14 221 0 l 1 0 b -25 57 -37 0 -46 19 l 450 938 b 531 986 471 976 488 986 l 688 986 b 753 940 728 986 746 975 m 568 539 b 568 704 563 604 564 665 l 572 733 l 560 733 b 497 540 547 667 526 603 l 418 376 l 590 376 "},"ă":{"ha":757,"x_min":0,"x_max":0,"o":"m 754 944 b 483 797 700 846 610 797 b 264 944 361 797 282 850 b 296 993 257 971 267 982 l 390 1026 b 442 1010 424 1038 431 1033 b 511 965 453 981 476 965 b 594 1011 544 965 572 981 b 647 1028 613 1033 619 1038 l 739 993 b 754 944 765 982 767 971 m 69 450 b 458 743 104 651 229 743 b 725 696 574 743 663 728 b 764 615 768 674 774 661 l 669 78 b 606 13 663 39 649 24 b 304 -21 514 -10 414 -21 b 43 300 97 -21 8 104 m 481 513 b 426 518 467 517 449 518 b 326 442 365 518 336 497 l 296 272 b 363 203 289 226 311 203 b 435 210 392 203 417 206 l 486 503 b 481 513 488 508 486 511 "},"Ą":{"ha":956,"x_min":0,"x_max":0,"o":"m 688 986 b 753 940 728 986 746 975 l 918 57 b 906 8 922 36 918 19 b 789 -160 829 -57 790 -112 b 810 -186 789 -178 796 -186 b 836 -178 817 -186 826 -183 b 868 -186 854 -168 865 -171 l 886 -257 b 871 -297 890 -275 886 -287 b 707 -342 828 -326 772 -342 b 575 -240 622 -342 578 -308 b 724 0 574 -161 624 -82 b 629 58 651 1 633 14 l 615 158 l 314 158 l 265 58 b 154 0 243 14 221 0 l 1 0 b -25 57 -37 0 -46 19 l 450 938 b 531 986 471 976 488 986 m 568 539 b 568 704 563 604 564 665 l 572 733 l 560 733 b 497 540 547 667 526 603 l 418 376 l 590 376 "},"ą":{"ha":758,"x_min":0,"x_max":0,"o":"m 69 450 b 458 743 104 651 229 743 b 725 696 574 743 663 728 b 764 615 768 674 774 661 l 669 78 b 649 33 665 58 658 43 b 526 -160 569 -43 529 -107 b 547 -186 526 -178 533 -186 b 574 -178 556 -186 564 -183 b 606 -186 590 -168 601 -171 l 624 -257 b 608 -297 628 -275 622 -287 b 444 -342 565 -326 510 -342 b 313 -240 371 -342 313 -312 b 444 -14 313 -164 357 -89 b 304 -21 407 -18 361 -21 b 43 300 97 -21 8 104 m 481 513 b 426 518 467 517 449 518 b 326 442 365 518 336 497 l 296 272 b 363 203 289 226 311 203 b 435 210 392 203 417 206 l 486 503 b 481 513 488 508 486 511 "},"Ć":{"ha":899,"x_min":0,"x_max":0,"o":"m 671 1269 b 763 1265 714 1290 744 1289 l 819 1185 b 801 1129 840 1157 836 1142 l 536 1051 b 472 1058 503 1040 483 1040 l 443 1104 b 456 1157 428 1128 432 1144 m 117 638 b 607 1007 157 876 333 1007 b 953 760 807 1007 922 925 b 906 685 963 719 950 697 l 763 636 b 693 674 718 624 703 631 b 567 764 681 736 644 764 b 389 619 460 764 406 718 l 343 367 b 471 222 326 268 364 222 b 631 313 544 222 597 253 b 713 350 657 357 674 365 l 857 294 b 881 219 893 282 901 257 b 432 -21 793 60 644 -21 b 136 89 297 -21 199 15 b 71 381 72 163 50 260 "},"ć":{"ha":718,"x_min":0,"x_max":0,"o":"m 503 1019 b 594 1017 544 1043 575 1042 l 653 939 b 636 883 675 911 671 896 l 371 800 b 308 804 338 789 317 790 l 276 850 b 289 903 258 876 263 888 m 69 450 b 457 743 104 646 233 743 b 733 549 622 743 713 665 b 685 475 740 508 728 490 l 561 433 b 492 471 515 418 501 428 b 415 526 483 508 458 526 b 326 450 367 526 336 501 l 296 271 b 356 196 286 222 310 196 b 449 253 394 196 425 215 b 531 288 471 293 490 303 l 657 247 b 679 169 694 235 703 210 b 319 -21 604 43 485 -21 b 43 297 97 -21 8 99 "},"Ĉ":{"ha":899,"x_min":0,"x_max":0,"o":"m 688 1278 b 779 1236 738 1278 750 1274 l 896 1094 b 868 1047 917 1072 908 1047 l 753 1047 b 665 1076 696 1047 682 1050 l 635 1126 l 582 1078 b 488 1047 554 1050 542 1047 l 375 1047 b 363 1094 332 1047 335 1072 l 529 1236 b 581 1271 551 1254 568 1267 b 643 1278 593 1275 614 1278 m 117 638 b 607 1007 157 876 333 1007 b 953 760 807 1007 922 925 b 906 685 963 719 950 697 l 763 636 b 693 674 718 624 703 631 b 567 764 681 736 644 764 b 389 619 460 764 406 718 l 343 367 b 471 222 326 268 364 222 b 631 313 544 222 597 253 b 713 350 657 357 674 365 l 857 294 b 881 219 893 282 901 257 b 432 -21 793 60 644 -21 b 136 89 297 -21 199 15 b 71 381 72 163 50 260 "},"ĉ":{"ha":718,"x_min":0,"x_max":0,"o":"m 731 846 b 700 797 751 824 743 797 l 593 797 b 506 828 536 797 522 801 l 475 876 l 424 828 b 328 797 396 801 379 797 l 215 797 b 203 846 172 797 174 824 l 369 988 b 421 1022 390 1006 408 1018 b 483 1028 433 1026 454 1028 l 521 1028 b 613 988 571 1028 581 1025 m 457 743 b 733 549 622 743 713 665 b 685 475 740 508 728 490 l 561 433 b 492 471 515 418 501 428 b 415 526 483 508 458 526 b 326 450 367 526 336 501 l 296 271 b 356 196 286 222 310 196 b 449 253 394 196 425 215 b 531 288 471 293 490 303 l 657 247 b 679 169 694 235 703 210 b 319 -21 604 43 485 -21 b 43 297 97 -21 8 99 l 69 450 b 457 743 104 646 233 743 "},"Ċ":{"ha":899,"x_min":0,"x_max":0,"o":"m 663 1271 b 747 1167 742 1271 763 1249 l 744 1156 b 624 1051 729 1074 703 1051 l 615 1051 b 528 1156 536 1051 515 1074 l 531 1167 b 654 1271 546 1249 572 1271 m 117 638 b 607 1007 157 876 333 1007 b 953 760 807 1007 922 925 b 906 685 963 719 950 697 l 763 636 b 693 674 718 624 703 631 b 567 764 681 736 644 764 b 389 619 460 764 406 718 l 343 367 b 471 222 326 268 364 222 b 631 313 544 222 597 253 b 713 350 657 357 674 365 l 857 294 b 881 219 893 282 901 257 b 432 -21 793 60 644 -21 b 136 89 297 -21 199 15 b 71 381 72 163 50 260 "},"ċ":{"ha":718,"x_min":0,"x_max":0,"o":"m 496 1022 b 581 918 575 1022 596 1000 l 578 907 b 457 803 565 828 539 803 l 449 803 b 363 907 369 803 347 825 l 365 918 b 488 1022 378 997 406 1022 m 69 450 b 457 743 104 646 233 743 b 733 549 622 743 713 665 b 685 475 740 508 728 490 l 561 433 b 492 471 515 418 501 428 b 415 526 483 508 458 526 b 326 450 367 526 336 501 l 296 271 b 356 196 286 222 310 196 b 449 253 394 196 425 215 b 531 288 471 293 490 303 l 657 247 b 679 169 694 235 703 210 b 319 -21 604 43 485 -21 b 43 297 97 -21 8 99 "},"Č":{"ha":899,"x_min":0,"x_max":0,"o":"m 903 1278 b 913 1229 946 1278 940 1251 l 749 1088 b 638 1047 704 1049 696 1047 l 599 1047 b 506 1088 544 1047 533 1050 l 390 1229 b 414 1278 368 1251 374 1278 l 531 1278 b 618 1247 586 1278 600 1274 l 651 1200 l 700 1247 b 797 1278 728 1274 743 1278 m 117 638 b 607 1007 157 876 333 1007 b 953 760 807 1007 922 925 b 906 685 963 719 950 697 l 763 636 b 693 674 718 624 703 631 b 567 764 681 736 644 764 b 389 619 460 764 406 718 l 343 367 b 471 222 326 268 364 222 b 631 313 544 222 597 253 b 713 350 657 357 674 365 l 857 294 b 881 219 893 282 901 257 b 432 -21 793 60 644 -21 b 136 89 297 -21 199 15 b 71 381 72 163 50 260 "},"č":{"ha":718,"x_min":0,"x_max":0,"o":"m 736 1026 b 746 979 782 1026 771 1001 l 581 838 b 471 796 536 799 529 796 l 432 796 b 338 838 378 796 369 800 l 224 979 b 247 1026 201 1001 207 1026 l 361 1026 b 447 997 417 1026 429 1021 l 481 949 l 531 996 b 628 1026 558 1022 574 1026 m 457 743 b 733 549 622 743 713 665 b 685 475 740 508 728 490 l 561 433 b 492 471 515 418 501 428 b 415 526 483 508 458 526 b 326 450 367 526 336 501 l 296 271 b 356 196 286 222 310 196 b 449 253 394 196 425 215 b 531 288 471 293 490 303 l 657 247 b 679 169 694 235 703 210 b 319 -21 604 43 485 -21 b 43 297 97 -21 8 99 l 69 450 b 457 743 104 646 233 743 "},"Ď":{"ha":940,"x_min":0,"x_max":0,"o":"m 842 1278 b 851 1229 885 1278 878 1253 l 688 1088 b 575 1047 642 1049 635 1047 l 538 1047 b 443 1088 483 1047 472 1050 l 328 1229 b 353 1278 307 1251 313 1278 l 469 1278 b 556 1247 525 1278 539 1274 l 590 1200 l 639 1247 b 736 1278 667 1274 682 1278 m 574 986 b 869 874 708 986 807 949 b 929 576 932 799 951 700 l 893 368 b 404 0 850 128 681 0 l 63 0 b 14 58 18 0 4 15 l 167 928 b 236 986 176 971 192 986 m 657 593 b 522 743 675 693 631 743 l 410 743 l 321 243 l 435 243 b 622 393 542 243 604 293 "},"ď":{"ha":910,"x_min":0,"x_max":0,"o":"m 71 456 b 435 743 106 656 225 743 b 528 739 442 743 472 742 l 569 975 b 632 1028 576 1014 593 1028 l 785 1028 b 828 975 825 1028 835 1014 l 675 107 b 604 28 668 61 654 49 b 310 -21 517 -4 418 -21 b 44 304 97 -21 10 106 m 1019 749 b 951 700 1004 710 990 700 l 885 700 b 849 747 853 700 842 715 l 899 969 b 964 1028 908 1015 921 1028 l 1064 1028 b 1110 969 1111 1028 1126 1008 m 488 513 b 428 519 467 517 447 519 b 326 443 369 519 336 494 l 297 272 b 364 204 289 226 311 204 b 431 210 390 204 413 206 b 436 217 432 211 435 213 "},"Đ":{"ha":979,"x_min":0,"x_max":0,"o":"m 610 986 b 906 875 744 986 843 949 b 965 579 968 800 988 701 l 929 371 b 436 0 886 132 714 0 l 97 0 b 49 58 53 0 42 15 l 111 411 l 47 411 b 19 447 21 411 14 418 l 38 553 b 79 589 42 576 56 589 l 143 589 l 203 928 b 271 986 210 971 226 986 m 693 593 b 558 743 710 694 674 743 l 444 743 l 418 589 l 532 589 b 558 553 558 589 564 581 l 540 447 b 500 411 535 418 526 411 l 386 411 l 357 243 l 469 243 b 658 393 576 243 640 293 "},"đ":{"ha":761,"x_min":0,"x_max":0,"o":"m 883 947 b 911 911 910 947 915 939 l 900 846 b 860 808 894 817 886 808 l 800 808 l 675 107 b 604 28 665 61 654 46 b 310 -21 517 -4 418 -21 b 43 297 94 -21 8 101 l 69 449 b 435 743 104 644 226 743 b 528 739 444 743 475 742 l 540 808 l 421 808 b 393 846 394 808 389 817 l 406 911 b 444 947 410 935 422 947 l 565 947 l 569 975 b 633 1028 576 1014 593 1028 l 785 1028 b 829 975 825 1028 836 1014 l 824 947 m 488 513 b 428 519 469 517 449 519 b 328 443 371 519 338 494 l 297 272 b 364 204 289 226 311 204 b 431 210 390 204 413 206 b 436 217 432 211 435 213 "},"Ē":{"ha":817,"x_min":0,"x_max":0,"o":"m 742 1239 b 783 1189 781 1239 790 1229 l 774 1131 b 714 1081 767 1090 753 1081 l 375 1081 b 335 1131 336 1081 328 1092 l 344 1189 b 403 1239 351 1228 365 1239 m 818 986 b 868 928 863 986 875 971 l 846 803 b 776 743 839 758 819 743 l 410 743 l 388 619 l 681 619 b 729 561 725 619 736 604 l 707 436 b 638 376 697 392 682 376 l 344 376 l 321 243 l 700 243 b 747 185 743 243 754 229 l 725 58 b 656 0 718 15 700 0 l 63 0 b 14 58 18 0 4 15 l 167 928 b 236 986 176 971 192 986 "},"ē":{"ha":753,"x_min":0,"x_max":0,"o":"m 313 828 b 272 878 274 828 265 838 l 282 936 b 340 986 289 975 306 986 l 679 986 b 721 936 719 986 728 976 l 711 878 b 651 828 704 838 692 828 m 465 743 b 767 486 672 743 789 651 b 457 285 746 358 635 285 b 300 293 408 285 357 288 l 294 264 b 369 175 285 204 310 175 b 490 225 418 175 458 192 b 571 239 517 253 531 260 l 661 193 b 674 113 694 175 699 149 b 336 -21 608 24 496 -21 b 43 306 99 -21 8 111 l 69 450 b 465 743 103 638 244 743 m 514 503 b 438 560 519 540 494 560 b 332 474 379 560 344 531 l 328 458 b 424 451 363 454 394 451 b 514 503 478 451 508 468 "},"Ĕ":{"ha":817,"x_min":0,"x_max":0,"o":"m 811 1194 b 539 1047 757 1096 665 1047 b 321 1194 417 1047 339 1100 b 351 1243 315 1217 325 1233 l 450 1278 b 500 1261 482 1289 490 1285 b 568 1215 511 1231 533 1215 b 651 1261 600 1215 628 1231 b 704 1279 669 1285 678 1289 l 794 1243 b 811 1194 818 1235 824 1218 m 818 986 b 868 928 863 986 875 971 l 846 803 b 776 743 839 758 819 743 l 410 743 l 388 619 l 681 619 b 729 561 725 619 736 604 l 707 436 b 638 376 697 392 682 376 l 344 376 l 321 243 l 700 243 b 747 185 743 243 754 229 l 725 58 b 656 0 718 15 700 0 l 63 0 b 14 58 18 0 4 15 l 167 928 b 236 986 176 971 192 986 "},"ĕ":{"ha":753,"x_min":0,"x_max":0,"o":"m 750 944 b 481 797 696 846 607 797 b 260 944 358 797 278 850 b 292 993 254 971 263 982 l 386 1026 b 438 1010 419 1038 426 1033 b 507 965 449 981 472 965 b 590 1011 542 965 569 981 b 643 1028 608 1033 615 1038 l 735 993 b 750 944 761 982 763 971 m 69 450 b 465 743 103 638 244 743 b 767 486 672 743 789 651 b 457 285 746 358 635 285 b 300 293 408 285 357 288 l 294 264 b 369 175 285 204 310 175 b 490 225 418 175 458 192 b 571 239 517 253 531 260 l 661 193 b 674 113 694 175 699 149 b 336 -21 608 24 496 -21 b 43 306 99 -21 8 111 m 514 503 b 438 560 519 540 494 560 b 332 474 379 560 344 531 l 328 458 b 424 451 363 454 394 451 b 514 503 478 451 508 468 "},"Ė":{"ha":817,"x_min":0,"x_max":0,"o":"m 582 1271 b 668 1167 661 1271 683 1249 l 665 1156 b 543 1051 650 1074 625 1051 l 535 1051 b 449 1156 456 1051 433 1074 l 451 1167 b 574 1271 464 1246 492 1271 m 818 986 b 868 928 863 986 875 971 l 846 803 b 776 743 839 758 819 743 l 410 743 l 388 619 l 681 619 b 729 561 725 619 736 604 l 707 436 b 638 376 697 392 682 376 l 344 376 l 321 243 l 700 243 b 747 185 743 243 754 229 l 725 58 b 656 0 718 15 700 0 l 63 0 b 14 58 18 0 4 15 l 167 928 b 236 986 176 971 192 986 "},"ė":{"ha":753,"x_min":0,"x_max":0,"o":"m 521 1022 b 607 918 603 1022 622 1000 l 604 907 b 483 803 589 825 563 803 l 475 803 b 388 907 393 803 372 825 l 390 918 b 513 1022 403 997 431 1022 m 69 450 b 465 743 103 638 244 743 b 767 486 672 743 789 651 b 457 285 746 358 635 285 b 300 293 408 285 357 288 l 294 264 b 369 175 285 204 310 175 b 490 225 418 175 458 192 b 571 239 517 253 531 260 l 661 193 b 674 113 694 175 699 149 b 336 -21 608 24 496 -21 b 43 306 99 -21 8 111 m 514 503 b 438 560 519 540 494 560 b 332 474 379 560 344 531 l 328 458 b 424 451 363 454 394 451 b 514 503 478 451 508 468 "},"Ę":{"ha":817,"x_min":0,"x_max":0,"o":"m 818 986 b 868 928 863 986 875 971 l 846 803 b 776 743 839 758 819 743 l 410 743 l 388 619 l 681 619 b 729 561 725 619 736 604 l 707 436 b 638 376 697 392 682 376 l 344 376 l 321 243 l 700 243 b 747 185 743 243 754 229 l 725 58 b 696 8 721 38 711 21 b 581 -160 621 -54 582 -111 b 601 -186 581 -178 588 -186 b 628 -178 608 -186 618 -183 b 660 -186 644 -168 656 -171 l 678 -257 b 663 -297 682 -275 676 -287 b 499 -342 619 -326 564 -342 b 367 -240 411 -342 368 -308 b 518 0 365 -162 417 -82 l 63 0 b 14 58 18 0 4 15 l 167 928 b 236 986 176 971 192 986 "},"ę":{"ha":754,"x_min":0,"x_max":0,"o":"m 69 450 b 465 743 103 638 244 743 b 767 486 672 743 789 651 b 457 285 746 358 635 285 b 300 293 408 285 357 288 l 294 264 b 369 175 285 204 310 175 b 490 225 418 175 458 192 b 571 239 517 253 531 260 l 661 193 b 674 113 694 175 699 149 b 632 68 663 99 649 83 b 472 -160 521 -42 474 -121 b 494 -186 472 -178 479 -186 b 521 -178 503 -186 511 -183 b 553 -186 538 -168 549 -171 l 569 -257 b 556 -297 574 -274 569 -287 b 392 -342 513 -326 457 -342 b 261 -240 306 -342 263 -308 b 386 -18 258 -167 300 -93 b 336 -21 365 -19 349 -21 b 43 306 99 -21 8 111 m 424 451 b 514 503 478 451 508 468 b 438 560 519 540 494 560 b 332 474 379 560 344 531 l 328 458 b 424 451 363 454 394 451 "},"Ě":{"ha":817,"x_min":0,"x_max":0,"o":"m 824 1278 b 832 1229 867 1278 860 1251 l 668 1088 b 618 1054 646 1069 629 1058 b 557 1047 606 1050 586 1047 l 519 1047 b 425 1088 465 1047 454 1050 l 310 1229 b 335 1278 288 1251 292 1278 l 451 1278 b 538 1247 507 1278 521 1274 l 572 1200 l 621 1247 b 718 1278 649 1274 664 1278 m 818 986 b 868 928 863 986 875 971 l 846 803 b 776 743 839 758 819 743 l 410 743 l 388 619 l 681 619 b 729 561 725 619 736 604 l 707 436 b 638 376 697 392 682 376 l 344 376 l 321 243 l 700 243 b 747 185 743 243 754 229 l 725 58 b 656 0 718 15 700 0 l 63 0 b 14 58 18 0 4 15 l 167 928 b 236 986 176 971 192 986 "},"ě":{"ha":753,"x_min":0,"x_max":0,"o":"m 763 1026 b 771 979 806 1026 797 1000 l 607 838 b 557 803 585 818 568 807 b 496 796 544 799 525 796 l 458 796 b 364 838 404 796 393 800 l 249 979 b 274 1026 228 1001 233 1026 l 386 1026 b 472 997 442 1026 456 1021 l 507 949 l 556 996 b 653 1026 583 1022 599 1026 m 465 743 b 767 486 672 743 789 651 b 457 285 746 358 635 285 b 300 293 408 285 357 288 l 294 264 b 369 175 285 204 310 175 b 490 225 418 175 458 192 b 571 239 517 253 531 260 l 661 193 b 674 113 694 175 699 149 b 336 -21 608 24 496 -21 b 43 306 99 -21 8 111 l 69 450 b 465 743 103 638 244 743 m 514 503 b 438 560 519 540 494 560 b 332 474 379 560 344 531 l 328 458 b 424 451 363 454 394 451 b 514 503 478 451 508 468 "},"Ĝ":{"ha":938,"x_min":0,"x_max":0,"o":"m 689 1292 b 779 1250 739 1292 751 1288 l 897 1108 b 868 1061 918 1086 911 1061 l 754 1061 b 667 1090 697 1061 682 1064 l 635 1140 l 583 1092 b 488 1061 556 1064 543 1061 l 376 1061 b 364 1108 333 1061 336 1086 l 529 1250 b 582 1285 553 1268 569 1281 b 644 1292 594 1289 615 1292 m 900 567 b 947 507 943 567 954 551 l 913 306 b 432 -21 878 104 703 -21 b 136 92 297 -21 199 17 b 74 388 74 167 53 265 l 118 639 b 607 1007 158 879 331 1007 b 957 760 808 1007 925 925 b 908 685 967 717 953 697 l 767 642 b 697 679 721 629 707 636 b 567 764 683 736 640 764 b 389 619 460 764 407 718 l 344 367 b 471 222 328 268 364 222 b 639 317 565 222 628 257 l 643 344 l 510 344 b 461 403 465 344 454 358 l 479 507 b 549 567 489 551 504 567 "},"ĝ":{"ha":761,"x_min":0,"x_max":0,"o":"m 243 797 b 231 846 200 797 201 824 l 397 988 b 449 1022 418 1006 436 1018 b 511 1028 461 1026 482 1028 l 549 1028 b 640 988 599 1028 608 1025 l 758 846 b 728 797 779 824 771 797 l 621 797 b 533 828 564 797 550 801 l 503 876 l 451 828 b 356 797 424 801 407 797 m 724 696 b 764 615 767 675 774 661 l 653 -12 b 272 -324 618 -219 490 -324 b -12 -179 126 -324 31 -275 b 28 -99 -29 -144 -15 -117 l 146 -44 b 218 -58 190 -28 203 -32 b 300 -108 238 -92 265 -108 b 392 -28 351 -108 382 -82 l 401 28 b 308 19 363 22 332 19 b 49 339 101 19 14 144 l 68 453 b 458 743 103 653 229 743 b 724 696 574 743 663 728 m 485 506 b 482 513 486 508 486 511 b 426 518 469 517 451 518 b 325 442 368 518 335 493 l 303 313 b 369 243 294 267 317 243 b 440 250 371 243 394 246 "},"Ğ":{"ha":938,"x_min":0,"x_max":0,"o":"m 892 1208 b 619 1061 838 1110 746 1061 b 401 1208 497 1061 419 1114 b 433 1257 396 1235 404 1246 l 532 1292 b 581 1275 564 1303 571 1299 b 649 1229 593 1244 615 1229 b 732 1275 682 1229 710 1244 b 785 1293 750 1299 758 1303 l 876 1257 b 892 1208 899 1249 904 1232 m 900 567 b 947 507 943 567 954 551 l 913 306 b 432 -21 878 104 703 -21 b 136 92 297 -21 199 17 b 74 388 74 167 53 265 l 118 639 b 607 1007 158 879 331 1007 b 957 760 808 1007 925 925 b 908 685 967 717 953 697 l 767 642 b 697 679 721 629 707 636 b 567 764 683 736 640 764 b 389 619 460 764 407 718 l 344 367 b 471 222 328 268 364 222 b 639 317 565 222 628 257 l 643 344 l 510 344 b 461 403 465 344 454 358 l 479 507 b 549 567 489 551 504 567 "},"ğ":{"ha":761,"x_min":0,"x_max":0,"o":"m 753 944 b 482 797 697 846 607 797 b 261 944 356 797 282 846 b 293 993 256 971 264 982 l 389 1026 b 439 1010 421 1038 429 1033 b 508 965 450 981 474 965 b 593 1011 543 965 571 981 b 644 1028 610 1033 618 1038 l 736 993 b 753 944 760 983 765 967 m 68 453 b 458 743 103 653 229 743 b 724 696 574 743 663 728 b 764 615 767 675 774 661 l 653 -12 b 272 -324 618 -219 490 -324 b -12 -179 126 -324 31 -275 b 28 -99 -29 -144 -15 -117 l 146 -44 b 218 -58 190 -28 203 -32 b 300 -108 238 -92 265 -108 b 392 -28 351 -108 382 -82 l 401 28 b 308 19 363 22 332 19 b 49 339 101 19 14 144 m 482 513 b 426 518 469 517 451 518 b 325 442 368 518 335 493 l 303 313 b 369 243 294 267 317 243 b 440 250 371 243 394 246 l 485 506 b 482 513 486 508 486 511 "},"Ġ":{"ha":938,"x_min":0,"x_max":0,"o":"m 663 1285 b 749 1181 744 1285 764 1263 l 746 1169 b 625 1065 731 1088 704 1065 l 617 1065 b 529 1169 535 1065 514 1088 l 532 1181 b 654 1285 544 1260 572 1285 m 900 567 b 947 507 943 567 954 551 l 913 306 b 432 -21 878 104 703 -21 b 136 92 297 -21 199 17 b 74 388 74 167 53 265 l 118 639 b 607 1007 158 879 331 1007 b 957 760 808 1007 925 925 b 908 685 967 717 953 697 l 767 642 b 697 679 721 629 707 636 b 567 764 683 736 640 764 b 389 619 460 764 407 718 l 344 367 b 471 222 328 268 364 222 b 639 317 565 222 628 257 l 643 344 l 510 344 b 461 403 465 344 454 358 l 479 507 b 549 567 489 551 504 567 "},"ġ":{"ha":761,"x_min":0,"x_max":0,"o":"m 524 1022 b 608 918 603 1022 624 1000 l 606 907 b 485 803 593 828 567 803 l 476 803 b 390 907 397 803 375 825 l 393 918 b 515 1022 406 997 433 1022 m 68 453 b 458 743 103 653 229 743 b 724 696 574 743 663 728 b 764 615 767 675 774 661 l 653 -12 b 272 -324 618 -219 490 -324 b -12 -179 126 -324 31 -275 b 28 -99 -29 -144 -15 -117 l 146 -44 b 218 -58 190 -28 203 -32 b 300 -108 238 -92 265 -108 b 392 -28 351 -108 382 -82 l 401 28 b 308 19 363 22 332 19 b 49 339 101 19 14 144 m 482 513 b 426 518 469 517 451 518 b 325 442 368 518 335 493 l 303 313 b 369 243 294 267 317 243 b 440 250 371 243 394 246 l 485 506 b 482 513 486 508 486 511 "},"Ģ":{"ha":938,"x_min":0,"x_max":0,"o":"m 900 567 b 947 507 943 567 954 551 l 913 306 b 432 -21 878 104 703 -21 b 136 92 297 -21 199 17 b 74 388 74 167 53 265 l 118 639 b 607 1007 158 879 331 1007 b 957 760 808 1007 925 925 b 908 685 967 717 953 697 l 767 642 b 697 679 721 629 707 636 b 567 764 683 736 640 764 b 389 619 460 764 407 718 l 344 367 b 471 222 328 268 364 222 b 639 317 565 222 628 257 l 643 344 l 510 344 b 461 403 465 344 454 358 l 479 507 b 549 567 489 551 504 567 m 444 -315 b 372 -361 429 -346 404 -361 l 285 -361 b 256 -319 256 -361 246 -347 l 313 -125 b 383 -67 324 -82 343 -67 l 508 -67 b 546 -125 553 -67 565 -86 "},"ģ":{"ha":761,"x_min":0,"x_max":0,"o":"m 463 1017 b 535 1063 483 1054 494 1063 l 615 1063 b 651 1022 649 1063 658 1051 l 603 858 b 533 796 588 808 578 796 l 417 796 b 371 858 365 796 350 817 m 68 453 b 458 743 103 653 229 743 b 724 696 574 743 663 728 b 764 615 767 675 774 661 l 653 -12 b 272 -324 618 -219 490 -324 b -12 -179 126 -324 31 -275 b 28 -99 -29 -144 -15 -117 l 146 -44 b 218 -58 190 -28 203 -32 b 300 -108 238 -92 265 -108 b 392 -28 351 -108 382 -82 l 401 28 b 308 19 363 22 332 19 b 49 339 101 19 14 144 m 482 513 b 426 518 469 517 451 518 b 325 442 368 518 335 493 l 303 313 b 369 243 294 267 317 243 b 440 250 371 243 394 246 l 485 506 b 482 513 486 508 486 511 "},"Ĥ":{"ha":961,"x_min":0,"x_max":0,"o":"m 665 1278 b 757 1236 715 1278 728 1274 l 875 1094 b 846 1047 896 1072 889 1047 l 732 1047 b 643 1076 675 1047 660 1050 l 613 1126 l 561 1078 b 465 1047 533 1050 521 1047 l 354 1047 b 340 1094 310 1047 317 1074 l 507 1236 b 621 1278 553 1275 561 1278 m 938 988 b 985 928 981 988 992 972 l 832 58 b 763 0 822 15 807 0 l 606 0 b 557 58 561 0 547 15 l 613 378 l 344 378 l 288 58 b 218 0 281 15 263 0 l 61 0 b 13 58 17 0 6 15 l 167 928 b 236 988 176 972 192 988 l 393 988 b 442 928 438 988 449 972 l 388 621 l 656 621 l 710 928 b 779 988 717 972 736 988 "},"ĥ":{"ha":775,"x_min":0,"x_max":0,"o":"m 74 1088 b 61 1135 28 1088 38 1113 l 228 1276 b 342 1318 274 1315 282 1318 l 379 1318 b 472 1276 429 1318 440 1314 l 589 1135 b 560 1088 610 1113 603 1088 l 451 1088 b 365 1117 394 1088 381 1090 l 333 1167 l 282 1118 b 186 1088 256 1092 240 1088 m 474 743 b 733 439 683 743 767 633 l 665 53 b 603 0 658 14 642 0 l 450 0 b 407 53 410 0 400 14 l 474 433 b 404 510 483 485 460 510 b 338 504 375 510 353 508 l 258 53 b 194 0 251 14 235 0 l 43 0 b -1 53 3 0 -8 14 l 161 975 b 225 1028 168 1014 185 1028 l 376 1028 b 421 975 417 1028 428 1014 l 378 738 b 474 743 411 742 443 743 "},"Ħ":{"ha":1000,"x_min":0,"x_max":0,"o":"m 1046 874 b 1072 838 1072 874 1078 865 l 1060 763 b 1019 726 1054 733 1046 726 l 967 726 l 850 58 b 781 0 840 15 825 0 l 624 0 b 575 58 579 0 565 15 l 631 378 l 363 378 l 306 58 b 236 0 299 15 281 0 l 79 0 b 31 58 35 0 24 15 l 149 726 l 97 726 b 71 763 71 726 65 733 l 83 838 b 125 874 88 861 101 874 l 175 874 l 185 928 b 254 988 194 972 210 988 l 411 988 b 460 928 456 988 467 972 l 450 874 l 719 874 l 728 928 b 797 988 738 972 753 988 l 954 988 b 1003 928 999 988 1010 972 l 994 874 m 424 726 l 406 621 l 674 621 l 692 726 "},"ħ":{"ha":775,"x_min":0,"x_max":0,"o":"m 378 738 b 474 743 411 742 443 743 b 733 439 683 743 767 633 l 665 53 b 603 0 658 14 642 0 l 450 0 b 407 53 410 0 400 14 l 474 433 b 404 510 483 485 460 510 b 338 504 375 510 353 508 l 258 53 b 194 0 251 14 235 0 l 43 0 b -1 53 3 0 -8 14 l 132 807 l 85 807 b 57 844 57 807 51 815 l 68 907 b 108 943 72 931 85 943 l 156 943 l 161 975 b 225 1028 168 1014 185 1028 l 376 1028 b 421 975 417 1028 428 1014 l 415 943 l 542 943 b 569 907 568 943 575 935 l 558 844 b 518 807 553 815 544 807 l 392 807 "},"Ĩ":{"ha":417,"x_min":0,"x_max":0,"o":"m 567 1263 b 593 1231 590 1263 597 1253 b 428 1060 571 1107 518 1060 b 319 1089 389 1060 353 1069 b 253 1118 285 1108 263 1118 b 228 1088 240 1118 232 1108 b 196 1060 224 1069 214 1060 l 111 1060 b 85 1092 89 1060 81 1071 b 247 1263 106 1218 160 1263 b 358 1235 288 1263 324 1253 b 425 1206 393 1215 415 1206 b 451 1236 439 1206 447 1215 b 482 1263 456 1254 465 1263 m 167 931 b 232 986 176 974 192 986 l 396 986 b 442 931 439 986 449 971 l 288 56 b 222 0 281 15 265 0 l 58 0 b 13 56 18 0 6 13 "},"ĩ":{"ha":374,"x_min":0,"x_max":0,"o":"m 468 1025 b 490 992 488 1025 494 1014 b 339 818 467 864 417 818 b 256 846 308 818 281 828 b 204 872 231 864 214 872 b 178 844 190 872 182 863 b 151 817 174 826 165 817 l 71 817 b 50 850 53 817 46 828 b 199 1025 71 967 119 1025 b 288 996 231 1025 261 1015 b 340 967 314 976 332 967 b 364 997 353 967 361 976 b 392 1025 368 1015 376 1025 m 322 722 b 367 669 363 722 374 708 l 258 53 b 194 0 251 14 235 0 l 43 0 b -1 53 3 0 -8 14 l 107 669 b 171 722 114 708 131 722 "},"Ī":{"ha":417,"x_min":0,"x_max":0,"o":"m 528 1239 b 569 1189 568 1239 576 1229 l 560 1131 b 500 1081 550 1090 540 1081 l 161 1081 b 121 1131 122 1081 114 1092 l 131 1189 b 189 1239 138 1228 151 1239 m 167 931 b 232 986 176 974 192 986 l 396 986 b 442 931 439 986 449 971 l 288 56 b 222 0 281 15 265 0 l 58 0 b 13 56 18 0 6 13 "},"ī":{"ha":374,"x_min":0,"x_max":0,"o":"m 428 982 b 456 933 457 982 463 972 l 446 875 b 401 825 439 835 431 825 l 114 825 b 86 875 85 825 79 835 l 96 933 b 142 982 103 971 115 982 m 322 722 b 367 669 363 722 374 708 l 258 53 b 194 0 251 14 235 0 l 43 0 b -1 53 3 0 -8 14 l 107 669 b 171 722 114 708 131 722 "},"Ĭ":{"ha":417,"x_min":0,"x_max":0,"o":"m 597 1194 b 325 1047 543 1096 451 1047 b 107 1194 204 1047 125 1100 b 139 1243 103 1217 113 1233 l 238 1278 b 286 1261 269 1289 276 1285 b 356 1215 299 1231 322 1215 b 438 1261 388 1215 415 1231 b 492 1279 456 1285 464 1286 l 582 1243 b 597 1194 606 1233 611 1218 m 167 931 b 232 986 176 974 192 986 l 396 986 b 442 931 439 986 449 971 l 288 56 b 222 0 281 15 265 0 l 58 0 b 13 56 18 0 6 13 "},"ĭ":{"ha":374,"x_min":0,"x_max":0,"o":"m 511 993 b 526 944 535 983 539 967 b 263 797 472 846 385 797 b 47 944 138 797 65 846 b 79 993 42 971 50 982 l 176 1028 b 228 1011 210 1038 217 1035 b 289 967 239 978 254 967 b 368 1011 319 967 346 982 b 419 1028 385 1033 393 1038 m 322 722 b 367 669 363 722 374 708 l 258 53 b 194 0 251 14 235 0 l 43 0 b -1 53 3 0 -8 14 l 107 669 b 171 722 114 708 131 722 "},"Į":{"ha":417,"x_min":0,"x_max":0,"o":"m 244 -251 b 229 -293 249 -269 243 -283 b 65 -342 182 -325 128 -342 b -67 -242 -19 -342 -64 -308 b 74 0 -68 -162 -21 -82 b 10 63 11 0 0 14 l 163 931 b 228 986 172 974 188 986 l 392 986 b 438 931 435 986 444 971 l 283 56 b 257 6 279 32 271 15 b 147 -161 186 -57 149 -112 b 168 -186 147 -178 154 -186 b 194 -178 175 -186 185 -183 b 226 -186 213 -168 224 -171 "},"į":{"ha":374,"x_min":0,"x_max":0,"o":"m 222 782 b 138 885 143 782 122 807 l 139 900 b 261 1003 154 978 183 1003 l 331 1003 b 415 900 410 1003 431 978 l 413 885 b 292 782 397 807 371 782 m 228 -251 b 214 -293 232 -269 228 -283 b 53 -342 167 -325 113 -342 b -79 -249 -32 -342 -75 -311 b 56 0 -83 -174 -37 -90 b 0 60 4 0 -10 15 l 107 669 b 171 722 114 708 131 722 l 322 722 b 367 669 363 722 374 708 l 258 53 b 236 10 254 32 246 17 b 135 -161 171 -54 136 -111 b 156 -186 135 -178 142 -186 b 181 -179 164 -186 172 -183 b 213 -187 199 -168 210 -171 "},"İ":{"ha":417,"x_min":0,"x_max":0,"o":"m 369 1271 b 454 1167 449 1271 469 1249 l 451 1156 b 331 1051 436 1074 410 1051 l 322 1051 b 235 1156 243 1051 222 1074 l 238 1167 b 361 1271 253 1249 279 1271 m 167 931 b 232 986 176 974 192 986 l 396 986 b 442 931 439 986 449 971 l 288 56 b 222 0 281 15 265 0 l 58 0 b 13 56 18 0 6 13 "},"ı":{"ha":374,"x_min":0,"x_max":0,"o":"m 322 722 b 367 669 363 722 374 708 l 258 53 b 194 0 251 14 235 0 l 43 0 b -1 53 3 0 -8 14 l 107 669 b 171 722 114 708 131 722 "},"Ĳ":{"ha":1231,"x_min":0,"x_max":0,"o":"m 1215 988 b 1261 929 1258 988 1268 972 l 1154 319 b 725 -21 1114 90 976 -21 b 399 215 538 -21 428 64 b 449 290 392 256 404 275 l 586 336 b 658 303 631 353 649 343 b 761 222 671 249 706 222 b 883 342 829 222 869 263 l 986 929 b 1054 988 996 972 1011 988 m 167 931 b 232 986 176 974 192 986 l 396 986 b 442 931 439 986 449 971 l 288 56 b 222 0 281 15 265 0 l 58 0 b 13 56 18 0 6 13 "},"ĳ":{"ha":750,"x_min":0,"x_max":0,"o":"m 331 1003 b 415 900 410 1003 431 978 l 413 885 b 292 782 397 807 371 782 l 222 782 b 138 885 143 782 122 807 l 139 900 b 261 1003 154 978 183 1003 m 706 1003 b 789 900 783 1003 804 978 l 788 885 b 665 782 772 807 744 782 l 596 782 b 511 885 518 782 499 807 l 514 900 b 636 1003 529 978 557 1003 m 322 722 b 367 669 363 722 374 708 l 258 53 b 194 0 251 14 235 0 l 43 0 b -1 53 3 0 -8 14 l 107 669 b 171 722 114 708 131 722 m 696 722 b 740 669 736 722 747 708 l 621 -14 b 214 -319 582 -224 449 -319 b 168 -265 171 -319 161 -306 l 189 -147 b 253 -92 196 -107 213 -92 b 364 3 317 -92 354 -60 l 482 669 b 546 722 489 708 506 722 "},"Ĵ":{"ha":808,"x_min":0,"x_max":0,"o":"m 793 1278 b 885 1236 843 1278 856 1274 l 1003 1094 b 974 1047 1024 1072 1014 1047 l 860 1047 b 771 1076 803 1047 788 1050 l 740 1126 l 689 1078 b 593 1047 661 1050 647 1047 l 482 1047 b 468 1094 439 1047 439 1072 l 635 1236 b 749 1278 681 1275 689 1278 m 793 988 b 840 929 836 988 847 972 l 733 319 b 304 -21 693 93 550 -21 b -22 215 117 -21 8 58 b 26 290 -29 256 -18 275 l 165 336 b 236 303 210 353 226 346 b 339 222 249 249 283 222 b 461 342 407 222 447 263 l 565 929 b 633 988 575 974 589 988 "},"ĵ":{"ha":375,"x_min":0,"x_max":0,"o":"m 319 1021 b 410 982 369 1021 381 1017 l 525 843 b 496 796 546 821 539 796 l 393 796 b 307 825 338 796 322 801 l 276 874 l 225 825 b 132 796 199 801 183 796 l 22 796 b 10 843 -24 796 -14 821 l 172 982 b 283 1021 215 1019 224 1021 m 321 722 b 367 669 361 722 374 708 l 246 -14 b -161 -319 208 -224 76 -319 b -206 -265 -201 -319 -212 -306 l -185 -147 b -121 -92 -178 -104 -161 -92 b -10 3 -57 -92 -19 -60 l 107 669 b 172 722 114 708 132 722 "},"Ķ":{"ha":908,"x_min":0,"x_max":0,"o":"m 840 68 b 792 0 853 29 836 0 l 642 0 b 529 58 568 0 546 10 l 451 307 b 368 376 436 356 418 376 l 344 376 l 289 58 b 219 0 279 15 264 0 l 63 0 b 14 58 18 0 4 15 l 167 928 b 236 986 176 971 192 986 l 393 986 b 442 928 438 986 451 971 l 388 619 l 406 619 l 418 619 l 672 935 b 719 978 690 957 706 971 b 792 986 733 983 757 986 l 953 986 b 976 925 996 986 1004 963 l 647 517 b 718 415 678 496 701 461 m 397 -315 b 325 -361 382 -346 357 -361 l 238 -361 b 208 -319 208 -361 199 -347 l 265 -125 b 336 -67 276 -82 296 -67 l 461 -67 b 499 -125 506 -67 518 -86 "},"ķ":{"ha":768,"x_min":0,"x_max":0,"o":"m 685 71 b 628 0 701 21 685 0 l 501 0 b 410 53 436 0 419 8 l 376 224 b 321 265 369 251 351 265 l 294 265 l 257 54 b 194 0 250 14 235 0 l 43 0 b -1 54 3 0 -8 14 l 161 974 b 225 1028 168 1014 185 1028 l 376 1028 b 419 974 417 1028 426 1014 l 332 472 l 353 472 l 361 472 l 513 672 b 621 722 542 713 561 722 l 744 722 b 776 654 801 722 811 700 l 572 385 b 606 322 588 369 599 349 m 340 -276 b 260 -325 319 -315 303 -325 l 181 -325 b 150 -285 147 -325 140 -317 l 193 -121 b 272 -60 206 -75 224 -60 l 390 -60 b 425 -121 436 -60 447 -81 "},"ĸ":{"ha":779,"x_min":0,"x_max":0,"o":"m 667 68 b 607 0 679 22 660 0 l 481 0 b 388 50 414 0 399 7 l 339 226 l 271 163 l 244 56 b 174 0 233 13 217 0 l 28 0 b -14 56 -15 0 -25 13 l 136 668 b 206 722 146 708 163 722 l 353 722 b 396 668 396 722 406 708 l 353 521 l 521 675 b 631 722 560 714 575 722 l 788 722 b 806 661 842 722 844 694 l 565 433 "},"Ĺ":{"ha":753,"x_min":0,"x_max":0,"o":"m 378 1269 b 469 1265 421 1290 451 1289 l 526 1185 b 508 1129 547 1157 543 1142 l 243 1051 b 179 1058 210 1040 190 1040 l 150 1104 b 163 1157 135 1128 139 1144 m 392 986 b 442 928 436 986 449 971 l 321 243 l 654 243 b 703 185 699 243 710 229 l 681 58 b 611 0 671 15 656 0 l 61 0 b 13 58 17 0 6 15 l 167 928 b 235 986 174 971 190 986 "},"ĺ":{"ha":378,"x_min":0,"x_max":0,"o":"m 361 1315 b 449 1311 404 1338 433 1336 l 503 1224 b 486 1168 522 1194 521 1176 l 211 1086 b 149 1090 178 1075 157 1076 l 118 1143 b 131 1196 101 1167 104 1183 m 260 53 b 196 0 253 14 236 0 l 44 0 b 0 53 4 0 -7 14 l 163 975 b 226 1028 169 1014 186 1028 l 378 1028 b 422 975 418 1028 429 1014 "},"Ļ":{"ha":753,"x_min":0,"x_max":0,"o":"m 392 986 b 442 928 436 986 449 971 l 321 243 l 654 243 b 703 185 699 243 710 229 l 681 58 b 611 0 671 15 656 0 l 61 0 b 13 58 17 0 6 15 l 167 928 b 235 986 174 971 190 986 m 321 -315 b 250 -361 306 -346 282 -361 l 161 -361 b 132 -319 132 -361 125 -349 l 190 -125 b 261 -67 201 -82 221 -67 l 386 -67 b 422 -125 432 -67 443 -86 "},"ļ":{"ha":378,"x_min":0,"x_max":0,"o":"m 258 53 b 196 0 251 14 236 0 l 43 0 b 0 53 3 0 -7 14 l 163 975 b 225 1028 169 1014 185 1028 l 378 1028 b 421 975 418 1028 428 1014 m 122 -286 b 42 -333 101 -324 85 -333 l -43 -333 b -74 -294 -76 -333 -81 -324 l -28 -119 b 51 -58 -15 -71 3 -58 l 174 -58 b 210 -119 222 -58 232 -79 "},"Ľ":{"ha":764,"x_min":0,"x_max":0,"o":"m 392 986 b 442 928 436 986 449 971 l 321 243 l 654 243 b 703 185 699 243 710 229 l 681 58 b 611 0 671 15 656 0 l 61 0 b 13 58 17 0 6 15 l 167 928 b 235 986 174 971 190 986 m 686 713 b 614 665 665 675 653 665 l 533 665 b 507 701 504 665 497 674 l 572 932 b 643 986 588 975 603 986 l 768 986 b 806 932 817 986 826 967 "},"ľ":{"ha":476,"x_min":0,"x_max":0,"o":"m 621 776 b 556 728 603 738 594 728 l 481 728 b 450 768 451 728 442 742 l 503 974 b 564 1029 514 1017 524 1029 l 669 1029 b 717 974 718 1029 735 1011 m 260 53 b 196 0 253 14 236 0 l 44 0 b 0 53 4 0 -7 14 l 163 975 b 226 1028 169 1014 186 1028 l 378 1028 b 422 975 418 1028 429 1014 "},"Ŀ":{"ha":757,"x_min":0,"x_max":0,"o":"m 392 986 b 442 928 436 986 449 971 l 321 243 l 654 243 b 703 185 699 243 710 229 l 681 58 b 611 0 671 15 656 0 l 61 0 b 13 58 17 0 6 15 l 167 928 b 235 986 174 971 190 986 m 633 694 b 719 592 713 694 732 669 l 710 539 b 589 436 694 461 667 436 l 539 436 b 453 539 460 436 438 461 l 463 592 b 583 694 478 669 506 694 "},"ŀ":{"ha":668,"x_min":0,"x_max":0,"o":"m 260 53 b 196 0 253 14 236 0 l 44 0 b 0 53 4 0 -7 14 l 163 975 b 226 1028 169 1014 186 1028 l 378 1028 b 422 975 418 1028 429 1014 m 597 661 b 688 553 679 661 700 635 l 676 496 b 549 388 661 414 632 388 l 496 388 b 406 496 413 388 390 414 l 415 553 b 544 661 428 635 461 661 "},"Ł":{"ha":811,"x_min":0,"x_max":0,"o":"m 719 243 b 768 185 764 243 775 229 l 746 58 b 676 0 739 15 721 0 l 126 0 b 79 58 83 0 72 15 l 129 344 l 69 321 b 15 338 42 308 24 314 l -6 408 b 19 458 -12 432 -4 449 l 158 517 l 232 928 b 300 986 239 971 257 986 l 458 986 b 507 928 501 986 514 971 l 456 639 l 624 708 b 679 690 653 721 671 714 l 700 621 b 674 571 707 597 697 581 l 426 468 l 386 243 "},"ł":{"ha":521,"x_min":0,"x_max":0,"o":"m 568 611 b 544 560 576 590 568 572 l 414 497 l 336 53 b 272 0 329 14 313 0 l 121 0 b 76 53 81 0 69 14 l 131 358 l 92 339 b 35 353 63 325 44 329 l 11 413 b 33 464 3 433 10 451 l 160 525 l 239 975 b 303 1028 246 1014 263 1028 l 454 1028 b 499 975 494 1028 506 1014 l 443 663 l 488 685 b 543 671 514 699 533 694 "},"Ń":{"ha":975,"x_min":0,"x_max":0,"o":"m 661 1269 b 753 1265 703 1292 733 1290 l 808 1185 b 790 1129 829 1157 825 1142 l 525 1051 b 463 1058 492 1040 474 1040 l 433 1104 b 444 1157 415 1131 418 1142 m 950 986 b 1000 928 994 986 1007 971 l 846 58 b 776 0 839 15 821 0 l 624 0 b 572 28 599 0 582 10 l 418 357 b 374 485 397 401 383 444 b 346 643 364 525 354 578 l 335 643 b 318 285 342 510 336 390 l 278 58 b 208 0 268 15 253 0 l 63 0 b 14 58 18 0 4 15 l 167 928 b 236 986 176 971 192 986 l 394 986 b 449 958 421 986 439 976 l 613 603 b 685 349 636 554 660 469 l 696 349 b 681 525 686 429 681 488 b 696 700 679 563 685 621 l 736 928 b 804 986 743 971 760 986 "},"ń":{"ha":772,"x_min":0,"x_max":0,"o":"m 503 1019 b 594 1017 546 1043 576 1042 l 653 939 b 636 883 675 911 674 896 l 372 800 b 308 804 339 789 318 790 l 276 850 b 289 903 261 874 265 890 m 167 692 b 471 743 260 726 361 743 b 731 438 681 743 764 632 l 663 53 b 600 0 656 14 639 0 l 447 0 b 404 53 407 0 397 14 l 471 433 b 401 510 481 488 458 510 b 339 504 378 510 357 508 b 333 499 338 503 335 501 l 256 53 b 192 0 249 14 232 0 l 40 0 b -4 53 0 0 -11 14 l 94 608 b 167 692 104 654 117 674 "},"Ņ":{"ha":975,"x_min":0,"x_max":0,"o":"m 950 986 b 1000 928 994 986 1007 971 l 846 58 b 776 0 839 15 821 0 l 624 0 b 572 28 599 0 582 10 l 418 357 b 374 485 397 401 383 444 b 346 643 364 525 354 578 l 335 643 b 318 285 342 510 336 390 l 278 58 b 208 0 268 15 253 0 l 63 0 b 14 58 18 0 4 15 l 167 928 b 236 986 176 971 192 986 l 394 986 b 449 958 421 986 439 976 l 613 603 b 685 349 636 554 660 469 l 696 349 b 681 525 686 429 681 488 b 696 700 679 563 685 621 l 736 928 b 804 986 743 971 760 986 m 433 -315 b 363 -361 418 -346 394 -361 l 274 -361 b 244 -319 244 -361 238 -349 l 301 -125 b 374 -67 314 -82 333 -67 l 497 -67 b 535 -125 543 -67 556 -86 "},"ņ":{"ha":772,"x_min":0,"x_max":0,"o":"m 167 692 b 471 743 260 726 361 743 b 731 438 681 743 764 632 l 663 53 b 600 0 656 14 639 0 l 447 0 b 404 53 407 0 397 14 l 471 433 b 401 510 481 488 458 510 b 339 504 378 510 357 508 b 333 499 338 503 335 501 l 256 53 b 192 0 249 14 232 0 l 40 0 b -4 53 0 0 -11 14 l 94 608 b 167 692 104 654 117 674 m 335 -268 b 253 -317 313 -307 293 -317 l 172 -317 b 144 -276 140 -317 135 -308 l 190 -107 b 269 -46 203 -61 224 -46 l 388 -46 b 422 -107 433 -46 444 -67 "},"Ň":{"ha":975,"x_min":0,"x_max":0,"o":"m 892 1278 b 901 1229 935 1278 931 1253 l 738 1088 b 626 1047 693 1049 685 1047 l 589 1047 b 494 1088 533 1047 524 1050 l 379 1229 b 403 1278 357 1251 363 1278 l 519 1278 b 607 1247 575 1278 589 1274 l 640 1200 l 689 1247 b 786 1278 717 1274 732 1278 m 950 986 b 1000 928 994 986 1007 971 l 846 58 b 776 0 839 15 821 0 l 624 0 b 572 28 599 0 582 10 l 418 357 b 374 485 397 401 383 444 b 346 643 364 525 354 578 l 335 643 b 318 285 342 510 336 390 l 278 58 b 208 0 268 15 253 0 l 63 0 b 14 58 18 0 4 15 l 167 928 b 236 986 176 971 192 986 l 394 986 b 449 958 421 986 439 976 l 613 603 b 685 349 636 554 660 469 l 696 349 b 681 525 686 429 681 488 b 696 700 679 563 685 621 l 736 928 b 804 986 743 971 760 986 "},"ň":{"ha":772,"x_min":0,"x_max":0,"o":"m 738 1026 b 746 979 781 1026 772 1000 l 582 838 b 532 803 560 818 543 807 b 471 796 519 799 500 796 l 433 796 b 339 838 379 796 368 800 l 224 979 b 249 1026 201 1001 206 1026 l 361 1026 b 447 997 417 1026 431 1021 l 481 949 l 531 996 b 628 1026 558 1022 574 1026 m 471 743 b 731 438 681 743 764 632 l 663 53 b 600 0 656 14 639 0 l 447 0 b 404 53 407 0 397 14 l 471 433 b 401 510 481 488 458 510 b 339 504 378 510 357 508 b 333 499 338 503 335 501 l 256 53 b 192 0 249 14 232 0 l 40 0 b -4 53 0 0 -11 14 l 94 608 b 167 692 104 654 117 674 b 471 743 260 726 361 743 "},"ŉ":{"ha":772,"x_min":0,"x_max":0,"o":"m 215 779 b 144 743 192 747 182 743 l 43 743 b 18 779 15 743 7 756 l 110 976 b 176 1022 128 1014 136 1022 l 325 1022 b 360 968 371 1022 383 1000 m 167 692 b 471 743 260 726 361 743 b 731 438 681 743 764 632 l 663 53 b 600 0 656 14 639 0 l 447 0 b 404 53 407 0 397 14 l 471 433 b 401 510 481 488 458 510 b 339 504 378 510 357 508 b 333 499 338 503 335 501 l 256 53 b 192 0 249 14 232 0 l 40 0 b -4 53 0 0 -11 14 l 94 608 b 167 692 104 654 117 674 "},"Ŋ":{"ha":975,"x_min":0,"x_max":0,"o":"m 950 986 b 1000 928 994 986 1007 971 l 833 -14 b 426 -319 796 -224 664 -319 b 382 -265 386 -319 375 -306 l 403 -147 b 467 -92 410 -104 426 -92 b 575 3 528 -92 564 -60 l 576 15 l 418 357 b 372 485 397 403 382 444 b 346 643 363 524 354 576 l 335 643 b 318 285 342 510 336 390 l 278 58 b 208 0 268 15 253 0 l 63 0 b 14 58 18 0 4 15 l 167 928 b 236 986 176 971 192 986 l 393 986 b 446 958 419 986 436 976 l 611 603 b 654 482 632 558 647 508 b 682 349 658 458 676 376 l 693 349 b 678 525 683 429 678 488 b 693 700 676 563 682 621 l 733 928 b 801 986 740 971 758 986 "},"ŋ":{"ha":772,"x_min":0,"x_max":0,"o":"m 167 692 b 471 743 260 726 361 743 b 731 438 681 743 764 632 l 650 -19 b 250 -319 613 -226 483 -319 b 206 -265 210 -319 199 -306 l 226 -149 b 289 -96 232 -110 249 -96 b 393 -3 349 -96 383 -65 l 471 433 b 401 510 481 488 458 510 b 339 504 378 510 357 508 b 333 499 338 503 335 501 l 256 53 b 192 0 249 14 232 0 l 40 0 b -4 53 0 0 -11 14 l 94 608 b 167 692 104 654 117 674 "},"Ō":{"ha":947,"x_min":0,"x_max":0,"o":"m 821 1253 b 864 1203 861 1253 871 1243 l 853 1144 b 793 1094 846 1104 833 1094 l 454 1094 b 414 1144 415 1094 407 1104 l 425 1203 b 482 1253 432 1242 447 1253 m 115 632 b 604 1007 158 872 331 1007 b 901 896 739 1007 838 969 b 964 601 964 822 985 724 l 921 350 b 432 -21 878 111 706 -21 b 135 89 297 -21 197 15 b 71 381 72 161 50 258 m 694 631 b 567 764 710 718 663 764 b 390 631 465 764 406 719 l 342 356 b 471 222 326 268 372 222 b 646 356 572 222 631 267 "},"ō":{"ha":764,"x_min":0,"x_max":0,"o":"m 308 828 b 268 878 269 828 261 838 l 278 936 b 336 986 285 975 301 986 l 675 986 b 717 936 715 986 724 976 l 707 878 b 647 828 700 838 688 828 m 463 743 b 754 429 685 743 788 622 l 728 274 b 331 -21 693 83 557 -21 b 40 293 110 -21 7 100 l 67 449 b 463 743 101 639 239 743 m 499 446 b 425 521 508 496 485 521 b 325 446 368 521 335 496 l 296 276 b 368 203 286 228 310 203 b 469 276 425 203 460 228 "},"Ŏ":{"ha":947,"x_min":0,"x_max":0,"o":"m 892 1208 b 619 1061 835 1110 744 1061 b 400 1208 497 1061 421 1114 b 432 1257 396 1231 406 1247 l 531 1292 b 579 1275 563 1303 569 1299 b 649 1229 592 1244 614 1229 b 731 1275 681 1229 708 1244 b 785 1293 749 1299 758 1303 l 875 1257 b 892 1208 899 1247 904 1232 m 115 632 b 604 1007 158 872 331 1007 b 901 896 739 1007 838 969 b 964 601 964 822 985 724 l 921 350 b 432 -21 878 111 706 -21 b 135 89 297 -21 197 15 b 71 381 72 161 50 258 m 694 631 b 567 764 710 718 663 764 b 390 631 465 764 406 719 l 342 356 b 471 222 326 268 372 222 b 646 356 572 222 631 267 "},"ŏ":{"ha":764,"x_min":0,"x_max":0,"o":"m 746 944 b 476 797 692 846 603 797 b 256 944 354 797 274 850 b 288 993 250 971 258 982 l 382 1026 b 433 1010 415 1038 422 1033 b 503 965 444 981 468 965 b 586 1011 538 965 565 981 b 639 1028 604 1033 611 1038 l 731 993 b 746 944 757 982 758 971 m 67 449 b 463 743 101 639 239 743 b 754 429 685 743 788 622 l 728 274 b 331 -21 693 83 557 -21 b 40 293 110 -21 7 100 m 499 446 b 425 521 508 496 485 521 b 325 446 368 521 335 496 l 296 276 b 368 203 286 228 310 203 b 469 276 425 203 460 228 "},"Ő":{"ha":947,"x_min":0,"x_max":0,"o":"m 472 1072 b 464 1125 440 1078 443 1104 l 592 1260 b 689 1296 619 1292 651 1303 l 718 1289 b 778 1293 736 1299 756 1300 l 867 1268 b 871 1208 903 1257 901 1231 l 688 1083 b 622 1063 663 1065 640 1058 l 583 1072 b 532 1061 565 1060 549 1057 m 604 1007 b 901 896 739 1007 838 969 b 964 601 964 822 985 724 l 921 350 b 432 -21 878 111 706 -21 b 135 89 297 -21 197 15 b 71 381 72 161 50 258 l 115 632 b 604 1007 158 872 331 1007 m 694 631 b 567 764 710 718 663 764 b 390 631 465 764 406 719 l 342 356 b 471 222 326 268 372 222 b 646 356 572 222 631 267 "},"ő":{"ha":764,"x_min":0,"x_max":0,"o":"m 326 803 b 318 856 294 808 297 835 l 444 990 b 542 1026 474 1022 506 1033 l 571 1019 b 631 1024 589 1029 608 1031 l 722 999 b 725 939 757 988 757 963 l 542 815 b 475 794 508 793 497 788 l 436 803 b 386 792 418 790 401 788 m 463 743 b 754 429 685 743 788 622 l 728 274 b 331 -21 693 83 557 -21 b 40 293 110 -21 7 100 l 67 449 b 463 743 101 639 239 743 m 499 446 b 425 521 508 496 485 521 b 325 446 368 521 335 496 l 296 276 b 368 203 286 228 310 203 b 469 276 425 203 460 228 "},"Œ":{"ha":1228,"x_min":0,"x_max":0,"o":"m 1135 243 b 1183 185 1179 243 1190 229 l 1161 58 b 1092 0 1154 15 1136 0 l 603 0 b 428 -21 557 -14 499 -21 b 133 90 293 -21 196 17 b 72 385 71 164 51 263 l 117 635 b 608 1007 157 875 335 1007 b 767 986 668 1007 721 1000 l 1254 986 b 1303 928 1299 986 1313 971 l 1281 803 b 1211 743 1274 758 1256 743 l 919 743 l 899 619 l 1117 619 b 1165 561 1161 619 1172 604 l 1143 436 b 1074 376 1133 392 1118 376 l 856 376 l 832 243 m 342 356 b 471 222 326 268 372 222 b 557 239 503 222 532 228 l 646 747 b 567 764 625 758 599 764 b 390 631 465 764 406 719 "},"œ":{"ha":1099,"x_min":0,"x_max":0,"o":"m 636 669 b 850 743 697 718 768 743 b 1111 493 1049 743 1139 653 b 814 285 1089 361 979 285 b 672 293 771 285 724 288 l 667 264 b 733 174 657 204 679 174 b 843 225 776 174 813 190 b 917 239 865 254 878 260 l 1003 192 b 1011 111 1033 174 1036 146 b 697 -21 951 24 846 -21 b 518 42 619 -21 560 0 b 314 -21 463 0 394 -21 b 43 297 103 -21 10 103 l 69 454 b 442 743 104 647 228 743 b 636 669 526 743 592 718 m 865 503 b 804 560 872 538 854 560 b 708 476 754 560 718 528 l 706 460 b 790 453 736 456 764 453 b 865 503 836 453 861 469 m 467 443 b 408 521 475 494 456 521 b 328 450 363 521 336 497 l 296 272 b 351 203 288 226 306 203 b 436 276 401 203 429 228 "},"Ŕ":{"ha":918,"x_min":0,"x_max":0,"o":"m 614 1269 b 706 1265 656 1292 686 1290 l 761 1185 b 743 1129 782 1157 778 1142 l 478 1051 b 415 1058 444 1040 426 1040 l 386 1104 b 397 1157 368 1131 371 1142 m 632 986 b 918 640 843 986 957 853 b 719 365 896 514 829 422 b 746 306 728 349 736 329 l 829 68 b 781 0 842 29 825 0 l 631 0 b 514 67 558 0 529 18 l 458 257 b 372 328 442 311 428 328 l 336 328 l 289 58 b 219 0 279 15 264 0 l 63 0 b 14 58 18 0 4 15 l 167 928 b 236 986 176 971 192 986 m 633 653 b 558 743 644 708 618 743 l 410 743 l 376 560 l 526 560 b 633 653 583 560 624 596 "},"ŕ":{"ha":501,"x_min":0,"x_max":0,"o":"m 400 1019 b 492 1017 443 1043 474 1042 l 551 939 b 535 883 572 911 569 896 l 269 800 b 206 804 236 789 215 790 l 175 850 b 188 903 157 876 160 890 m 457 743 l 500 743 b 544 690 540 743 551 729 l 524 572 b 461 518 517 532 501 518 l 408 518 b 343 513 383 518 361 517 b 335 504 339 513 336 510 l 256 53 b 192 0 249 14 232 0 l 40 0 b -4 53 0 0 -11 14 l 96 615 b 168 699 106 664 118 682 b 457 743 240 725 336 739 "},"Ŗ":{"ha":918,"x_min":0,"x_max":0,"o":"m 632 986 b 918 640 843 986 957 853 b 719 365 896 514 829 422 b 746 306 728 349 736 329 l 829 68 b 781 0 842 29 825 0 l 631 0 b 514 67 558 0 529 18 l 458 257 b 372 328 442 311 428 328 l 336 328 l 289 58 b 219 0 279 15 264 0 l 63 0 b 14 58 18 0 4 15 l 167 928 b 236 986 176 971 192 986 m 633 653 b 558 743 644 708 618 743 l 410 743 l 376 560 l 526 560 b 633 653 583 560 624 596 m 404 -315 b 333 -361 389 -346 365 -361 l 244 -361 b 215 -319 215 -361 208 -349 l 272 -125 b 344 -67 285 -82 304 -67 l 468 -67 b 506 -125 514 -67 526 -86 "},"ŗ":{"ha":501,"x_min":0,"x_max":0,"o":"m 456 743 l 500 743 b 543 690 539 743 550 729 l 524 572 b 461 518 514 532 500 518 l 408 518 b 343 513 383 518 361 517 b 333 504 339 513 335 510 l 254 53 b 192 0 247 14 232 0 l 39 0 b -4 53 0 0 -11 14 l 94 615 b 167 699 104 661 118 681 b 456 743 239 725 335 739 m 125 -274 b 44 -321 104 -311 88 -321 l -36 -321 b -65 -282 -69 -321 -75 -314 l -19 -115 b 60 -54 -7 -69 11 -54 l 176 -54 b 211 -115 222 -54 233 -75 "},"Ř":{"ha":918,"x_min":0,"x_max":0,"o":"m 844 1278 b 854 1229 888 1278 883 1253 l 690 1088 b 579 1047 646 1049 638 1047 l 542 1047 b 447 1088 486 1047 476 1050 l 332 1229 b 356 1278 310 1251 315 1278 l 472 1278 b 560 1247 528 1278 542 1274 l 593 1200 l 642 1247 b 739 1278 669 1274 685 1278 m 632 986 b 918 640 843 986 957 853 b 719 365 896 514 829 422 b 746 306 728 349 736 329 l 829 68 b 781 0 842 29 825 0 l 631 0 b 514 67 558 0 529 18 l 458 257 b 372 328 442 311 428 328 l 336 328 l 289 58 b 219 0 279 15 264 0 l 63 0 b 14 58 18 0 4 15 l 167 928 b 236 986 176 971 192 986 m 633 653 b 558 743 644 708 618 743 l 410 743 l 376 560 l 526 560 b 633 653 583 560 624 596 "},"ř":{"ha":501,"x_min":0,"x_max":0,"o":"m 635 1026 b 643 979 678 1026 669 1000 l 479 838 b 429 803 457 818 440 807 b 368 796 417 799 397 796 l 331 796 b 236 838 276 796 265 800 l 121 979 b 146 1026 100 1001 106 1026 l 258 1026 b 344 997 314 1026 328 1021 l 379 949 l 428 996 b 525 1026 456 1022 471 1026 m 500 743 b 544 690 540 743 551 729 l 524 572 b 461 518 517 532 501 518 l 408 518 b 343 513 383 518 361 517 b 335 504 339 513 336 510 l 256 53 b 192 0 249 14 232 0 l 40 0 b -4 53 0 0 -11 14 l 96 615 b 168 699 106 664 118 682 b 457 743 240 725 336 739 "},"Ś":{"ha":892,"x_min":0,"x_max":0,"o":"m 624 1283 b 715 1279 667 1304 697 1303 l 772 1199 b 754 1143 793 1171 789 1156 l 489 1065 b 425 1072 456 1054 436 1054 l 396 1118 b 408 1171 381 1142 385 1158 m 101 719 b 556 1007 135 904 293 1007 b 899 801 754 1007 854 936 b 857 729 911 761 903 747 l 719 675 b 650 704 679 658 665 664 b 522 776 633 753 590 776 b 378 704 435 776 386 753 b 546 619 368 650 424 635 b 854 271 701 596 901 526 b 386 -21 818 76 663 -21 b 4 194 175 -21 32 56 b 56 271 -3 232 15 257 l 194 318 b 271 288 239 333 258 326 b 414 214 288 239 335 214 b 578 293 513 214 568 240 b 429 375 588 343 535 360 b 233 428 353 386 304 394 b 150 488 199 444 171 464 b 101 719 110 533 85 615 "},"ś":{"ha":717,"x_min":0,"x_max":0,"o":"m 479 1019 b 571 1017 522 1043 553 1042 l 631 939 b 614 883 651 911 649 896 l 349 800 b 285 804 315 789 294 790 l 254 850 b 267 903 236 876 239 890 m 65 521 b 413 743 92 669 207 743 b 701 594 581 743 663 690 b 660 518 714 560 700 535 l 554 474 b 485 493 506 454 503 469 b 389 531 465 518 433 531 b 296 493 322 531 300 521 b 401 447 290 464 313 454 b 667 213 614 429 693 361 b 300 -21 640 63 511 -21 b -3 144 122 -21 21 35 b 43 217 -10 179 6 203 l 161 256 b 231 235 210 268 215 263 b 326 190 243 206 275 190 b 435 233 393 190 429 204 b 311 285 440 268 418 278 b 65 521 129 296 38 367 "},"Ŝ":{"ha":892,"x_min":0,"x_max":0,"o":"m 640 1292 b 731 1250 690 1292 703 1288 l 849 1108 b 819 1061 869 1086 863 1061 l 706 1061 b 618 1090 649 1061 633 1064 l 586 1140 l 535 1092 b 439 1061 507 1064 494 1061 l 328 1061 b 315 1108 285 1061 288 1086 l 481 1250 b 533 1285 504 1268 521 1281 b 596 1292 546 1289 567 1292 m 101 719 b 556 1007 135 904 293 1007 b 899 801 754 1007 854 936 b 857 729 911 761 903 747 l 719 675 b 650 704 679 658 665 664 b 522 776 633 753 590 776 b 378 704 435 776 386 753 b 546 619 368 650 424 635 b 854 271 701 596 901 526 b 386 -21 818 76 663 -21 b 4 194 175 -21 32 56 b 56 271 -3 232 15 257 l 194 318 b 271 288 239 333 258 326 b 414 214 288 239 335 214 b 578 293 513 214 568 240 b 429 375 588 343 535 360 b 233 428 353 386 304 394 b 150 488 199 444 171 464 b 101 719 110 533 85 615 "},"ŝ":{"ha":717,"x_min":0,"x_max":0,"o":"m 707 846 b 678 797 728 824 718 797 l 571 797 b 483 828 514 797 499 801 l 451 876 l 400 828 b 304 797 372 801 358 797 l 192 797 b 179 846 147 797 154 824 l 347 988 b 460 1028 392 1026 400 1028 l 499 1028 b 590 988 549 1028 558 1025 m 413 743 b 701 594 581 743 663 690 b 660 518 714 560 700 535 l 554 474 b 485 493 506 454 503 469 b 389 531 465 518 433 531 b 296 493 322 531 300 521 b 401 447 290 464 313 454 b 667 213 614 429 693 361 b 300 -21 640 63 511 -21 b -3 144 122 -21 21 35 b 43 217 -10 179 6 203 l 161 256 b 231 235 210 268 215 263 b 326 190 243 206 275 190 b 435 233 393 190 429 204 b 311 285 440 268 418 278 b 65 521 129 296 38 367 b 413 743 92 669 207 743 "},"Ş":{"ha":892,"x_min":0,"x_max":0,"o":"m 101 719 b 556 1007 135 904 293 1007 b 899 801 754 1007 854 936 b 857 729 911 761 903 747 l 719 675 b 650 704 679 658 665 664 b 522 776 633 753 590 776 b 378 704 435 776 386 753 b 546 619 368 650 424 635 b 854 271 701 596 901 526 b 490 -15 825 103 703 8 l 460 -72 l 468 -72 b 561 -217 550 -74 585 -137 b 335 -349 535 -310 444 -349 b 231 -328 301 -349 267 -342 b 201 -285 207 -318 197 -304 l 211 -226 b 258 -204 215 -196 232 -189 b 333 -225 283 -218 308 -225 b 388 -193 365 -225 383 -214 b 332 -162 392 -171 376 -162 l 304 -162 b 290 -125 278 -162 274 -150 l 354 -21 b 4 194 158 -11 31 63 b 56 271 -3 232 15 257 l 194 318 b 271 288 239 333 258 326 b 414 214 288 239 335 214 b 578 293 513 214 568 240 b 429 375 588 343 535 360 b 233 428 353 386 304 394 b 150 488 199 444 171 464 b 101 719 110 533 85 615 "},"ş":{"ha":717,"x_min":0,"x_max":0,"o":"m 65 521 b 413 743 92 669 207 743 b 701 594 581 743 663 690 b 660 518 714 560 700 535 l 554 474 b 485 493 506 454 503 469 b 389 531 465 518 433 531 b 296 493 322 531 300 521 b 401 447 290 464 313 454 b 667 213 614 429 693 361 b 397 -14 646 89 551 8 l 367 -69 l 375 -69 b 468 -214 457 -71 492 -135 b 242 -347 442 -308 351 -347 b 138 -325 210 -347 175 -340 b 108 -282 114 -315 104 -301 l 118 -224 b 165 -201 122 -193 139 -186 b 240 -222 190 -215 215 -222 b 294 -190 272 -222 290 -211 b 239 -160 299 -169 281 -160 l 211 -160 b 196 -122 188 -160 182 -147 l 260 -19 b -3 144 106 -11 18 43 b 43 217 -10 179 6 203 l 161 256 b 231 235 210 268 215 263 b 326 190 243 206 275 190 b 435 233 393 190 429 204 b 311 285 440 268 418 278 b 65 521 129 296 38 367 "},"Š":{"ha":892,"x_min":0,"x_max":0,"o":"m 856 1292 b 865 1243 899 1292 892 1267 l 701 1101 b 589 1061 656 1063 649 1061 l 551 1061 b 457 1101 497 1061 486 1064 l 342 1243 b 367 1292 321 1265 326 1292 l 483 1292 b 569 1261 539 1292 553 1288 l 604 1214 l 653 1261 b 750 1292 681 1288 696 1292 m 101 719 b 556 1007 135 904 293 1007 b 899 801 754 1007 854 936 b 857 729 911 761 903 747 l 719 675 b 650 704 679 658 665 664 b 522 776 633 753 590 776 b 378 704 435 776 386 753 b 546 619 368 650 424 635 b 854 271 701 596 901 526 b 386 -21 818 76 663 -21 b 4 194 175 -21 32 56 b 56 271 -3 232 15 257 l 194 318 b 271 288 239 333 258 326 b 414 214 288 239 335 214 b 578 293 513 214 568 240 b 429 375 588 343 535 360 b 233 428 353 386 304 394 b 150 488 199 444 171 464 b 101 719 110 533 85 615 "},"š":{"ha":717,"x_min":0,"x_max":0,"o":"m 714 1026 b 722 979 757 1026 749 1000 l 558 838 b 508 803 536 818 519 807 b 447 796 496 799 476 796 l 410 796 b 315 838 356 796 344 800 l 200 979 b 225 1026 179 1001 185 1026 l 338 1026 b 424 997 393 1026 407 1021 l 458 949 l 507 996 b 604 1026 535 1022 550 1026 m 413 743 b 701 594 581 743 663 690 b 660 518 714 560 700 535 l 554 474 b 485 493 506 454 503 469 b 389 531 465 518 433 531 b 296 493 322 531 300 521 b 401 447 290 464 313 454 b 667 213 614 429 693 361 b 300 -21 640 63 511 -21 b -3 144 122 -21 21 35 b 43 217 -10 179 6 203 l 161 256 b 231 235 210 268 215 263 b 326 190 243 206 275 190 b 435 233 393 190 429 204 b 311 285 440 268 418 278 b 65 521 129 296 38 367 b 413 743 92 669 207 743 "},"Ť":{"ha":836,"x_min":0,"x_max":0,"o":"m 818 1278 b 828 1229 861 1278 857 1253 l 664 1088 b 614 1054 642 1069 625 1058 b 553 1047 601 1050 582 1047 l 515 1047 b 421 1088 461 1047 450 1050 l 306 1229 b 331 1278 283 1251 288 1278 l 447 1278 b 533 1247 503 1278 515 1274 l 567 1200 l 615 1247 b 713 1278 643 1274 661 1278 m 867 986 b 915 928 911 986 925 971 l 893 803 b 824 743 886 758 868 743 l 618 743 l 497 58 b 428 0 488 15 472 0 l 271 0 b 222 58 226 0 213 15 l 343 743 l 136 743 b 88 803 92 743 81 758 l 110 928 b 179 986 119 971 135 986 "},"ť":{"ha":554,"x_min":0,"x_max":0,"o":"m 682 818 b 604 771 661 781 643 771 l 525 771 b 497 810 493 771 490 778 l 538 969 b 614 1028 549 1014 568 1028 l 735 1028 b 769 969 782 1028 793 1008 m 415 889 b 460 836 454 889 465 875 l 439 722 l 536 722 b 579 669 575 722 586 708 l 561 565 b 499 511 554 525 538 511 l 403 511 l 365 307 b 443 210 353 233 372 210 b 489 156 486 210 496 196 l 467 36 b 403 -18 460 -4 446 -18 b 104 289 157 -22 64 61 l 143 511 l 83 511 b 39 565 43 511 32 525 l 58 669 b 119 722 65 708 81 722 l 181 722 l 200 836 b 263 889 207 875 224 889 "},"Ŧ":{"ha":854,"x_min":0,"x_max":0,"o":"m 875 986 b 924 928 919 986 933 971 l 901 803 b 832 743 894 758 876 743 l 626 743 l 586 517 l 719 517 b 747 481 746 517 753 508 l 731 388 b 689 350 725 358 717 350 l 557 350 l 506 58 b 436 0 496 15 481 0 l 279 0 b 231 58 235 0 221 15 l 282 350 l 150 350 b 122 388 122 350 117 358 l 138 481 b 179 517 142 504 156 517 l 311 517 l 351 743 l 144 743 b 96 803 100 743 89 758 l 118 928 b 188 986 128 971 143 986 "},"ŧ":{"ha":556,"x_min":0,"x_max":0,"o":"m 414 889 b 458 836 454 889 465 876 l 439 722 l 535 722 b 579 669 575 722 585 710 l 560 565 b 499 513 553 525 538 513 l 401 513 l 389 439 l 483 439 b 510 403 510 439 515 431 l 500 339 b 460 301 494 310 486 301 l 364 301 l 363 294 b 442 211 351 226 375 211 b 488 156 482 211 494 199 l 467 36 b 403 -18 460 -4 443 -18 b 103 290 157 -22 64 61 l 106 301 l 44 301 b 18 339 18 301 13 310 l 29 403 b 69 439 33 426 47 439 l 129 439 l 143 513 l 82 513 b 39 565 42 513 32 525 l 57 669 b 119 722 64 710 79 722 l 179 722 l 200 836 b 263 889 207 876 222 889 "},"Ũ":{"ha":961,"x_min":0,"x_max":0,"o":"m 864 1263 b 890 1231 888 1263 894 1253 b 725 1060 868 1107 818 1060 b 617 1089 686 1060 650 1069 b 551 1118 583 1108 561 1118 b 525 1088 538 1118 529 1108 b 494 1060 522 1069 513 1060 l 408 1060 b 382 1092 386 1060 378 1071 b 544 1263 403 1218 457 1263 b 657 1235 585 1263 622 1253 b 724 1206 692 1215 714 1206 b 749 1236 736 1206 744 1215 b 781 1263 753 1254 763 1263 m 356 350 b 478 222 340 265 382 222 b 643 350 574 222 628 265 l 746 928 b 814 986 753 971 771 986 l 972 986 b 1021 928 1015 986 1028 971 l 917 340 b 440 -21 874 106 713 -21 b 147 93 306 -21 208 17 b 88 386 86 168 67 265 l 183 928 b 253 986 193 971 208 986 l 410 986 b 458 928 454 986 468 971 "},"ũ":{"ha":772,"x_min":0,"x_max":0,"o":"m 718 1015 b 746 983 742 1015 750 1004 b 579 813 724 857 672 813 b 471 842 540 813 504 822 b 404 869 438 860 415 869 b 379 839 392 869 383 860 b 347 813 376 821 365 813 l 263 813 b 236 844 242 813 232 824 b 399 1015 258 968 314 1015 b 511 986 439 1015 476 1006 b 578 957 546 967 568 957 b 603 988 592 957 600 967 b 635 1015 607 1006 617 1015 m 743 722 b 788 669 783 722 794 708 l 689 114 b 617 31 679 68 667 49 b 313 -21 524 -4 422 -21 b 56 293 106 -21 21 97 l 121 669 b 185 722 128 708 144 722 l 336 722 b 381 669 376 722 388 708 l 314 289 b 382 213 304 235 325 213 b 439 218 401 213 421 214 b 451 231 446 219 450 224 l 528 669 b 592 722 535 708 551 722 "},"Ū":{"ha":961,"x_min":0,"x_max":0,"o":"m 826 1239 b 868 1189 865 1239 875 1229 l 858 1131 b 799 1081 851 1090 838 1081 l 460 1081 b 419 1131 421 1081 413 1092 l 429 1189 b 488 1239 436 1228 450 1239 m 356 350 b 478 222 340 265 382 222 b 643 350 574 222 628 265 l 746 928 b 814 986 753 971 771 986 l 972 986 b 1021 928 1015 986 1028 971 l 917 340 b 440 -21 874 106 713 -21 b 147 93 306 -21 208 17 b 88 386 86 168 67 265 l 183 928 b 253 986 193 971 208 986 l 410 986 b 458 928 454 986 468 971 "},"ū":{"ha":772,"x_min":0,"x_max":0,"o":"m 679 986 b 721 936 719 986 728 976 l 710 878 b 651 828 704 838 692 828 l 313 828 b 271 878 274 828 265 838 l 282 936 b 340 986 289 975 303 986 m 743 722 b 788 669 783 722 794 708 l 689 114 b 617 31 679 68 667 49 b 313 -21 524 -4 422 -21 b 56 293 106 -21 21 97 l 121 669 b 185 722 128 708 144 722 l 336 722 b 381 669 376 722 388 708 l 314 289 b 382 213 304 235 325 213 b 439 218 401 213 421 214 b 451 231 446 219 450 224 l 528 669 b 592 722 535 708 551 722 "},"Ŭ":{"ha":961,"x_min":0,"x_max":0,"o":"m 896 1194 b 624 1047 842 1096 750 1047 b 406 1194 501 1047 424 1100 b 436 1243 400 1217 410 1233 l 535 1278 b 585 1261 567 1289 575 1285 b 653 1215 596 1231 618 1215 b 736 1261 685 1215 713 1231 b 789 1279 754 1285 763 1289 l 879 1243 b 896 1194 903 1235 908 1218 m 356 350 b 478 222 340 265 382 222 b 643 350 574 222 628 265 l 746 928 b 814 986 753 971 771 986 l 972 986 b 1021 928 1015 986 1028 971 l 917 340 b 440 -21 874 106 713 -21 b 147 93 306 -21 208 17 b 88 386 86 168 67 265 l 183 928 b 253 986 193 971 208 986 l 410 986 b 458 928 454 986 468 971 "},"ŭ":{"ha":772,"x_min":0,"x_max":0,"o":"m 750 944 b 479 797 696 846 606 797 b 258 944 353 797 279 846 b 292 993 253 971 260 982 l 386 1026 b 436 1010 418 1038 426 1033 b 506 965 449 981 471 965 b 590 1011 540 965 568 981 b 642 1028 608 1033 615 1038 l 735 993 b 750 944 757 983 763 967 m 743 722 b 788 669 783 722 794 708 l 689 114 b 617 31 679 68 667 49 b 313 -21 524 -4 422 -21 b 56 293 106 -21 21 97 l 121 669 b 185 722 128 708 144 722 l 336 722 b 381 669 376 722 388 708 l 314 289 b 382 213 304 235 325 213 b 439 218 401 213 421 214 b 451 231 446 219 450 224 l 528 669 b 592 722 535 708 551 722 "},"Ů":{"ha":961,"x_min":0,"x_max":0,"o":"m 500 1069 b 471 1188 471 1099 461 1138 b 543 1307 481 1238 504 1278 b 681 1350 581 1336 626 1350 b 829 1188 785 1350 846 1286 b 624 1026 811 1089 728 1026 b 500 1069 569 1026 529 1040 m 700 1188 b 661 1238 706 1217 689 1238 b 599 1188 626 1238 606 1221 b 644 1140 594 1160 611 1140 b 700 1188 672 1140 696 1160 m 356 350 b 478 222 340 265 382 222 b 643 350 574 222 628 265 l 746 928 b 814 986 753 971 771 986 l 972 986 b 1021 928 1015 986 1028 971 l 917 340 b 440 -21 874 106 713 -21 b 147 93 306 -21 208 17 b 88 386 86 168 67 265 l 183 928 b 253 986 193 971 208 986 l 410 986 b 458 928 454 986 468 971 "},"ů":{"ha":772,"x_min":0,"x_max":0,"o":"m 315 904 b 525 1067 332 1004 418 1067 b 672 904 631 1067 690 1003 b 468 743 656 806 572 743 b 315 904 361 743 297 804 m 544 904 b 504 953 549 933 532 953 b 443 904 469 953 449 936 b 488 856 438 876 454 856 b 544 904 515 856 539 875 m 743 722 b 788 669 783 722 794 708 l 689 114 b 617 31 679 68 667 49 b 313 -21 524 -4 422 -21 b 56 293 106 -21 21 97 l 121 669 b 185 722 128 708 144 722 l 336 722 b 381 669 376 722 388 708 l 314 289 b 382 213 304 235 325 213 b 439 218 401 213 421 214 b 451 231 446 219 450 224 l 528 669 b 592 722 535 708 551 722 "},"Ű":{"ha":961,"x_min":0,"x_max":0,"o":"m 478 1058 b 469 1111 444 1065 446 1089 l 596 1246 b 693 1282 625 1278 657 1289 l 722 1275 b 782 1279 740 1285 760 1286 l 872 1254 b 876 1194 908 1243 907 1217 l 692 1069 b 628 1049 667 1051 646 1044 l 588 1058 b 538 1047 571 1046 554 1043 m 972 986 b 1021 928 1015 986 1028 971 l 917 340 b 440 -21 874 106 713 -21 b 147 93 306 -21 208 17 b 88 386 86 168 67 265 l 183 928 b 253 986 193 971 208 986 l 410 986 b 458 928 454 986 468 971 l 356 350 b 478 222 340 265 382 222 b 643 350 574 222 628 265 l 746 928 b 814 986 753 971 771 986 "},"ű":{"ha":772,"x_min":0,"x_max":0,"o":"m 331 803 b 322 856 297 810 299 833 l 449 990 b 546 1026 478 1022 510 1033 l 575 1021 b 635 1024 593 1029 614 1031 l 725 999 b 729 939 761 988 760 961 l 544 815 b 479 794 513 793 501 788 l 440 803 b 390 792 422 790 406 788 m 743 722 b 788 669 783 722 794 708 l 689 114 b 617 31 679 68 667 49 b 313 -21 524 -4 422 -21 b 56 293 106 -21 21 97 l 121 669 b 185 722 128 708 144 722 l 336 722 b 381 669 376 722 388 708 l 314 289 b 382 213 304 235 325 213 b 439 218 401 213 421 214 b 451 231 446 219 450 224 l 528 669 b 592 722 535 708 551 722 "},"Ų":{"ha":961,"x_min":0,"x_max":0,"o":"m 972 986 b 1021 928 1015 986 1028 971 l 917 340 b 756 65 897 228 843 136 b 590 -160 635 -33 592 -115 b 611 -186 590 -178 597 -186 b 638 -178 619 -186 628 -183 b 669 -186 654 -168 665 -171 l 688 -257 b 672 -297 692 -275 686 -287 b 508 -342 629 -326 574 -342 b 376 -240 421 -342 378 -308 b 506 -18 375 -167 418 -93 b 440 -21 490 -19 469 -21 b 147 93 306 -21 208 17 b 88 386 86 168 67 265 l 183 928 b 253 986 193 971 208 986 l 410 986 b 458 928 454 986 468 971 l 356 350 b 478 222 340 265 382 222 b 643 350 574 222 628 265 l 746 928 b 814 986 753 971 771 986 "},"ų":{"ha":772,"x_min":0,"x_max":0,"o":"m 743 722 b 788 669 783 722 794 708 l 689 114 b 665 57 685 89 678 69 b 529 -157 572 -39 529 -119 b 550 -182 528 -174 535 -182 b 576 -174 558 -182 567 -179 b 608 -182 594 -164 606 -167 l 625 -251 b 610 -293 629 -269 624 -283 b 446 -342 563 -325 508 -342 b 314 -249 360 -342 315 -311 b 449 -11 313 -174 358 -94 b 313 -21 403 -18 358 -21 b 56 296 106 -21 21 100 l 121 669 b 185 722 128 708 144 722 l 336 722 b 381 669 376 722 388 708 l 314 289 b 382 213 304 235 325 213 b 439 218 401 213 421 214 b 451 231 446 219 450 224 l 528 669 b 592 722 535 708 551 722 "},"Ŵ":{"ha":1299,"x_min":0,"x_max":0,"o":"m 838 1278 b 929 1236 888 1278 900 1274 l 1047 1094 b 1018 1047 1068 1072 1061 1047 l 904 1047 b 815 1076 847 1047 832 1050 l 785 1126 l 733 1078 b 638 1047 706 1050 693 1047 l 526 1047 b 513 1094 482 1047 489 1074 l 679 1236 b 793 1278 725 1275 733 1278 m 1346 986 b 1374 929 1386 986 1392 968 l 1007 49 b 926 0 990 10 969 0 l 754 0 b 690 46 714 0 692 11 l 674 369 b 692 619 671 453 676 536 l 679 619 b 606 369 661 533 636 450 l 475 49 b 393 0 458 10 436 0 l 226 0 b 163 46 186 0 164 15 l 107 929 b 154 986 103 969 114 986 l 322 986 b 393 935 374 986 392 978 l 392 571 b 367 325 390 492 382 410 l 376 325 b 446 571 394 418 418 500 l 596 935 b 682 986 613 978 636 986 l 831 986 b 900 935 879 986 899 975 l 919 571 b 904 325 924 508 918 426 l 915 325 b 978 571 928 393 949 475 l 1101 935 b 1189 986 1117 975 1138 986 "},"ŵ":{"ha":1072,"x_min":0,"x_max":0,"o":"m 374 797 b 361 846 331 797 332 824 l 528 988 b 579 1022 549 1006 567 1018 b 642 1028 592 1026 613 1028 l 679 1028 b 771 988 729 1028 739 1025 l 888 846 b 858 797 910 824 901 797 l 751 797 b 664 828 694 797 681 801 l 633 876 l 582 828 b 485 797 553 801 539 797 m 1068 722 b 1101 661 1118 722 1124 710 l 836 47 b 756 0 821 15 794 0 l 613 0 b 547 47 569 0 549 15 l 535 233 b 542 400 533 283 538 360 l 544 431 l 535 431 b 471 233 515 354 494 289 l 392 47 b 311 0 379 15 351 0 l 183 0 b 118 47 143 0 121 15 l 63 661 b 118 722 57 710 68 722 l 246 722 b 325 669 311 722 325 714 l 326 485 b 310 306 326 442 317 357 l 304 268 l 315 268 b 375 485 336 364 357 436 l 450 668 b 549 722 467 713 483 722 l 638 722 b 715 669 703 722 715 714 l 726 485 b 715 306 728 440 721 356 l 710 268 l 721 268 b 776 485 739 358 758 431 l 842 668 b 940 722 857 713 875 722 "},"Ŷ":{"ha":935,"x_min":0,"x_max":0,"o":"m 663 1278 b 754 1236 713 1278 725 1274 l 872 1094 b 843 1047 893 1072 883 1047 l 729 1047 b 640 1076 672 1047 657 1050 l 610 1126 l 558 1078 b 463 1047 531 1050 517 1047 l 351 1047 b 338 1094 308 1047 308 1072 l 504 1236 b 618 1278 550 1275 558 1278 m 1006 986 b 1025 928 1050 986 1049 960 l 608 382 l 553 58 b 483 0 543 15 526 0 l 325 0 b 278 58 282 0 271 15 l 333 382 l 111 928 b 150 986 96 960 110 986 l 311 986 b 418 935 385 986 401 981 l 517 651 l 721 935 b 843 986 753 981 771 986 "},"ŷ":{"ha":775,"x_min":0,"x_max":0,"o":"m 238 797 b 225 846 194 797 196 824 l 392 988 b 443 1022 413 1006 431 1018 b 506 1028 456 1026 476 1028 l 543 1028 b 635 988 593 1028 603 1025 l 751 846 b 722 797 774 824 765 797 l 615 797 b 528 828 558 797 544 801 l 497 876 l 446 828 b 349 797 417 801 403 797 m 740 722 b 783 669 781 722 790 708 l 665 -7 b 276 -319 628 -215 497 -319 b 0 -179 125 -319 43 -274 b 39 -99 -15 -144 -3 -117 l 157 -44 b 231 -62 206 -28 214 -33 b 311 -108 249 -93 275 -108 b 403 -28 363 -108 393 -82 l 411 26 b 317 21 386 22 354 21 b 60 340 110 21 25 144 l 118 669 b 181 722 125 708 140 722 l 333 722 b 376 669 374 722 383 708 l 317 331 b 388 254 307 279 331 254 b 453 260 413 254 435 256 l 525 669 b 588 722 532 708 549 722 "},"Ÿ":{"ha":935,"x_min":0,"x_max":0,"o":"m 488 1269 b 574 1171 565 1269 586 1244 l 569 1153 b 450 1054 557 1079 528 1054 l 439 1054 b 357 1153 363 1054 344 1079 l 361 1171 b 478 1269 374 1247 400 1269 m 786 1269 b 871 1171 864 1269 883 1247 l 867 1153 b 749 1054 854 1079 826 1054 l 739 1054 b 654 1153 661 1054 642 1079 l 658 1171 b 776 1269 671 1244 700 1269 m 1006 986 b 1025 928 1050 986 1049 960 l 608 382 l 553 58 b 483 0 543 15 526 0 l 325 0 b 278 58 282 0 271 15 l 333 382 l 111 928 b 150 986 96 960 110 986 l 311 986 b 418 935 385 986 401 981 l 517 651 l 721 935 b 843 986 753 981 771 986 "},"Ź":{"ha":846,"x_min":0,"x_max":0,"o":"m 600 1269 b 692 1265 643 1290 674 1289 l 749 1185 b 731 1129 769 1157 765 1142 l 465 1051 b 401 1058 432 1040 413 1040 l 372 1104 b 385 1157 357 1128 361 1144 m 850 986 b 899 928 894 986 908 971 l 885 844 b 854 783 881 822 869 801 l 369 243 l 726 243 b 775 185 771 243 782 229 l 753 58 b 683 0 743 15 728 0 l 25 0 b -22 58 -18 0 -29 15 l -8 143 b 21 201 -4 165 6 185 l 506 743 l 164 743 b 115 803 119 743 108 758 l 138 928 b 206 986 144 971 163 986 "},"ź":{"ha":683,"x_min":0,"x_max":0,"o":"m 465 1019 b 557 1017 507 1043 538 1042 l 615 939 b 599 883 638 911 633 896 l 333 800 b 271 804 300 789 279 790 l 239 850 b 251 903 221 876 225 888 m 567 219 b 610 168 607 219 617 207 l 590 53 b 528 0 583 14 568 0 l 19 0 b -25 53 -21 0 -32 14 l -6 161 b 25 217 -1 183 8 201 l 332 503 l 115 503 b 72 554 75 503 65 515 l 92 669 b 154 722 99 708 114 722 l 649 722 b 692 669 688 722 699 708 l 672 561 b 633 497 668 539 656 518 l 321 219 "},"Ż":{"ha":846,"x_min":0,"x_max":0,"o":"m 592 1271 b 676 1167 671 1271 692 1249 l 674 1156 b 553 1051 658 1074 632 1051 l 544 1051 b 457 1156 465 1051 444 1074 l 460 1167 b 583 1271 475 1249 501 1271 m 850 986 b 899 928 894 986 908 971 l 885 844 b 854 783 881 822 869 801 l 369 243 l 726 243 b 775 185 771 243 782 229 l 753 58 b 683 0 743 15 728 0 l 25 0 b -22 58 -18 0 -29 15 l -8 143 b 21 201 -4 165 6 185 l 506 743 l 164 743 b 115 803 119 743 108 758 l 138 928 b 206 986 144 971 163 986 "},"ż":{"ha":683,"x_min":0,"x_max":0,"o":"m 458 1022 b 543 918 538 1022 558 1000 l 540 907 b 419 803 528 828 501 803 l 411 803 b 325 907 332 803 310 825 l 328 918 b 450 1022 340 997 368 1022 m 567 219 b 610 168 607 219 617 207 l 590 53 b 528 0 583 14 568 0 l 19 0 b -25 53 -21 0 -32 14 l -6 161 b 25 217 -1 183 8 201 l 332 503 l 115 503 b 72 554 75 503 65 515 l 92 669 b 154 722 99 708 114 722 l 649 722 b 692 669 688 722 699 708 l 672 561 b 633 497 668 539 656 518 l 321 219 "},"Ž":{"ha":846,"x_min":0,"x_max":0,"o":"m 832 1278 b 842 1229 875 1278 869 1251 l 678 1088 b 567 1047 633 1049 625 1047 l 528 1047 b 435 1088 474 1047 463 1050 l 319 1229 b 343 1278 297 1251 303 1278 l 460 1278 b 547 1247 515 1278 529 1274 l 581 1200 l 629 1247 b 726 1278 657 1274 672 1278 m 850 986 b 899 928 894 986 908 971 l 885 844 b 854 783 881 822 869 801 l 369 243 l 726 243 b 775 185 771 243 782 229 l 753 58 b 683 0 743 15 728 0 l 25 0 b -22 58 -18 0 -29 15 l -8 143 b 21 201 -4 165 6 185 l 506 743 l 164 743 b 115 803 119 743 108 758 l 138 928 b 206 986 144 971 163 986 "},"ž":{"ha":683,"x_min":0,"x_max":0,"o":"m 699 1026 b 708 979 744 1026 733 1001 l 543 838 b 433 796 499 799 492 796 l 394 796 b 300 838 340 796 332 800 l 186 979 b 210 1026 164 1001 169 1026 l 324 1026 b 410 997 379 1026 392 1021 l 443 949 l 493 996 b 590 1026 521 1022 536 1026 m 649 722 b 692 669 688 722 699 708 l 672 561 b 633 497 668 539 656 518 l 321 219 l 567 219 b 610 168 607 219 617 207 l 590 53 b 528 0 583 14 568 0 l 19 0 b -25 53 -21 0 -32 14 l -6 161 b 25 217 -1 183 8 201 l 332 503 l 115 503 b 72 554 75 503 65 515 l 92 669 b 154 722 99 708 114 722 "},"ſ":{"ha":461,"x_min":0,"x_max":0,"o":"m 176 726 b 583 1028 214 933 349 1028 b 628 974 624 1028 635 1014 l 610 872 b 546 817 603 829 586 817 b 435 722 483 817 447 785 l 317 53 b 253 0 310 14 293 0 l 103 0 b 58 53 63 0 51 14 l 139 511 l 93 511 b 50 565 54 511 43 525 l 68 669 b 131 722 75 708 90 722 l 176 722 "},"ƒ":{"ha":639,"x_min":0,"x_max":0,"o":"m 236 711 b 642 1028 276 922 411 1028 b 692 974 682 1028 696 1014 l 681 856 b 622 800 679 815 663 800 b 493 693 539 800 508 771 l 472 589 l 576 589 b 625 535 617 589 629 575 l 614 414 b 557 361 613 375 596 361 l 429 361 l 364 22 b -43 -306 322 -196 186 -306 b -92 -251 -83 -306 -96 -292 l -81 -133 b -22 -78 -79 -93 -62 -78 b 107 29 60 -78 92 -44 l 171 361 l 79 361 b 31 414 40 361 29 374 l 42 535 b 100 589 46 575 60 589 l 214 589 "},"Ǻ":{"ha":954,"x_min":0,"x_max":0,"o":"m 701 1367 b 788 1365 742 1382 771 1382 l 840 1303 b 825 1263 860 1282 854 1269 l 581 1204 b 521 1208 549 1197 529 1199 l 490 1250 b 513 1294 475 1268 482 1282 m 413 1013 b 647 1183 433 1124 525 1183 b 817 999 765 1183 835 1111 b 749 897 810 958 788 925 l 918 57 b 868 0 926 19 910 0 l 722 0 b 628 58 651 0 632 14 l 615 158 l 314 158 l 264 58 b 153 0 243 14 221 0 l 3 0 b -25 57 -37 0 -47 19 l 443 897 b 413 1013 414 925 403 964 m 671 1004 b 626 1061 678 1038 660 1061 b 556 1004 586 1061 563 1042 b 607 947 551 971 569 947 b 671 1004 639 947 665 971 m 567 539 b 569 704 561 604 564 665 l 572 733 l 558 733 b 497 540 547 667 526 603 l 417 376 l 589 376 "},"ǻ":{"ha":757,"x_min":0,"x_max":0,"o":"m 539 1274 b 625 1272 579 1290 607 1290 l 679 1214 b 664 1172 699 1193 693 1179 l 417 1111 b 357 1114 385 1103 364 1104 l 328 1147 b 339 1188 313 1164 317 1178 m 324 933 b 526 1090 340 1032 422 1090 b 671 933 628 1090 688 1028 b 472 776 654 838 574 776 b 324 933 367 776 306 838 m 546 933 b 507 981 551 963 535 981 b 447 933 475 981 453 963 b 490 886 443 906 461 886 b 546 933 518 886 542 906 m 69 450 b 458 743 104 651 229 743 b 725 696 574 743 663 728 b 764 615 768 674 774 661 l 669 78 b 606 13 663 39 649 24 b 304 -21 514 -10 414 -21 b 43 300 97 -21 8 104 m 481 513 b 426 518 467 517 449 518 b 326 442 365 518 336 497 l 296 272 b 363 203 289 226 311 203 b 435 210 392 203 417 206 l 486 503 b 481 513 488 508 486 511 "},"Ǽ":{"ha":1258,"x_min":0,"x_max":0,"o":"m 1065 1269 b 1157 1265 1108 1290 1139 1289 l 1214 1185 b 1196 1129 1235 1157 1231 1142 l 931 1051 b 867 1058 897 1040 878 1040 l 838 1104 b 850 1157 822 1128 826 1144 m 1143 243 b 1192 185 1188 243 1199 229 l 1169 58 b 1100 0 1160 15 1144 0 l 629 0 b 581 58 585 0 574 15 l 597 146 l 317 146 l 242 51 b 124 0 208 11 192 0 l -28 0 b -56 57 -71 0 -82 22 l 661 938 b 742 986 693 976 704 986 l 1263 986 b 1311 928 1307 986 1321 971 l 1289 803 b 1219 743 1282 758 1264 743 l 949 743 l 926 619 l 1125 619 b 1172 561 1168 619 1179 604 l 1150 436 b 1082 376 1143 392 1125 376 l 883 376 l 860 243 m 694 642 l 490 356 l 633 356 "},"ǽ":{"ha":1071,"x_min":0,"x_max":0,"o":"m 667 1019 b 758 1017 710 1043 740 1042 l 817 939 b 800 883 839 911 838 896 l 536 800 b 472 804 503 789 482 790 l 440 850 b 453 903 425 874 429 890 m 592 676 b 800 743 653 721 722 743 b 1079 493 1004 743 1107 654 b 778 285 1057 361 943 285 b 636 293 735 285 688 288 l 631 264 b 697 174 621 204 643 174 b 807 225 740 174 776 190 b 881 239 829 254 842 260 l 965 192 b 975 111 997 174 1001 146 b 660 -21 915 24 810 -21 b 493 18 594 -21 539 -8 b 286 -21 432 -8 363 -21 b 13 224 68 -21 -11 67 b 374 442 39 381 142 442 b 429 440 389 442 422 440 l 435 475 b 379 546 438 506 449 546 b 293 496 349 546 319 529 b 221 481 272 468 261 464 l 124 522 b 108 599 89 538 81 558 b 419 743 179 697 269 743 b 592 676 493 743 550 721 m 826 503 b 764 560 833 538 813 560 b 668 476 713 560 675 528 l 665 458 b 750 453 703 454 731 453 b 826 503 796 453 822 469 m 397 267 b 336 269 376 268 357 269 b 261 211 293 269 268 250 b 313 156 254 174 272 156 b 392 163 333 156 360 158 b 394 247 389 190 390 218 "},"Ǿ":{"ha":949,"x_min":0,"x_max":0,"o":"m 642 1283 b 733 1279 685 1304 715 1303 l 789 1199 b 772 1143 811 1171 806 1156 l 507 1065 b 443 1072 472 1054 454 1054 l 414 1118 b 426 1171 396 1144 400 1156 m 1021 1046 b 1029 1021 1039 1046 1042 1038 l 896 863 b 935 601 939 793 951 706 l 890 350 b 403 -21 847 111 675 -21 b 196 21 321 -21 251 -7 l 149 -36 b 94 -58 132 -57 128 -58 l -35 -58 b -42 -32 -53 -58 -54 -44 l 82 118 b 42 381 36 186 24 274 l 85 632 b 574 1007 128 872 301 1007 b 785 961 658 1007 729 992 l 836 1024 b 888 1046 853 1044 860 1046 m 619 746 b 536 764 597 758 569 764 b 360 631 440 764 375 718 l 322 418 l 318 383 m 651 560 b 657 593 653 565 656 576 l 360 238 b 440 222 383 228 410 222 b 615 356 542 222 600 267 "},"ǿ":{"ha":765,"x_min":0,"x_max":0,"o":"m 525 1019 b 617 1017 567 1043 597 1042 l 675 939 b 658 883 696 911 693 896 l 393 800 b 331 804 360 789 339 790 l 299 850 b 311 903 281 876 283 890 m 771 767 b 779 742 790 767 793 758 l 707 653 b 751 429 753 597 768 522 l 725 274 b 329 -21 692 83 556 -21 b 182 3 272 -21 224 -12 l 156 -29 b 107 -49 144 -42 128 -49 l 28 -49 b 21 -24 8 -49 6 -40 l 90 61 b 39 293 39 118 22 194 l 65 449 b 461 743 99 639 238 743 b 618 715 524 743 575 733 l 644 747 b 692 767 656 760 671 767 m 485 536 b 429 554 474 549 456 554 b 329 479 371 554 338 529 l 303 336 b 300 308 301 325 300 315 m 310 182 b 360 169 322 174 339 169 b 461 243 419 169 453 194 l 486 382 b 489 401 488 389 489 396 "},"Ș":{"ha":892,"x_min":0,"x_max":0,"o":"m 101 719 b 556 1007 135 904 293 1007 b 899 801 754 1007 854 936 b 857 729 911 761 903 747 l 719 675 b 650 704 679 658 665 664 b 522 776 633 753 590 776 b 378 704 435 776 386 753 b 546 619 368 650 424 635 b 854 271 701 596 901 526 b 386 -21 818 76 663 -21 b 4 194 175 -21 32 56 b 56 271 -3 232 15 257 l 194 318 b 271 288 239 333 258 326 b 414 214 288 239 335 214 b 578 293 513 214 568 240 b 429 375 588 343 535 360 b 233 428 353 386 304 394 b 150 488 199 444 171 464 b 101 719 110 533 85 615 m 393 -315 b 322 -361 378 -346 354 -361 l 233 -361 b 204 -319 204 -361 194 -347 l 261 -125 b 332 -67 274 -82 292 -67 l 457 -67 b 494 -125 501 -67 514 -86 "},"ș":{"ha":717,"x_min":0,"x_max":0,"o":"m 65 521 b 413 743 92 669 207 743 b 701 594 581 743 663 690 b 660 518 714 560 700 535 l 554 474 b 485 493 506 454 503 469 b 389 531 465 518 433 531 b 296 493 322 531 300 521 b 401 447 290 464 313 454 b 667 213 614 429 693 361 b 300 -21 640 63 511 -21 b -3 144 122 -21 21 35 b 43 217 -10 179 6 203 l 161 256 b 231 235 210 268 215 263 b 326 190 243 206 275 190 b 435 233 393 190 429 204 b 311 285 440 268 418 278 b 65 521 129 296 38 367 m 339 -272 b 257 -321 317 -311 297 -321 l 176 -321 b 149 -281 143 -321 139 -312 l 188 -132 b 267 -69 200 -83 218 -69 l 385 -69 b 418 -132 431 -69 442 -90 "},"Ț":{"ha":836,"x_min":0,"x_max":0,"o":"m 867 986 b 915 928 911 986 925 971 l 893 803 b 824 743 886 758 868 743 l 618 743 l 497 58 b 428 0 488 15 472 0 l 271 0 b 222 58 226 0 213 15 l 343 743 l 136 743 b 88 803 92 743 81 758 l 110 928 b 179 986 119 971 135 986 m 347 -315 b 276 -361 332 -346 308 -361 l 188 -361 b 158 -319 158 -361 151 -349 l 217 -125 b 288 -67 228 -82 247 -67 l 413 -67 b 449 -125 458 -67 469 -86 "},"ț":{"ha":554,"x_min":0,"x_max":0,"o":"m 415 889 b 460 836 454 889 465 875 l 439 722 l 536 722 b 579 669 575 722 586 708 l 561 565 b 499 511 554 525 538 511 l 403 511 l 365 307 b 443 210 353 233 372 210 b 489 156 486 210 496 196 l 467 36 b 403 -18 460 -4 446 -18 b 104 289 157 -22 64 61 l 143 511 l 83 511 b 39 565 43 511 32 525 l 58 669 b 119 722 65 708 81 722 l 181 722 l 200 836 b 263 889 207 875 224 889 m 250 -315 b 179 -361 235 -346 211 -361 l 90 -361 b 61 -319 61 -361 51 -347 l 118 -125 b 189 -67 131 -82 149 -67 l 314 -67 b 351 -125 358 -67 371 -86 "},"ȷ":{"ha":376,"x_min":0,"x_max":0,"o":"m 321 722 b 367 669 361 722 374 708 l 246 -14 b -161 -319 208 -224 76 -319 b -207 -265 -201 -319 -214 -306 l -186 -147 b -121 -92 -179 -107 -164 -92 b -10 3 -58 -92 -22 -60 l 107 669 b 172 722 114 708 132 722 "},"ˆ":{"ha":557,"x_min":0,"x_max":0,"o":"m 419 1028 b 511 986 469 1028 482 1024 l 629 844 b 599 797 650 822 642 797 l 492 797 b 406 826 435 797 421 800 l 374 876 l 322 828 b 226 797 296 801 281 797 l 114 797 b 101 844 68 797 78 822 l 268 986 b 319 1021 289 1004 307 1017 b 382 1028 332 1025 353 1028 "},"ˇ":{"ha":582,"x_min":0,"x_max":0,"o":"m 654 1026 b 664 979 700 1026 689 1001 l 500 838 b 389 796 456 799 447 796 l 351 796 b 256 838 297 796 288 800 l 142 979 b 167 1026 119 1001 124 1026 l 279 1026 b 365 997 335 1026 349 1021 l 399 949 l 449 996 b 546 1026 476 1022 492 1026 "},"˘":{"ha":399,"x_min":0,"x_max":0,"o":"m 546 944 b 275 797 492 846 401 797 b 54 944 149 797 75 846 b 88 993 49 971 56 982 l 182 1026 b 232 1010 214 1038 222 1033 b 301 965 244 981 267 965 b 386 1011 336 965 364 981 b 438 1028 404 1033 411 1038 l 531 993 b 546 944 553 983 558 967 "},"˙":{"ha":306,"x_min":0,"x_max":0,"o":"m 285 1022 b 371 918 367 1022 386 1000 l 368 907 b 247 803 353 825 326 803 l 239 803 b 151 907 157 803 136 825 l 154 918 b 276 1022 167 997 194 1022 "},"˚":{"ha":333,"x_min":0,"x_max":0,"o":"m 99 914 b 308 1078 117 1015 201 1078 b 457 914 414 1078 475 1013 b 251 754 439 815 357 754 b 99 914 144 754 81 814 m 328 914 b 289 964 333 943 317 964 b 226 914 254 964 233 947 b 271 867 222 886 239 867 b 328 914 300 867 324 885 "},"˛":{"ha":350,"x_min":0,"x_max":0,"o":"m 236 6 b 125 -160 164 -61 126 -117 b 146 -186 125 -178 132 -186 b 172 -178 153 -186 163 -183 b 204 -186 190 -168 201 -171 l 222 -257 b 207 -297 226 -275 222 -287 b 43 -342 164 -326 108 -342 b -89 -240 -42 -342 -86 -308 b 64 1 -90 -164 -39 -83 "},"˜":{"ha":424,"x_min":0,"x_max":0,"o":"m 540 1015 b 567 983 563 1015 571 1004 b 400 813 544 857 493 813 b 292 842 361 813 325 822 b 226 869 258 860 236 869 b 200 839 213 869 204 860 b 169 813 197 821 188 813 l 83 813 b 57 844 63 813 54 824 b 221 1015 79 968 133 1015 b 332 986 261 1015 297 1006 b 399 957 367 967 389 957 b 425 988 413 957 421 967 b 456 1015 428 1006 438 1015 "},"˝":{"ha":549,"x_min":0,"x_max":0,"o":"m 604 999 b 607 939 639 988 639 963 l 424 815 b 357 794 390 793 379 788 l 318 803 b 268 792 300 790 283 788 l 208 803 b 200 856 176 808 179 835 l 326 990 b 424 1026 356 1022 388 1033 l 453 1019 b 513 1024 471 1029 490 1031 "},"̦":{"ha":0,"x_min":0,"x_max":0,"o":"m 139 -315 b 68 -361 124 -346 100 -361 l -21 -361 b -50 -319 -50 -361 -57 -349 l 8 -125 b 79 -67 19 -82 39 -67 l 204 -67 b 240 -125 250 -67 261 -86 "},"π":{"ha":940,"x_min":0,"x_max":0,"o":"m 919 722 b 963 669 960 722 969 710 l 942 551 b 881 497 935 511 919 497 l 850 497 l 806 246 b 808 133 799 200 799 163 b 764 56 819 96 804 71 l 618 0 b 549 26 578 -17 558 -12 b 544 231 533 89 532 157 l 592 497 l 454 497 l 375 53 b 313 0 368 14 353 0 l 160 0 b 117 53 121 0 110 14 l 194 497 b 133 481 179 496 160 490 b 68 504 96 465 75 469 l 39 613 b 76 682 29 650 38 665 b 299 722 146 708 219 722 "},"Ё":{"ha":817,"x_min":0,"x_max":0,"o":"m 443 1258 b 528 1160 521 1258 540 1233 l 525 1142 b 406 1042 510 1068 482 1042 l 394 1042 b 313 1142 318 1042 297 1068 l 315 1160 b 433 1258 331 1236 356 1258 m 742 1258 b 825 1160 819 1258 840 1236 l 822 1142 b 704 1042 807 1068 781 1042 l 694 1042 b 610 1142 617 1042 594 1068 l 613 1160 b 732 1258 625 1233 656 1258 m 818 986 b 868 928 863 986 875 971 l 846 803 b 776 743 839 758 819 743 l 410 743 l 388 619 l 681 619 b 729 561 725 619 736 604 l 707 436 b 638 376 697 392 682 376 l 344 376 l 321 243 l 700 243 b 747 185 743 243 754 229 l 725 58 b 656 0 718 15 700 0 l 63 0 b 14 58 18 0 4 15 l 167 928 b 236 986 176 971 192 986 "},"А":{"ha":956,"x_min":0,"x_max":0,"o":"m 918 57 b 867 0 925 19 908 0 l 722 0 b 629 58 654 0 633 14 l 615 158 l 314 158 l 265 58 b 154 0 243 14 221 0 l 1 0 b -25 57 -37 0 -46 19 l 450 938 b 531 986 471 976 488 986 l 688 986 b 753 940 728 986 746 975 m 568 539 b 568 704 563 604 564 665 l 572 733 l 560 733 b 497 540 547 667 526 603 l 418 376 l 590 376 "},"Б":{"ha":890,"x_min":0,"x_max":0,"o":"m 849 988 b 896 928 892 988 903 972 l 878 819 b 808 761 871 775 853 761 l 413 761 l 390 638 l 571 638 b 799 544 669 638 746 607 b 851 304 851 482 869 403 b 478 0 818 110 678 0 l 60 0 b 13 56 17 0 6 15 l 167 928 b 236 988 176 972 192 988 m 575 319 b 490 411 585 381 557 411 l 350 411 l 318 226 l 457 226 b 575 319 525 226 565 257 "},"В":{"ha":914,"x_min":0,"x_max":0,"o":"m 643 988 b 904 714 833 988 933 881 b 768 519 886 621 847 569 l 767 514 b 863 264 851 474 883 390 b 479 0 831 90 683 0 l 63 0 b 14 58 18 0 4 15 l 167 928 b 236 988 176 972 192 988 m 618 686 b 546 764 628 738 603 764 l 413 764 l 386 611 l 519 611 b 618 686 576 611 608 636 m 582 307 b 507 388 593 361 568 388 l 347 388 l 318 225 l 479 225 b 582 307 539 225 572 253 "},"Г":{"ha":740,"x_min":0,"x_max":0,"o":"m 769 986 b 819 928 814 986 826 971 l 797 803 b 728 743 790 758 771 743 l 410 743 l 289 58 b 219 0 279 15 264 0 l 63 0 b 14 58 18 0 4 15 l 167 928 b 236 986 176 971 192 986 "},"Д":{"ha":1099,"x_min":0,"x_max":0,"o":"m 996 986 b 1044 928 1040 986 1054 971 l 925 243 l 992 243 b 1039 186 1035 243 1046 229 l 979 -154 b 910 -212 972 -197 954 -212 l 757 -212 b 708 -154 713 -212 701 -197 l 736 0 l 228 0 l 200 -154 b 131 -212 193 -197 175 -212 l -22 -212 b -71 -154 -67 -212 -78 -197 l -11 186 b 58 243 -1 229 14 243 l 89 243 b 196 374 132 275 168 319 b 265 611 224 428 247 507 l 321 928 b 389 986 328 971 346 986 m 554 743 l 531 613 b 401 243 501 454 458 331 l 650 243 l 738 743 "},"Е":{"ha":817,"x_min":0,"x_max":0,"o":"m 818 986 b 868 928 863 986 875 971 l 846 803 b 776 743 839 758 819 743 l 410 743 l 388 619 l 681 619 b 729 561 725 619 736 604 l 707 436 b 638 376 697 392 682 376 l 344 376 l 321 243 l 700 243 b 747 185 743 243 754 229 l 725 58 b 656 0 718 15 700 0 l 63 0 b 14 58 18 0 4 15 l 167 928 b 236 986 176 971 192 986 "},"Ж":{"ha":1360,"x_min":0,"x_max":0,"o":"m 1400 986 b 1424 925 1440 986 1450 963 l 1128 508 b 1174 415 1147 482 1163 450 l 1286 68 b 1239 0 1299 29 1283 0 l 1090 0 b 979 58 1014 0 992 10 l 910 314 b 828 378 897 363 879 378 l 817 378 l 760 58 b 690 0 753 15 735 0 l 533 0 b 485 58 489 0 478 15 l 542 378 l 531 378 b 429 314 481 378 461 363 l 268 58 b 136 0 239 10 213 0 l -14 0 b -39 68 -60 0 -67 31 l 197 415 b 278 508 224 453 250 485 l 128 925 b 171 986 114 965 128 986 l 329 986 b 431 935 401 986 415 979 l 540 618 b 574 619 547 619 558 619 l 583 619 l 639 928 b 707 986 646 971 663 986 l 864 986 b 914 928 908 986 921 971 l 858 619 l 869 619 b 900 618 882 619 893 619 l 1119 935 b 1239 986 1149 979 1167 986 "},"З":{"ha":901,"x_min":0,"x_max":0,"o":"m 892 701 b 751 517 874 608 831 557 b 850 272 839 468 872 388 b 407 -21 814 76 667 -21 b 3 222 168 -21 33 60 b 53 297 -4 260 13 285 l 197 346 b 265 308 240 361 256 351 b 424 218 278 249 331 218 b 567 300 518 218 557 243 b 493 382 578 354 553 382 l 361 382 b 311 440 317 382 304 397 l 332 556 b 401 615 342 600 357 615 l 511 615 b 610 692 567 615 600 640 b 515 768 619 743 588 768 b 332 678 428 768 367 738 b 250 640 308 633 290 625 l 125 689 b 101 764 89 701 81 726 b 572 1007 192 926 349 1007 b 892 701 810 1007 929 890 "},"И":{"ha":981,"x_min":0,"x_max":0,"o":"m 957 988 b 1006 928 1001 988 1013 972 l 853 58 b 783 0 843 15 826 0 l 626 0 b 578 60 582 0 571 15 l 621 296 b 640 393 628 335 635 369 b 663 469 646 417 657 453 b 692 544 667 485 685 531 b 732 640 696 553 725 625 l 722 640 b 542 354 663 529 601 433 l 293 28 b 229 0 278 10 257 0 l 61 0 b 13 58 17 0 6 15 l 167 928 b 235 986 174 971 190 986 l 392 986 b 442 928 436 986 449 971 l 400 690 b 360 518 386 615 372 558 b 288 347 347 478 322 421 l 297 347 b 396 515 342 426 375 482 b 481 636 417 549 444 589 l 728 960 b 790 988 743 978 764 988 "},"Й":{"ha":981,"x_min":0,"x_max":0,"o":"m 610 1047 b 392 1194 489 1047 410 1100 b 424 1243 388 1217 397 1233 l 522 1278 b 571 1261 554 1289 561 1285 b 640 1215 583 1231 606 1215 b 722 1261 672 1215 700 1231 b 776 1279 740 1285 749 1286 l 867 1243 b 882 1194 890 1233 896 1218 b 610 1047 828 1096 736 1047 m 957 988 b 1006 928 1001 988 1013 972 l 853 58 b 783 0 843 15 826 0 l 626 0 b 578 60 582 0 571 15 l 621 296 b 640 393 628 335 635 369 b 663 469 646 417 657 453 b 692 544 667 485 685 531 b 732 640 696 553 725 625 l 722 640 b 542 354 663 529 601 433 l 293 28 b 229 0 278 10 257 0 l 61 0 b 13 58 17 0 6 15 l 167 928 b 235 986 174 971 190 986 l 392 986 b 442 928 436 986 449 971 l 400 690 b 360 518 386 615 372 558 b 288 347 347 478 322 421 l 297 347 b 396 515 342 426 375 482 b 481 636 417 549 444 589 l 728 960 b 790 988 743 978 764 988 "},"К":{"ha":908,"x_min":0,"x_max":0,"o":"m 840 68 b 792 0 853 29 836 0 l 642 0 b 529 58 568 0 546 10 l 451 307 b 368 376 436 356 418 376 l 344 376 l 289 58 b 219 0 279 15 264 0 l 63 0 b 14 58 18 0 4 15 l 167 928 b 236 986 176 971 192 986 l 393 986 b 442 928 438 986 451 971 l 388 619 l 406 619 l 418 619 l 672 935 b 719 978 690 957 706 971 b 792 986 733 983 757 986 l 953 986 b 976 925 996 986 1004 963 l 647 517 b 718 415 678 496 701 461 "},"Л":{"ha":971,"x_min":0,"x_max":0,"o":"m 950 986 b 1000 928 994 986 1007 971 l 846 58 b 776 0 839 15 821 0 l 619 0 b 571 58 575 0 564 15 l 692 743 l 525 743 l 503 613 b 342 181 468 417 414 274 b 103 -10 269 86 201 35 b 29 18 60 -31 44 -22 l -28 151 b 15 232 -40 189 -29 210 b 149 354 69 261 114 301 b 232 611 183 406 211 492 l 288 928 b 357 986 297 971 313 986 "},"М":{"ha":1149,"x_min":0,"x_max":0,"o":"m 1124 988 b 1172 929 1168 988 1179 974 l 1019 57 b 950 0 1010 14 994 0 l 799 0 b 750 57 754 0 743 14 l 785 256 b 908 619 801 354 843 476 l 894 619 b 761 390 857 542 813 465 l 656 233 b 582 193 638 207 613 193 l 492 193 b 432 233 454 193 443 201 l 379 390 b 332 619 358 446 343 522 l 319 619 b 311 254 332 468 329 346 l 278 57 b 208 0 271 14 251 0 l 61 0 b 13 57 17 0 6 14 l 167 929 b 236 988 174 974 192 988 l 365 988 b 440 944 414 988 429 979 l 589 489 l 897 943 b 983 988 921 981 938 988 "},"Н":{"ha":961,"x_min":0,"x_max":0,"o":"m 938 988 b 985 928 981 988 992 972 l 832 58 b 763 0 822 15 807 0 l 606 0 b 557 58 561 0 547 15 l 613 378 l 344 378 l 288 58 b 218 0 281 15 263 0 l 61 0 b 13 58 17 0 6 15 l 167 928 b 236 988 176 972 192 988 l 393 988 b 442 928 438 988 449 972 l 388 621 l 656 621 l 710 928 b 779 988 717 972 736 988 "},"О":{"ha":947,"x_min":0,"x_max":0,"o":"m 115 632 b 604 1007 158 872 331 1007 b 901 896 739 1007 838 969 b 964 601 964 822 985 724 l 921 350 b 432 -21 878 111 706 -21 b 135 89 297 -21 197 15 b 71 381 72 161 50 258 m 694 631 b 567 764 710 718 663 764 b 390 631 465 764 406 719 l 342 356 b 471 222 326 268 372 222 b 646 356 572 222 631 267 "},"П":{"ha":954,"x_min":0,"x_max":0,"o":"m 929 986 b 979 928 974 986 986 971 l 825 58 b 756 0 818 15 800 0 l 599 0 b 550 58 554 0 543 15 l 671 743 l 410 743 l 289 58 b 219 0 279 15 264 0 l 63 0 b 14 58 18 0 4 15 l 167 928 b 236 986 176 971 192 986 "},"Р":{"ha":900,"x_min":0,"x_max":0,"o":"m 619 986 b 861 886 728 986 808 953 b 913 618 914 818 931 729 b 500 296 875 403 722 296 l 331 296 l 289 58 b 219 0 279 15 264 0 l 63 0 b 14 58 18 0 4 15 l 167 928 b 236 986 176 971 192 986 m 510 539 b 632 640 575 539 621 579 b 546 743 643 703 611 743 l 410 743 l 374 539 "},"С":{"ha":899,"x_min":0,"x_max":0,"o":"m 117 638 b 607 1007 157 876 333 1007 b 953 760 807 1007 922 925 b 906 685 963 719 950 697 l 763 636 b 693 674 718 624 703 631 b 567 764 681 736 644 764 b 389 619 460 764 406 718 l 343 367 b 471 222 326 268 364 222 b 631 313 544 222 597 253 b 713 350 657 357 674 365 l 857 294 b 881 219 893 282 901 257 b 432 -21 793 60 644 -21 b 136 89 297 -21 199 15 b 71 381 72 163 50 260 "},"Т":{"ha":836,"x_min":0,"x_max":0,"o":"m 867 986 b 915 928 911 986 925 971 l 893 803 b 824 743 886 758 868 743 l 618 743 l 497 58 b 428 0 488 15 472 0 l 271 0 b 222 58 226 0 213 15 l 343 743 l 136 743 b 88 803 92 743 81 758 l 110 928 b 179 986 119 971 135 986 "},"У":{"ha":874,"x_min":0,"x_max":0,"o":"m 947 986 b 967 928 986 986 990 967 l 444 51 b 339 0 418 8 401 0 l 160 0 b 140 58 122 0 117 19 l 289 297 l 104 928 b 146 986 93 967 107 986 l 310 986 b 407 935 381 986 396 981 l 489 625 l 671 935 b 774 986 697 981 711 986 "},"Ф":{"ha":1197,"x_min":0,"x_max":0,"o":"m 817 1021 b 865 963 861 1021 875 1006 l 856 903 l 893 903 b 1226 521 1149 903 1265 758 l 1214 447 b 754 90 1171 214 1014 90 l 713 90 l 701 31 b 632 -29 692 -14 676 -29 l 475 -29 b 426 31 431 -29 419 -14 l 438 90 l 396 90 b 67 475 142 90 26 236 l 79 549 b 539 903 119 782 279 903 l 581 903 l 592 963 b 661 1021 599 1006 617 1021 m 510 667 b 358 544 424 667 374 626 l 342 449 b 450 326 328 367 364 326 l 479 326 l 539 667 m 950 544 b 842 667 965 626 929 667 l 813 667 l 753 326 l 782 326 b 933 449 869 326 919 367 "},"Х":{"ha":919,"x_min":0,"x_max":0,"o":"m 974 986 b 992 931 1013 986 1018 960 l 640 503 l 853 58 b 813 0 869 29 853 0 l 636 0 b 529 51 563 0 547 6 l 438 279 l 271 51 b 224 10 254 29 239 15 b 146 0 208 3 183 0 l -26 0 b -46 58 -69 0 -75 25 l 318 503 l 121 931 b 158 986 106 960 121 986 l 324 986 b 431 938 396 986 413 981 l 518 724 l 679 938 b 725 979 696 960 711 974 b 794 986 738 983 761 986 "},"Ц":{"ha":1018,"x_min":0,"x_max":0,"o":"m 911 243 b 960 186 956 243 967 229 l 900 -154 b 831 -214 890 -199 875 -214 l 688 -214 b 639 -154 643 -214 632 -199 l 667 0 l 63 0 b 14 58 18 0 4 15 l 167 928 b 236 986 176 971 192 986 l 393 986 b 442 928 438 986 451 971 l 321 243 l 579 243 l 700 928 b 769 986 710 971 725 986 l 926 986 b 975 928 971 986 985 971 l 854 243 "},"Ч":{"ha":913,"x_min":0,"x_max":0,"o":"m 917 986 b 965 928 961 986 975 971 l 813 58 b 743 0 803 15 788 0 l 586 0 b 538 58 542 0 528 15 l 585 329 b 442 319 539 322 492 319 b 125 725 171 319 79 463 l 161 928 b 229 986 168 971 185 986 l 386 986 b 436 928 431 986 443 971 l 396 706 b 528 578 379 611 413 578 b 631 588 565 578 600 581 l 690 928 b 760 986 700 971 715 986 "},"Ш":{"ha":1322,"x_min":0,"x_max":0,"o":"m 1297 986 b 1347 928 1342 986 1354 971 l 1193 58 b 1124 0 1186 15 1168 0 l 63 0 b 14 58 18 0 4 15 l 167 928 b 236 986 176 971 192 986 l 393 986 b 442 928 438 986 451 971 l 321 243 l 499 243 l 619 928 b 688 986 626 971 644 986 l 846 986 b 894 928 889 986 901 971 l 774 243 l 951 243 l 1072 928 b 1140 986 1079 971 1096 986 "},"Щ":{"ha":1390,"x_min":0,"x_max":0,"o":"m 1283 243 b 1332 186 1328 243 1339 229 l 1272 -156 b 1203 -214 1265 -200 1246 -214 l 1060 -214 b 1011 -156 1015 -214 1004 -200 l 1038 0 l 63 0 b 14 58 18 0 4 15 l 167 928 b 236 986 176 971 192 986 l 393 986 b 442 928 438 986 451 971 l 321 243 l 499 243 l 619 928 b 688 986 626 971 644 986 l 846 986 b 894 928 889 986 901 971 l 774 243 l 951 243 l 1072 928 b 1140 986 1079 971 1096 986 l 1297 986 b 1347 928 1342 986 1354 971 l 1226 243 "},"Ъ":{"ha":1083,"x_min":0,"x_max":0,"o":"m 740 690 b 990 592 850 690 933 657 b 1046 328 1047 525 1065 438 b 638 0 1007 111 860 0 l 244 0 b 197 58 201 0 190 15 l 317 743 l 136 743 b 88 801 92 743 81 757 l 110 928 b 179 986 119 971 135 986 l 576 986 b 625 928 619 986 632 971 l 583 690 m 640 243 b 763 346 707 243 753 285 b 678 447 774 407 743 447 l 540 447 l 504 243 "},"Ы":{"ha":1304,"x_min":0,"x_max":0,"o":"m 860 331 b 453 0 821 114 674 0 l 61 0 b 13 58 17 0 6 15 l 167 928 b 235 986 174 971 190 986 l 392 986 b 442 928 436 986 449 971 l 400 690 l 558 690 b 806 593 668 690 750 658 b 860 331 861 528 879 440 m 1056 931 b 1121 986 1065 974 1081 986 l 1285 986 b 1331 931 1328 986 1338 971 l 1176 56 b 1111 0 1169 15 1154 0 l 947 0 b 901 56 907 0 894 13 m 579 346 b 494 447 590 407 557 447 l 357 447 l 319 243 l 457 243 b 579 346 522 243 569 285 "},"Ь":{"ha":896,"x_min":0,"x_max":0,"o":"m 860 331 b 454 0 821 114 675 0 l 63 0 b 14 58 18 0 4 15 l 167 928 b 236 986 176 971 192 986 l 393 986 b 442 928 438 986 451 971 l 400 690 l 560 690 b 807 593 669 690 751 658 b 860 331 861 528 879 440 m 579 346 b 494 447 590 407 560 447 l 357 447 l 321 243 l 457 243 b 579 346 524 243 569 285 "},"Э":{"ha":907,"x_min":0,"x_max":0,"o":"m 100 764 b 547 1007 188 926 338 1007 b 842 896 682 1007 779 969 b 903 601 904 822 924 724 l 860 350 b 376 -21 817 110 649 -21 b 4 222 164 -21 36 65 b 54 297 -3 260 14 285 l 200 346 b 268 308 243 361 258 351 b 408 218 279 249 326 218 b 583 351 511 218 569 263 l 589 381 l 358 381 b 310 440 314 381 303 396 l 331 557 b 400 617 338 601 356 617 l 631 617 l 635 640 b 506 768 650 724 604 768 b 331 678 424 768 365 738 b 249 640 307 635 289 628 l 124 689 b 100 764 88 701 79 726 "},"Ю":{"ha":1346,"x_min":0,"x_max":0,"o":"m 517 653 b 672 914 535 764 588 851 b 992 1007 757 976 863 1007 b 1279 897 1124 1007 1219 971 b 1338 604 1339 824 1358 726 l 1294 353 b 815 -21 1251 113 1082 -21 b 528 81 686 -21 590 13 b 463 350 465 147 443 238 l 468 378 l 344 378 l 288 58 b 218 0 281 15 263 0 l 61 0 b 13 58 17 0 6 15 l 167 928 b 235 986 174 971 190 986 l 392 986 b 442 928 436 986 449 971 l 388 621 l 511 621 m 1068 632 b 950 764 1082 719 1043 764 b 788 632 860 764 800 717 l 738 354 b 854 222 722 269 765 222 b 1018 354 947 222 1003 267 "},"Я":{"ha":918,"x_min":0,"x_max":0,"o":"m 136 671 b 538 986 174 881 321 986 l 933 986 b 982 928 978 986 992 971 l 829 58 b 760 0 819 15 804 0 l 603 0 b 554 58 558 0 544 15 l 601 328 l 565 328 b 444 257 503 328 478 313 l 328 58 b 194 0 300 10 272 0 l 44 0 b 21 68 -1 0 -10 22 l 176 306 b 233 386 204 349 224 375 b 136 671 150 440 113 542 m 525 743 b 418 653 465 743 431 713 b 494 564 408 593 433 564 l 643 564 l 675 743 "},"а":{"ha":757,"x_min":0,"x_max":0,"o":"m 69 450 b 458 743 104 651 229 743 b 725 696 574 743 663 728 b 764 615 768 674 774 661 l 669 78 b 606 13 663 39 649 24 b 304 -21 514 -10 414 -21 b 43 300 97 -21 8 104 m 481 513 b 426 518 467 517 449 518 b 326 442 365 518 336 497 l 296 272 b 363 203 289 226 311 203 b 435 210 392 203 417 206 l 486 503 b 481 513 488 508 486 511 "},"б":{"ha":776,"x_min":0,"x_max":0,"o":"m 631 1013 b 733 1029 671 1013 706 1018 b 801 993 778 1047 794 1038 l 819 892 b 774 815 825 851 814 836 b 607 793 740 800 685 793 l 550 793 b 372 675 443 793 385 758 l 369 663 b 506 701 411 689 457 701 b 758 388 694 701 792 589 l 739 272 b 347 -21 703 76 572 -21 b 53 294 125 -21 19 101 l 99 563 b 253 910 128 725 179 842 b 586 1013 326 978 438 1013 m 503 404 b 431 479 511 454 488 479 b 331 404 372 479 339 454 l 308 276 b 379 203 299 228 322 203 b 481 276 436 203 471 228 "},"в":{"ha":751,"x_min":0,"x_max":0,"o":"m 188 704 b 454 743 261 731 350 743 b 719 515 644 743 743 647 b 603 376 708 454 669 408 b 701 214 674 353 714 292 b 324 -21 678 58 551 -19 b 58 17 206 -21 117 -8 b 10 113 18 33 1 65 l 96 600 b 188 704 106 651 136 686 m 467 501 b 407 554 474 535 450 554 b 346 547 381 554 360 551 b 339 539 342 546 339 543 l 322 449 l 389 449 b 467 501 435 449 460 467 m 443 228 b 367 286 449 265 422 286 l 294 286 l 274 178 b 278 172 274 175 275 174 b 343 167 293 168 314 167 b 443 228 403 167 436 188 "},"г":{"ha":717,"x_min":0,"x_max":0,"o":"m 104 594 b 447 743 175 693 275 743 b 718 508 642 743 744 649 b 621 346 704 429 672 375 b 392 292 569 317 493 299 b 246 231 301 286 253 265 b 338 188 240 197 271 188 b 460 233 393 188 433 203 b 540 253 486 261 497 265 l 635 217 b 656 143 669 203 676 178 b 300 -21 593 33 475 -21 b 13 221 93 -21 -15 78 b 111 379 26 292 60 344 b 358 444 163 414 246 435 b 485 494 443 451 478 461 b 397 535 489 522 468 535 b 288 494 351 533 315 521 b 208 478 260 467 251 463 l 119 518 b 104 594 83 533 78 560 "},"д":{"ha":776,"x_min":0,"x_max":0,"o":"m 251 976 b 317 1033 257 1019 274 1033 b 644 990 476 1033 586 1019 b 772 526 789 917 821 771 l 728 274 b 333 -21 694 83 557 -21 b 40 285 110 -21 6 94 l 63 417 b 417 685 94 590 228 685 b 569 639 482 685 532 669 b 494 796 581 732 551 768 b 282 822 457 814 386 822 b 233 879 238 822 226 836 m 492 404 b 419 479 499 454 475 479 b 319 404 360 479 326 454 l 296 276 b 369 203 288 228 313 203 b 468 276 426 203 460 228 "},"е":{"ha":753,"x_min":0,"x_max":0,"o":"m 69 450 b 465 743 103 638 244 743 b 767 486 672 743 789 651 b 457 285 746 358 635 285 b 300 293 408 285 357 288 l 294 264 b 369 175 285 204 310 175 b 490 225 418 175 458 192 b 571 239 517 253 531 260 l 661 193 b 674 113 694 175 699 149 b 336 -21 608 24 496 -21 b 43 306 99 -21 8 111 m 514 503 b 438 560 519 540 494 560 b 332 474 379 560 344 531 l 328 458 b 424 451 363 454 394 451 b 514 503 478 451 508 468 "},"ж":{"ha":1097,"x_min":0,"x_max":0,"o":"m 683 722 b 726 668 724 722 733 708 l 693 472 l 707 472 l 714 472 l 839 672 b 946 722 865 713 886 722 l 1074 722 b 1104 654 1125 722 1135 700 l 917 372 b 943 322 926 363 936 346 l 1013 71 b 957 0 1028 21 1013 0 l 829 0 b 738 53 764 0 744 10 l 713 219 b 668 260 707 243 692 257 b 656 261 667 261 663 261 l 618 54 b 556 0 611 14 596 0 l 404 0 b 361 54 364 0 354 14 l 397 261 b 386 260 393 261 389 261 b 326 219 360 258 340 246 l 242 53 b 132 0 219 10 197 0 l 4 0 b -26 71 -53 0 -58 22 l 132 328 b 175 379 149 353 163 369 l 86 654 b 143 722 72 700 92 722 l 265 722 b 356 672 325 722 344 713 l 414 472 l 422 472 l 435 472 l 469 668 b 532 722 476 708 492 722 "},"з":{"ha":722,"x_min":0,"x_max":0,"o":"m 72 560 b 428 743 136 682 254 743 b 704 518 624 743 728 658 b 597 374 694 450 658 401 l 597 369 b 665 200 657 338 679 281 b 318 -21 643 61 547 -21 b -10 171 131 -21 19 49 b 42 247 -19 211 -1 236 l 149 278 b 214 249 197 290 207 282 b 328 179 225 203 263 179 b 422 231 394 179 417 196 b 375 274 428 258 413 274 l 285 274 b 246 321 250 274 239 286 l 261 406 b 317 453 267 440 282 453 l 403 453 b 465 494 438 453 458 467 b 400 543 469 526 446 543 b 265 482 321 543 289 522 b 192 451 244 449 236 440 l 96 483 b 72 560 60 496 51 521 "},"и":{"ha":772,"x_min":0,"x_max":0,"o":"m 743 722 b 788 669 783 722 794 708 l 689 114 b 617 31 679 68 667 49 b 313 -21 524 -4 422 -21 b 56 293 106 -21 21 97 l 121 669 b 185 722 128 708 144 722 l 336 722 b 381 669 376 722 388 708 l 314 289 b 382 213 304 235 325 213 b 439 218 401 213 421 214 b 451 231 446 219 450 224 l 528 669 b 592 722 535 708 551 722 "},"й":{"ha":772,"x_min":0,"x_max":0,"o":"m 749 929 b 465 775 692 826 597 775 b 233 929 336 775 251 829 b 267 981 226 957 235 969 l 367 1017 b 419 999 401 1026 408 1022 b 493 951 432 967 456 951 b 581 1000 528 951 557 968 b 636 1018 601 1024 608 1028 l 732 981 b 749 929 760 969 764 958 m 743 722 b 788 669 783 722 794 708 l 689 114 b 617 31 679 68 667 49 b 313 -21 524 -4 422 -21 b 56 293 106 -21 21 97 l 121 669 b 185 722 128 708 144 722 l 336 722 b 381 669 376 722 388 708 l 314 289 b 382 213 304 235 325 213 b 439 218 401 213 421 214 b 451 231 446 219 450 224 l 528 669 b 592 722 535 708 551 722 "},"к":{"ha":765,"x_min":0,"x_max":0,"o":"m 683 71 b 626 0 699 21 683 0 l 503 0 b 414 53 440 0 425 8 l 375 219 b 324 263 368 249 350 263 l 294 263 l 257 54 b 194 0 250 14 235 0 l 43 0 b -1 54 3 0 -8 14 l 107 668 b 171 722 114 708 131 722 l 322 722 b 365 668 363 722 372 708 l 332 472 l 351 472 l 360 472 l 513 672 b 621 722 542 713 561 722 l 744 722 b 772 650 800 722 810 699 l 568 379 b 604 321 583 368 596 349 "},"л":{"ha":786,"x_min":0,"x_max":0,"o":"m 733 722 b 776 669 774 722 783 708 l 671 53 b 608 0 664 14 649 0 l 456 0 b 413 53 415 0 406 14 l 490 494 l 394 494 l 376 417 b 278 133 350 288 311 189 b 214 60 261 106 240 81 b 81 -18 158 13 146 10 b 19 10 51 -29 32 -19 l -35 140 b -4 200 -44 169 -37 183 b 69 260 31 218 38 224 b 147 464 101 296 125 363 l 192 669 b 254 722 201 708 215 722 "},"м":{"ha":921,"x_min":0,"x_max":0,"o":"m 865 722 b 913 665 911 722 919 708 l 804 53 b 742 0 797 13 782 0 l 617 0 b 572 54 576 0 565 14 l 592 163 b 679 415 603 229 632 314 l 669 415 b 592 279 640 357 614 311 l 519 178 b 447 138 497 146 485 138 l 382 138 b 324 179 347 138 335 146 l 288 279 b 260 415 276 313 267 358 l 250 415 b 249 161 260 300 258 215 l 229 54 b 164 0 222 14 204 0 l 42 0 b -1 53 1 0 -8 10 l 106 665 b 175 722 115 708 131 722 l 293 722 b 363 679 336 722 350 713 l 458 397 l 656 678 b 738 722 679 711 697 722 "},"н":{"ha":775,"x_min":0,"x_max":0,"o":"m 725 722 b 768 669 765 722 775 708 l 660 53 b 597 0 653 14 638 0 l 444 0 b 401 53 406 0 394 14 l 436 253 l 293 253 l 257 53 b 194 0 250 14 235 0 l 42 0 b -1 53 1 0 -8 14 l 107 669 b 169 722 114 708 129 722 l 322 722 b 365 669 363 722 372 708 l 332 481 l 476 481 l 510 669 b 572 722 517 708 533 722 "},"о":{"ha":764,"x_min":0,"x_max":0,"o":"m 67 449 b 463 743 101 639 239 743 b 754 429 685 743 788 622 l 728 274 b 331 -21 693 83 557 -21 b 40 293 110 -21 7 100 m 499 446 b 425 521 508 496 485 521 b 325 446 368 521 335 496 l 296 276 b 368 203 286 228 310 203 b 469 276 425 203 460 228 "},"п":{"ha":772,"x_min":0,"x_max":0,"o":"m 167 692 b 471 743 260 726 361 743 b 731 438 681 743 764 632 l 663 53 b 600 0 656 14 639 0 l 447 0 b 404 53 407 0 397 14 l 471 433 b 401 510 481 488 458 510 b 339 504 378 510 357 508 b 333 499 338 503 335 501 l 256 53 b 192 0 249 14 232 0 l 40 0 b -4 53 0 0 -11 14 l 94 608 b 167 692 104 654 117 674 "},"р":{"ha":760,"x_min":0,"x_max":0,"o":"m 167 696 b 464 743 251 728 351 743 b 728 429 676 743 763 624 l 701 278 b 326 -21 667 79 542 -21 b 243 -14 314 -21 286 -18 l 201 -251 b 139 -304 194 -292 179 -304 l -14 -304 b -57 -251 -54 -304 -64 -292 l 96 615 b 167 696 106 661 117 678 m 474 450 b 407 518 482 496 460 518 b 342 511 379 518 357 515 b 335 503 339 510 336 507 l 283 210 b 343 203 301 206 322 203 b 443 279 400 203 433 228 "},"с":{"ha":718,"x_min":0,"x_max":0,"o":"m 69 450 b 457 743 104 646 233 743 b 733 549 622 743 713 665 b 685 475 740 508 728 490 l 561 433 b 492 471 515 418 501 428 b 415 526 483 508 458 526 b 326 450 367 526 336 501 l 296 271 b 356 196 286 222 310 196 b 449 253 394 196 425 215 b 531 288 471 293 490 303 l 657 247 b 679 169 694 235 703 210 b 319 -21 604 43 485 -21 b 43 297 97 -21 8 99 "},"т":{"ha":1131,"x_min":0,"x_max":0,"o":"m 622 706 b 842 743 696 731 768 743 b 1089 438 1043 743 1124 632 l 1021 53 b 958 0 1014 14 997 0 l 806 0 b 763 53 765 0 756 14 l 829 436 b 772 510 839 485 819 510 b 713 503 754 510 733 507 b 706 439 713 485 710 464 l 638 53 b 575 0 631 14 615 0 l 422 0 b 379 53 383 0 372 14 l 447 436 b 389 510 454 490 439 510 b 340 506 374 510 357 508 b 333 497 338 504 335 501 l 256 53 b 192 0 249 14 232 0 l 40 0 b -4 53 0 0 -11 14 l 94 608 b 167 692 104 654 117 674 b 458 743 260 726 357 743 b 622 706 526 743 582 731 "},"у":{"ha":775,"x_min":0,"x_max":0,"o":"m 740 722 b 783 669 781 722 790 708 l 665 -7 b 276 -319 628 -215 497 -319 b 0 -179 125 -319 43 -274 b 39 -99 -15 -144 -3 -117 l 157 -44 b 231 -62 206 -28 214 -33 b 311 -108 249 -93 275 -108 b 403 -28 363 -108 393 -82 l 411 26 b 317 21 386 22 354 21 b 60 340 110 21 25 144 l 118 669 b 181 722 125 708 140 722 l 333 722 b 376 669 374 722 383 708 l 317 331 b 388 254 307 279 331 254 b 453 260 413 254 435 256 l 525 669 b 588 722 532 708 549 722 "},"ф":{"ha":1056,"x_min":0,"x_max":0,"o":"m 744 742 b 779 743 751 743 764 743 b 1046 394 996 743 1086 611 l 1028 293 b 646 -21 990 82 868 -21 b 611 -19 631 -21 618 -21 l 569 -253 b 506 -306 563 -292 546 -306 l 354 -306 b 310 -253 314 -306 303 -292 l 351 -19 b 317 -21 344 -21 332 -21 b 50 326 100 -21 10 108 l 68 428 b 450 743 106 638 232 743 b 485 742 465 743 478 743 l 526 974 b 589 1028 533 1014 550 1028 l 742 1028 b 786 974 782 1028 793 1014 m 303 296 b 367 203 292 233 313 203 b 397 204 374 203 392 204 l 451 517 b 424 518 446 518 436 518 b 325 426 368 518 335 488 m 793 426 b 729 518 806 488 783 518 b 699 517 715 518 706 518 l 643 204 b 674 203 649 204 667 203 b 771 296 728 203 761 233 "},"х":{"ha":767,"x_min":0,"x_max":0,"o":"m 757 722 b 782 660 810 722 818 701 l 543 372 l 689 63 b 639 0 711 19 699 0 l 506 0 b 417 46 444 0 433 6 l 356 204 l 243 46 b 138 0 215 6 199 0 l -7 0 b -36 63 -68 0 -74 19 l 221 371 l 79 660 b 132 722 58 701 75 722 l 261 722 b 351 676 321 722 336 715 l 406 542 l 507 676 b 607 722 535 717 550 722 "},"ц":{"ha":842,"x_min":0,"x_max":0,"o":"m 336 722 b 381 669 376 722 388 708 l 314 289 b 382 213 304 235 325 213 b 449 219 406 213 428 215 l 528 669 b 592 722 535 708 551 722 l 743 722 b 788 669 783 722 794 708 l 708 228 b 799 103 785 233 815 192 l 758 -140 b 696 -193 751 -179 735 -193 l 551 -193 b 507 -140 513 -193 500 -179 l 526 -28 b 494 0 531 -4 522 6 b 307 -21 436 -14 374 -21 b 56 300 97 -21 21 101 l 121 669 b 185 722 128 708 144 722 "},"ч":{"ha":733,"x_min":0,"x_max":0,"o":"m 94 669 b 157 722 101 708 118 722 l 310 722 b 353 669 350 722 360 708 l 322 496 b 382 429 315 447 332 429 b 436 436 404 429 426 432 l 443 439 l 483 669 b 546 722 490 708 507 722 l 699 722 b 742 669 739 722 749 708 l 633 53 b 571 0 626 14 611 0 l 418 0 b 375 53 379 0 368 14 l 403 208 b 292 201 374 204 336 201 b 64 493 108 201 35 314 "},"ш":{"ha":1131,"x_min":0,"x_max":0,"o":"m 1101 722 b 1146 669 1142 722 1153 708 l 1047 114 b 975 31 1038 68 1025 49 b 683 -21 882 -4 785 -21 b 519 15 615 -21 560 -8 b 301 -21 449 -8 376 -21 b 56 303 96 -21 21 103 l 121 669 b 185 722 128 708 144 722 l 336 722 b 381 669 376 722 388 708 l 313 286 b 371 213 304 238 324 213 b 429 219 389 213 408 215 b 436 283 429 238 432 258 l 504 669 b 567 722 511 708 526 722 l 719 722 b 763 669 760 722 769 708 l 696 286 b 753 213 686 238 706 213 b 800 217 768 213 783 214 b 808 228 806 217 808 221 l 886 669 b 950 722 893 708 910 722 "},"щ":{"ha":1200,"x_min":0,"x_max":0,"o":"m 121 669 b 185 722 128 708 144 722 l 336 722 b 381 669 376 722 388 708 l 313 286 b 371 213 304 238 324 213 b 429 219 389 213 408 215 b 436 283 429 238 432 258 l 504 669 b 567 722 511 708 526 722 l 719 722 b 763 669 760 722 769 708 l 696 286 b 753 213 686 238 706 213 b 807 219 774 213 792 215 l 886 669 b 950 722 893 708 910 722 l 1101 722 b 1146 669 1142 722 1153 708 l 1067 228 b 1157 103 1143 233 1174 192 l 1117 -140 b 1054 -193 1110 -179 1093 -193 l 910 -193 b 865 -140 871 -193 858 -179 l 885 -28 b 853 -1 889 -4 882 6 b 683 -21 785 -14 729 -21 b 519 15 615 -21 560 -8 b 301 -21 449 -8 376 -21 b 56 303 96 -21 21 103 "},"ъ":{"ha":853,"x_min":0,"x_max":0,"o":"m 469 535 b 565 543 507 540 539 543 b 810 257 713 543 849 469 b 454 -21 781 81 656 -21 b 183 26 347 -21 257 -6 b 140 107 140 47 133 61 l 210 504 l 86 504 b 42 557 46 504 35 518 l 63 669 b 125 722 69 708 85 722 l 450 722 b 493 669 490 722 500 708 m 414 203 b 472 196 428 199 447 196 b 563 267 524 196 554 219 b 492 340 572 315 549 340 b 431 333 474 340 454 338 l 410 211 b 414 203 408 207 410 204 "},"ы":{"ha":1056,"x_min":0,"x_max":0,"o":"m 333 531 b 429 539 371 536 403 539 b 628 471 513 539 579 517 b 675 254 676 425 693 353 b 319 -21 643 78 521 -21 b 47 26 214 -21 124 -6 b 4 107 4 47 -3 61 l 104 669 b 168 722 111 708 128 722 l 314 722 b 358 669 354 722 365 708 m 1004 722 b 1047 669 1044 722 1054 708 l 939 53 b 876 0 932 14 917 0 l 724 0 b 681 53 683 0 674 14 l 789 669 b 851 722 796 708 811 722 m 278 203 b 338 196 292 199 311 196 b 428 268 389 196 419 219 b 356 340 435 317 411 340 b 296 333 338 340 317 338 l 274 211 b 278 203 274 207 275 204 "},"ь":{"ha":718,"x_min":0,"x_max":0,"o":"m 333 531 b 429 539 371 536 403 539 b 628 471 513 539 579 517 b 675 254 676 425 693 353 b 319 -21 643 78 521 -21 b 47 26 214 -21 124 -6 b 4 107 4 47 -3 61 l 104 669 b 168 722 111 708 128 722 l 314 722 b 358 669 354 722 365 708 m 278 203 b 338 196 292 199 311 196 b 428 268 389 196 419 219 b 356 340 435 317 411 340 b 296 333 338 340 317 338 l 274 211 b 278 203 274 207 275 204 "},"э":{"ha":722,"x_min":0,"x_max":0,"o":"m 67 558 b 408 743 132 682 246 743 b 701 426 638 743 735 621 l 675 275 b 303 -21 640 79 526 -21 b -1 171 129 -21 28 43 b 49 249 -11 208 6 235 l 156 279 b 222 253 201 290 215 282 b 247 204 232 229 235 221 b 315 181 260 188 283 181 b 419 260 376 181 411 207 l 422 271 l 288 272 b 249 319 253 272 242 285 l 264 408 b 319 456 269 443 285 456 l 454 456 l 456 465 b 378 543 467 521 443 543 b 264 478 321 543 293 522 b 186 450 242 446 229 438 l 90 482 b 67 558 54 494 46 521 "},"ю":{"ha":1094,"x_min":0,"x_max":0,"o":"m 399 493 b 776 743 439 658 571 743 b 1064 426 997 743 1097 621 l 1038 269 b 649 -21 1003 76 874 -21 b 356 244 443 -21 343 71 l 356 253 l 293 253 l 257 53 b 194 0 250 14 235 0 l 42 0 b -1 53 1 0 -8 14 l 107 669 b 169 722 114 708 129 722 l 322 722 b 365 669 363 722 372 708 l 332 481 l 396 481 m 810 446 b 739 521 818 496 794 521 b 643 446 685 521 653 496 l 614 276 b 682 203 604 228 626 203 b 779 276 739 203 771 228 "},"я":{"ha":760,"x_min":0,"x_max":0,"o":"m 708 722 b 753 669 749 722 760 708 l 644 53 b 582 0 638 14 622 0 l 429 0 b 386 53 389 0 379 14 l 414 215 l 357 215 l 254 51 b 143 0 228 8 206 0 l 11 0 b -19 71 -50 0 -54 25 l 122 267 b 61 481 65 313 44 385 b 367 722 89 640 201 722 m 382 522 b 319 468 347 522 326 504 b 363 415 313 436 329 415 l 450 415 l 468 522 "},"ё":{"ha":753,"x_min":0,"x_max":0,"o":"m 372 1018 b 457 919 449 1018 469 993 l 454 901 b 335 801 439 828 411 801 l 324 801 b 240 901 247 801 228 828 l 243 919 b 361 1018 258 996 285 1018 m 671 1018 b 754 919 747 1018 767 996 l 751 901 b 633 801 736 828 710 801 l 624 801 b 538 901 546 801 525 828 l 540 919 b 661 1018 553 993 583 1018 m 69 450 b 465 743 103 638 244 743 b 767 486 672 743 789 651 b 457 285 746 358 635 285 b 300 293 408 285 357 288 l 294 264 b 369 175 285 204 310 175 b 490 225 418 175 458 192 b 571 239 517 253 531 260 l 661 193 b 674 113 694 175 699 149 b 336 -21 608 24 496 -21 b 43 306 99 -21 8 111 m 514 503 b 438 560 519 540 494 560 b 332 474 379 560 344 531 l 328 458 b 424 451 363 454 394 451 b 514 503 478 451 508 468 "},"Ẁ":{"ha":1299,"x_min":0,"x_max":0,"o":"m 707 1269 b 799 1274 733 1294 764 1296 l 974 1158 b 969 1106 994 1146 993 1129 l 922 1058 b 857 1053 910 1044 888 1043 l 619 1131 b 621 1186 588 1142 594 1157 m 1346 986 b 1374 929 1386 986 1392 968 l 1007 49 b 926 0 990 10 969 0 l 754 0 b 690 46 714 0 692 11 l 674 369 b 692 619 671 453 676 536 l 679 619 b 606 369 661 533 636 450 l 475 49 b 393 0 458 10 436 0 l 226 0 b 163 46 186 0 164 15 l 107 929 b 154 986 103 969 114 986 l 322 986 b 393 935 374 986 392 978 l 392 571 b 367 325 390 492 382 410 l 376 325 b 446 571 394 418 418 500 l 596 935 b 682 986 613 978 636 986 l 831 986 b 900 935 879 986 899 975 l 919 571 b 904 325 924 508 918 426 l 915 325 b 978 571 928 393 949 475 l 1101 935 b 1189 986 1117 975 1138 986 "}}}
